<svg xmlns="http://www.w3.org/2000/svg" xmlns:xlink="http://www.w3.org/1999/xlink" width="1400" zoomAndPan="magnify" viewBox="0 0 1050 809.999993" height="1080" preserveAspectRatio="xMidYMid meet" version="1.0"><defs><clipPath id="90d473b2af"><path d="M 241.265625 14.246094 L 808.835938 14.246094 L 808.835938 538.777344 L 241.265625 538.777344 Z M 241.265625 14.246094 " clip-rule="nonzero"/></clipPath><clipPath id="f50e549921"><path d="M 302.023438 14.246094 L 747.96875 14.246094 C 764.082031 14.246094 779.539062 20.644531 790.933594 32.039062 C 802.324219 43.441406 808.726562 58.886719 808.726562 75.003906 L 808.726562 478.019531 C 808.726562 494.136719 802.324219 509.59375 790.933594 520.984375 C 779.539062 532.375 764.082031 538.777344 747.96875 538.777344 L 302.023438 538.777344 C 285.90625 538.777344 270.449219 532.375 259.058594 520.984375 C 247.667969 509.59375 241.265625 494.136719 241.265625 478.019531 L 241.265625 75.003906 C 241.265625 58.886719 247.667969 43.441406 259.058594 32.039062 C 270.449219 20.644531 285.90625 14.246094 302.023438 14.246094 Z M 302.023438 14.246094 " clip-rule="nonzero"/></clipPath><clipPath id="243ab8bab8"><path d="M 295 71.410156 L 755 71.410156 L 755 538.777344 L 295 538.777344 Z M 295 71.410156 " clip-rule="nonzero"/></clipPath></defs><g clip-path="url(#90d473b2af)"><g clip-path="url(#f50e549921)"><path fill="#000000" d="M 241.265625 14.246094 L 808.835938 14.246094 L 808.835938 538.777344 L 241.265625 538.777344 Z M 241.265625 14.246094 " fill-opacity="1" fill-rule="nonzero"/></g></g><g clip-path="url(#243ab8bab8)"><path fill="#ffffff" d="M 490.78125 160.808594 C 496.1875 166.527344 501.589844 172.238281 506.996094 177.957031 C 507.6875 178.6875 508.40625 179.476562 508.601562 180.464844 C 508.785156 181.363281 508.492188 182.289062 508.503906 183.214844 C 508.539062 185.308594 510.085938 187.011719 511.535156 188.507812 C 513.359375 190.382812 515.171875 192.246094 517 194.121094 C 518.15625 195.300781 519.347656 196.554688 519.808594 198.148438 C 520.441406 200.304688 519.617188 202.617188 519.882812 204.84375 C 520.066406 206.375 520.773438 207.800781 521.429688 209.210938 C 525.289062 217.378906 528.195312 226.007812 530.070312 234.84375 C 530.507812 236.949219 530.863281 239.300781 529.730469 241.125 C 528.71875 242.769531 526.785156 243.546875 525.25 244.703125 C 523.71875 245.859375 522.488281 248.050781 523.570312 249.644531 C 524.058594 250.363281 524.875 250.738281 525.664062 251.082031 C 534.050781 254.597656 543.191406 255.804688 552.210938 256.972656 C 553.804688 257.179688 555.421875 257.386719 557.015625 257.203125 C 559.828125 256.886719 562.46875 255.292969 564.078125 252.96875 C 570.683594 243.375 580.09375 236.023438 591.496094 233.699219 C 605.796875 230.765625 620.890625 236.023438 635.105469 232.714844 C 641.105469 225.328125 649.320312 218.914062 658.253906 215.664062 C 664.511719 213.398438 671.511719 212.351562 677.777344 214.542969 C 679.3125 215.078125 680.808594 215.796875 682.425781 215.882812 C 684.339844 215.980469 686.175781 215.152344 687.917969 214.347656 C 689.898438 213.433594 691.882812 212.523438 693.867188 211.597656 C 691.3125 199.304688 688.632812 185.929688 689.058594 173.367188 C 689.171875 170.179688 689.460938 167.003906 689.316406 163.8125 C 689.242188 162.0625 689.035156 160.308594 688.792969 158.570312 C 687.722656 151.167969 685.847656 143.890625 683.21875 136.890625 C 680.296875 129.175781 676.476562 121.835938 672.652344 114.507812 C 671.765625 112.816406 668.796875 112.511719 666.886719 112.621094 C 664.972656 112.730469 663.113281 113.28125 661.214844 113.4375 C 653.726562 114.09375 646.898438 108.972656 639.414062 108.339844 C 636.078125 108.058594 632.746094 108.679688 629.445312 109.261719 C 628.730469 109.398438 627.960938 109.519531 627.269531 109.25 C 626.511719 108.945312 626.015625 108.21875 625.601562 107.511719 C 624.75 106.085938 624.019531 104.601562 623.410156 103.070312 C 623.007812 102.070312 622.691406 100.867188 623.324219 100.015625 C 623.640625 99.585938 624.140625 99.34375 624.457031 98.929688 C 625.273438 97.835938 624.53125 96.265625 624.75 94.914062 C 624.882812 94.109375 625.371094 93.40625 625.820312 92.710938 C 628.460938 88.707031 630.566406 84.347656 632.0625 79.785156 C 632.695312 77.875 633.242188 75.855469 634.570312 74.332031 C 636.628906 71.972656 640.046875 71.363281 643.175781 71.410156 C 649.636719 71.535156 656.027344 73.96875 660.945312 78.167969 C 662.273438 79.296875 663.476562 80.539062 664.792969 81.683594 C 665.921875 82.671875 667.117188 83.570312 668.308594 84.472656 C 671.144531 86.613281 673.980469 88.753906 676.816406 90.898438 C 678.96875 92.515625 681.125 94.148438 683.277344 95.777344 C 686.019531 97.835938 688.757812 99.902344 691.75 101.582031 C 697.058594 104.542969 698.128906 111.003906 701.195312 116.25 C 703.070312 119.449219 705.371094 121.652344 707.535156 124.660156 C 711.550781 130.246094 715.570312 135.832031 719.585938 141.417969 C 722.25 145.132812 724.917969 148.84375 727.4375 152.652344 C 740.996094 173.113281 750.292969 196.394531 754.550781 220.578125 C 755.074219 223.511719 753.601562 226.375 751.949219 228.84375 C 750.269531 231.328125 748.003906 233.347656 745.8125 235.390625 C 734.652344 245.773438 724.820312 257.496094 713.707031 267.925781 C 702.605469 278.367188 689.914062 287.65625 675.257812 291.839844 C 662.148438 295.578125 647.472656 295.285156 636.203125 302.953125 C 621.425781 313.019531 626.5 337.082031 619.855469 353.667969 C 616.910156 360.996094 612.832031 367.875 610.507812 375.40625 C 605.945312 390.171875 602.804688 405.492188 596.355469 419.539062 C 593.980469 424.699219 591.242188 429.75 589.71875 435.226562 C 586.738281 445.988281 588.625 457.476562 591.339844 468.296875 C 594.054688 479.128906 597.582031 489.914062 597.863281 501.0625 C 598.179688 514.046875 605.007812 526.230469 608.574219 538.71875 L 439.226562 538.71875 C 442.160156 529.699219 445.359375 521.59375 449.242188 512.941406 C 450.386719 510.394531 451.578125 507.851562 452.140625 505.113281 C 452.664062 502.546875 452.613281 499.90625 452.785156 497.289062 C 453.671875 483.582031 460.585938 470.414062 459.160156 456.757812 C 458.640625 451.71875 459.464844 446.730469 457.800781 441.945312 C 456.132812 437.164062 453.601562 432.734375 451.082031 428.339844 C 444.777344 417.359375 438.375 406.359375 430.269531 396.644531 C 428.113281 399.507812 425.605469 402.390625 423.453125 405.25 C 421.285156 408.136719 419.105469 411.019531 416.820312 413.792969 C 407.558594 424.992188 396.140625 434.523438 383.058594 440.851562 C 375.523438 444.503906 367.464844 447.082031 360.320312 451.453125 C 356.925781 453.519531 353.75 456.003906 350.085938 457.550781 C 345.933594 459.289062 341.371094 459.765625 336.878906 459.898438 C 329.820312 460.117188 322.382812 459.4375 316.503906 455.527344 C 314.179688 453.996094 313.183594 451.207031 311.941406 448.726562 C 310.296875 445.476562 308.667969 442.238281 307.035156 438.988281 C 305.515625 435.957031 303.980469 432.925781 302.714844 429.773438 C 298.980469 420.476562 297.566406 410.421875 296.605469 400.441406 C 295.828125 392.347656 295.316406 384.230469 295.085938 376.101562 C 294.78125 365.792969 299.148438 355.363281 299.964844 345.089844 C 300.632812 336.8125 299.34375 328.269531 301.851562 320.359375 C 303.835938 314.078125 306.257812 307.382812 309.605469 301.710938 C 316.613281 289.796875 323.613281 277.894531 330.625 265.976562 C 331.121094 265.125 331.644531 264.261719 332.402344 263.628906 C 333.996094 262.289062 336.355469 262.289062 338.328125 262.933594 C 340.300781 263.59375 342.027344 264.808594 343.867188 265.769531 C 348.453125 268.179688 353.761719 269.058594 358.179688 271.757812 C 358.886719 272.183594 359.589844 272.683594 359.980469 273.414062 C 360.40625 274.191406 360.429688 275.117188 360.660156 275.96875 C 361.160156 277.796875 362.597656 279.183594 363.703125 280.71875 C 364.8125 282.25 365.640625 284.320312 364.75 285.988281 C 364.386719 286.667969 363.777344 287.191406 363.179688 287.667969 C 360.417969 289.855469 357.304688 291.695312 355.195312 294.519531 C 354.066406 296.003906 353.273438 297.71875 352.203125 299.253906 C 346.617188 307.214844 334.480469 308.929688 329.871094 317.496094 C 328.117188 320.746094 327.738281 324.558594 327.691406 328.246094 C 327.558594 335.789062 328.617188 343.347656 330.804688 350.566406 C 332.449219 356.019531 336.027344 360.195312 338.996094 365.0625 C 340.421875 367.398438 341.882812 369.710938 343.574219 371.867188 C 344.875 373.53125 346.3125 375.101562 347.457031 376.867188 C 348.894531 379.09375 349.855469 381.589844 350.777344 384.085938 C 352.519531 380.738281 353.457031 376.917969 354.625 373.339844 C 356.351562 368.007812 359.859375 363.394531 363.984375 359.597656 C 368.097656 355.8125 372.832031 352.757812 377.566406 349.761719 C 377.347656 342.339844 380.902344 335.390625 384.226562 328.753906 C 386.304688 324.617188 388.570312 320.550781 391.320312 316.828125 C 403.285156 300.605469 424.644531 291.890625 444.53125 295.101562 C 446.164062 295.371094 448.085938 294.554688 449.253906 293.398438 C 453.722656 288.96875 458.199219 284.550781 462.679688 280.132812 C 464.140625 278.683594 465.625 277.222656 466.671875 275.457031 C 468.898438 271.699219 468.921875 266.9375 467.683594 262.753906 C 466.441406 258.566406 464.078125 254.804688 461.695312 251.140625 C 460.125 248.71875 458.492188 246.273438 456.191406 244.507812 C 454.683594 243.363281 452.953125 242.546875 451.324219 241.574219 C 444.996094 237.8125 440.152344 231.558594 433.214844 229.097656 C 423.792969 225.753906 416.539062 216.503906 413.070312 207.128906 C 411.695312 203.394531 411.136719 199.355469 411.476562 195.375 C 411.707031 192.621094 412.351562 189.910156 413.007812 187.21875 C 413.921875 183.433594 414.835938 179.636719 415.746094 175.851562 C 416.089844 174.402344 416.441406 172.941406 417.097656 171.605469 C 418.4375 168.851562 420.894531 166.84375 423.292969 164.945312 C 428.578125 160.757812 433.917969 156.621094 439.808594 153.371094 C 445.699219 150.121094 452.210938 147.785156 458.929688 147.46875 C 462.21875 147.308594 465.515625 147.652344 468.777344 148.101562 C 472.941406 148.6875 477.125 149.5 480.921875 151.277344 C 484.734375 153.054688 487.898438 157.753906 490.78125 160.808594 Z M 490.78125 160.808594 " fill-opacity="1" fill-rule="nonzero"/></g><path fill="#000000" d="M 46.164062 614.800781 C 54.308594 614.800781 61.414062 616.429688 67.488281 619.667969 C 73.550781 622.882812 78.25 627.410156 81.558594 633.25 C 84.894531 639.070312 86.574219 645.761719 86.574219 653.355469 C 86.574219 660.925781 84.894531 667.621094 81.558594 673.464844 C 78.25 679.304688 73.527344 683.859375 67.390625 687.09375 C 61.28125 690.308594 54.210938 691.914062 46.164062 691.914062 L 17.296875 691.914062 L 17.296875 614.800781 Z M 44.949219 675.65625 C 52.054688 675.65625 57.582031 673.730469 61.550781 669.859375 C 65.503906 665.964844 67.488281 660.464844 67.488281 653.355469 C 67.488281 646.25 65.503906 640.734375 61.550781 636.804688 C 57.582031 632.847656 52.054688 630.863281 44.949219 630.863281 L 36.085938 630.863281 L 36.085938 675.65625 Z M 44.949219 675.65625 " fill-opacity="1" fill-rule="nonzero"/><path fill="#000000" d="M 133.582031 692.695312 C 126.339844 692.695312 119.679688 691.015625 113.621094 687.628906 C 107.582031 684.257812 102.773438 679.550781 99.210938 673.511719 C 95.667969 667.476562 93.902344 660.695312 93.902344 653.164062 C 93.902344 645.605469 95.667969 638.824219 99.210938 632.8125 C 102.773438 626.8125 107.582031 622.136719 113.621094 618.792969 C 119.679688 615.421875 126.339844 613.726562 133.582031 613.726562 C 140.808594 613.726562 147.457031 615.421875 153.492188 618.792969 C 159.527344 622.136719 164.277344 626.8125 167.757812 632.8125 C 171.261719 638.824219 173.015625 645.605469 173.015625 653.164062 C 173.015625 660.695312 171.238281 667.476562 167.707031 673.511719 C 164.203125 679.550781 159.445312 684.257812 153.441406 687.628906 C 147.429688 691.015625 140.808594 692.695312 133.582031 692.695312 Z M 133.582031 675.558594 C 139.714844 675.558594 144.632812 673.511719 148.332031 669.421875 C 152.03125 665.308594 153.882812 659.878906 153.882812 653.164062 C 153.882812 646.347656 152.03125 640.917969 148.332031 636.851562 C 144.632812 632.765625 139.714844 630.71875 133.582031 630.71875 C 127.347656 630.71875 122.382812 632.75 118.683594 636.804688 C 114.984375 640.832031 113.132812 646.285156 113.132812 653.164062 C 113.132812 659.953125 114.984375 665.382812 118.683594 669.472656 C 122.382812 673.535156 127.347656 675.558594 133.582031 675.558594 Z M 133.582031 675.558594 " fill-opacity="1" fill-rule="nonzero"/><path fill="#000000" d="M 289.5 614.800781 L 269.394531 691.914062 L 246.65625 691.914062 L 234.390625 641.1875 L 221.632812 691.914062 L 198.898438 691.914062 L 179.328125 614.800781 L 199.433594 614.800781 L 210.535156 670.933594 L 224.261719 614.800781 L 244.90625 614.800781 L 258.097656 670.933594 L 269.296875 614.800781 Z M 289.5 614.800781 " fill-opacity="1" fill-rule="nonzero"/><path fill="#000000" d="M 335.382812 692.695312 C 328.140625 692.695312 321.484375 691.015625 315.421875 687.628906 C 309.386719 684.257812 304.578125 679.550781 301.011719 673.511719 C 297.46875 667.476562 295.707031 660.695312 295.707031 653.164062 C 295.707031 645.605469 297.46875 638.824219 301.011719 632.8125 C 304.578125 626.8125 309.386719 622.136719 315.421875 618.792969 C 321.484375 615.421875 328.140625 613.726562 335.382812 613.726562 C 342.613281 613.726562 349.257812 615.421875 355.292969 618.792969 C 361.332031 622.136719 366.078125 626.8125 369.558594 632.8125 C 373.066406 638.824219 374.816406 645.605469 374.816406 653.164062 C 374.816406 660.695312 373.039062 667.476562 369.511719 673.511719 C 366.003906 679.550781 361.246094 684.257812 355.246094 687.628906 C 349.234375 691.015625 342.613281 692.695312 335.382812 692.695312 Z M 335.382812 675.558594 C 341.515625 675.558594 346.433594 673.511719 350.132812 669.421875 C 353.835938 665.308594 355.683594 659.878906 355.683594 653.164062 C 355.683594 646.347656 353.835938 640.917969 350.132812 636.851562 C 346.433594 632.765625 341.515625 630.71875 335.382812 630.71875 C 329.152344 630.71875 324.1875 632.75 320.484375 636.804688 C 316.785156 640.832031 314.9375 646.285156 314.9375 653.164062 C 314.9375 659.953125 316.785156 665.382812 320.484375 669.472656 C 324.1875 673.535156 329.152344 675.558594 335.382812 675.558594 Z M 335.382812 675.558594 " fill-opacity="1" fill-rule="nonzero"/><path fill="#000000" d="M 424.554688 691.914062 L 408.492188 662.800781 L 404.011719 662.800781 L 404.011719 691.914062 L 385.21875 691.914062 L 385.21875 614.800781 L 416.71875 614.800781 C 422.816406 614.800781 428.011719 615.871094 432.296875 618.011719 C 436.582031 620.128906 439.769531 623.027344 441.886719 626.726562 C 443.992188 630.425781 445.050781 634.554688 445.050781 639.09375 C 445.050781 644.230469 443.605469 648.804688 440.71875 652.820312 C 437.824219 656.851562 433.5625 659.710938 427.914062 661.390625 L 445.734375 691.914062 Z M 404.011719 649.511719 L 415.648438 649.511719 C 419.078125 649.511719 421.660156 648.671875 423.386719 646.980469 C 425.105469 645.300781 425.96875 642.925781 425.96875 639.871094 C 425.96875 636.925781 425.105469 634.613281 423.386719 632.957031 C 421.660156 631.277344 419.078125 630.425781 415.648438 630.425781 L 404.011719 630.425781 Z M 404.011719 649.511719 " fill-opacity="1" fill-rule="nonzero"/><path fill="#000000" d="M 501.496094 691.914062 L 475.597656 657.886719 L 475.597656 691.914062 L 456.804688 691.914062 L 456.804688 614.800781 L 475.597656 614.800781 L 475.597656 648.636719 L 501.300781 614.800781 L 523.355469 614.800781 L 493.464844 652.578125 L 524.476562 691.914062 Z M 501.496094 691.914062 " fill-opacity="1" fill-rule="nonzero"/><path fill="#000000" d="M 569.796875 692.695312 C 562.554688 692.695312 555.894531 691.015625 549.835938 687.628906 C 543.796875 684.257812 538.992188 679.550781 535.425781 673.511719 C 531.882812 667.476562 530.117188 660.695312 530.117188 653.164062 C 530.117188 645.605469 531.882812 638.824219 535.425781 632.8125 C 538.992188 626.8125 543.796875 622.136719 549.835938 618.792969 C 555.894531 615.421875 562.554688 613.726562 569.796875 613.726562 C 577.023438 613.726562 583.671875 615.421875 589.707031 618.792969 C 595.746094 622.136719 600.492188 626.8125 603.972656 632.8125 C 607.476562 638.824219 609.230469 645.605469 609.230469 653.164062 C 609.230469 660.695312 607.453125 667.476562 603.921875 673.511719 C 600.417969 679.550781 595.660156 684.257812 589.660156 687.628906 C 583.644531 691.015625 577.023438 692.695312 569.796875 692.695312 Z M 569.796875 675.558594 C 575.929688 675.558594 580.847656 673.511719 584.546875 669.421875 C 588.246094 665.308594 590.097656 659.878906 590.097656 653.164062 C 590.097656 646.347656 588.246094 640.917969 584.546875 636.851562 C 580.847656 632.765625 575.929688 630.71875 569.796875 630.71875 C 563.5625 630.71875 558.597656 632.75 554.898438 636.804688 C 551.199219 640.832031 549.347656 646.285156 549.347656 653.164062 C 549.347656 659.953125 551.199219 665.382812 554.898438 669.472656 C 558.597656 673.535156 563.5625 675.558594 569.796875 675.558594 Z M 569.796875 675.558594 " fill-opacity="1" fill-rule="nonzero"/><path fill="#000000" d="M 638.082031 614.800781 L 638.082031 660.953125 C 638.082031 665.566406 639.210938 669.117188 641.488281 671.613281 C 643.753906 674.085938 647.085938 675.3125 651.46875 675.3125 C 655.851562 675.3125 659.210938 674.085938 661.546875 671.613281 C 663.90625 669.117188 665.101562 665.566406 665.101562 660.953125 L 665.101562 614.800781 L 683.890625 614.800781 L 683.890625 660.855469 C 683.890625 667.742188 682.40625 673.5625 679.460938 678.332031 C 676.539062 683.078125 672.609375 686.65625 667.679688 689.089844 C 662.738281 691.5 657.226562 692.695312 651.128906 692.695312 C 645.054688 692.695312 639.613281 691.511719 634.820312 689.140625 C 630.046875 686.742188 626.261719 683.152344 623.476562 678.378906 C 620.675781 673.585938 619.289062 667.742188 619.289062 660.855469 L 619.289062 614.800781 Z M 638.082031 614.800781 " fill-opacity="1" fill-rule="nonzero"/><path fill="#000000" d="M 752.484375 614.800781 L 752.484375 629.84375 L 732.085938 629.84375 L 732.085938 691.914062 L 713.296875 691.914062 L 713.296875 629.84375 L 692.847656 629.84375 L 692.847656 614.800781 Z M 752.484375 614.800781 " fill-opacity="1" fill-rule="nonzero"/><path fill="#000000" d="M 830.910156 691.914062 L 812.117188 691.914062 L 780.714844 644.351562 L 780.714844 691.914062 L 761.921875 691.914062 L 761.921875 614.800781 L 780.714844 614.800781 L 812.117188 662.605469 L 812.117188 614.800781 L 830.910156 614.800781 Z M 830.910156 691.914062 " fill-opacity="1" fill-rule="nonzero"/><path fill="#000000" d="M 880.953125 692.695312 C 873.710938 692.695312 867.054688 691.015625 860.992188 687.628906 C 854.957031 684.257812 850.148438 679.550781 846.582031 673.511719 C 843.039062 667.476562 841.277344 660.695312 841.277344 653.164062 C 841.277344 645.605469 843.039062 638.824219 846.582031 632.8125 C 850.148438 626.8125 854.957031 622.136719 860.992188 618.792969 C 867.054688 615.421875 873.710938 613.726562 880.953125 613.726562 C 888.183594 613.726562 894.828125 615.421875 900.863281 618.792969 C 906.902344 622.136719 911.648438 626.8125 915.128906 632.8125 C 918.632812 638.824219 920.386719 645.605469 920.386719 653.164062 C 920.386719 660.695312 918.609375 667.476562 915.082031 673.511719 C 911.574219 679.550781 906.816406 684.257812 900.816406 687.628906 C 894.804688 691.015625 888.183594 692.695312 880.953125 692.695312 Z M 880.953125 675.558594 C 887.085938 675.558594 892.003906 673.511719 895.703125 669.421875 C 899.40625 665.308594 901.253906 659.878906 901.253906 653.164062 C 901.253906 646.347656 899.40625 640.917969 895.703125 636.851562 C 892.003906 632.765625 887.085938 630.71875 880.953125 630.71875 C 874.722656 630.71875 869.753906 632.75 866.054688 636.804688 C 862.355469 640.832031 860.503906 646.285156 860.503906 653.164062 C 860.503906 659.953125 862.355469 665.382812 866.054688 669.472656 C 869.753906 673.535156 874.722656 675.558594 880.953125 675.558594 Z M 880.953125 675.558594 " fill-opacity="1" fill-rule="nonzero"/><path fill="#000000" d="M 1036.871094 614.800781 L 1016.761719 691.914062 L 994.027344 691.914062 L 981.757812 641.1875 L 969.003906 691.914062 L 946.269531 691.914062 L 926.695312 614.800781 L 946.804688 614.800781 L 957.902344 670.933594 L 971.632812 614.800781 L 992.273438 614.800781 L 1005.46875 670.933594 L 1016.664062 614.800781 Z M 1036.871094 614.800781 " fill-opacity="1" fill-rule="nonzero"/></svg>