<svg xmlns="http://www.w3.org/2000/svg" xmlns:xlink="http://www.w3.org/1999/xlink" width="1400" zoomAndPan="magnify" viewBox="0 0 1050 809.999993" height="1080" preserveAspectRatio="xMidYMid meet" version="1.0"><defs><clipPath id="6869d43edf"><path d="M 241.289062 14.269531 L 808.902344 14.269531 L 808.902344 538.84375 L 241.289062 538.84375 Z M 241.289062 14.269531 " clip-rule="nonzero"/></clipPath><clipPath id="5f309aba5f"><path d="M 302.050781 14.269531 L 748.027344 14.269531 C 764.144531 14.269531 779.601562 20.671875 790.996094 32.066406 C 802.386719 43.472656 808.789062 58.917969 808.789062 75.03125 L 808.789062 478.078125 C 808.789062 494.195312 802.386719 509.652344 790.996094 521.046875 C 779.601562 532.441406 764.144531 538.84375 748.027344 538.84375 L 302.050781 538.84375 C 285.9375 538.84375 270.476562 532.441406 259.085938 521.046875 C 247.691406 509.652344 241.289062 494.195312 241.289062 478.078125 L 241.289062 75.03125 C 241.289062 58.917969 247.691406 43.472656 259.085938 32.066406 C 270.476562 20.671875 285.9375 14.269531 302.050781 14.269531 Z M 302.050781 14.269531 " clip-rule="nonzero"/></clipPath><clipPath id="e0dd37e236"><path d="M 295 71.441406 L 755 71.441406 L 755 538.84375 L 295 538.84375 Z M 295 71.441406 " clip-rule="nonzero"/></clipPath></defs><g clip-path="url(#6869d43edf)"><g clip-path="url(#5f309aba5f)"><path fill="#5ce1e6" d="M 241.289062 14.269531 L 808.902344 14.269531 L 808.902344 538.84375 L 241.289062 538.84375 Z M 241.289062 14.269531 " fill-opacity="1" fill-rule="nonzero"/></g></g><g clip-path="url(#e0dd37e236)"><path fill="#ffffff" d="M 490.824219 160.84375 C 496.230469 166.566406 501.632812 172.273438 507.039062 177.996094 C 507.730469 178.726562 508.449219 179.515625 508.644531 180.5 C 508.828125 181.402344 508.535156 182.328125 508.546875 183.253906 C 508.582031 185.347656 510.128906 187.050781 511.578125 188.546875 C 513.402344 190.421875 515.21875 192.285156 517.042969 194.160156 C 518.199219 195.339844 519.390625 196.59375 519.855469 198.1875 C 520.488281 200.34375 519.660156 202.65625 519.929688 204.882812 C 520.109375 206.414062 520.816406 207.839844 521.472656 209.25 C 525.332031 217.417969 528.242188 226.050781 530.117188 234.886719 C 530.554688 236.992188 530.90625 239.339844 529.773438 241.167969 C 528.765625 242.808594 526.828125 243.589844 525.296875 244.746094 C 523.761719 245.902344 522.53125 248.09375 523.617188 249.6875 C 524.101562 250.40625 524.917969 250.78125 525.710938 251.125 C 534.097656 254.640625 543.238281 255.847656 552.257812 257.015625 C 553.851562 257.222656 555.46875 257.429688 557.0625 257.246094 C 559.875 256.929688 562.515625 255.335938 564.125 253.011719 C 570.734375 243.417969 580.140625 236.066406 591.546875 233.742188 C 605.847656 230.808594 620.941406 236.066406 635.160156 232.753906 C 641.160156 225.367188 649.375 218.953125 658.308594 215.703125 C 664.566406 213.4375 671.566406 212.390625 677.832031 214.582031 C 679.367188 215.117188 680.863281 215.835938 682.484375 215.921875 C 684.394531 216.019531 686.230469 215.191406 687.972656 214.386719 C 689.957031 213.476562 691.941406 212.5625 693.925781 211.636719 C 691.367188 199.34375 688.691406 185.96875 689.117188 173.40625 C 689.226562 170.214844 689.519531 167.039062 689.371094 163.851562 C 689.300781 162.097656 689.09375 160.34375 688.847656 158.605469 C 687.777344 151.203125 685.902344 143.925781 683.273438 136.925781 C 680.351562 129.210938 676.53125 121.871094 672.710938 114.542969 C 671.820312 112.851562 668.851562 112.546875 666.941406 112.65625 C 665.027344 112.765625 663.167969 113.3125 661.269531 113.472656 C 653.78125 114.128906 646.953125 109.003906 639.46875 108.371094 C 636.132812 108.089844 632.796875 108.710938 629.5 109.296875 C 628.78125 109.429688 628.015625 109.550781 627.320312 109.285156 C 626.566406 108.980469 626.066406 108.25 625.652344 107.542969 C 624.800781 106.121094 624.070312 104.632812 623.460938 103.101562 C 623.058594 102.101562 622.742188 100.898438 623.375 100.046875 C 623.691406 99.621094 624.191406 99.375 624.507812 98.960938 C 625.324219 97.867188 624.582031 96.296875 624.800781 94.945312 C 624.933594 94.140625 625.421875 93.4375 625.871094 92.742188 C 628.511719 88.738281 630.617188 84.378906 632.117188 79.816406 C 632.75 77.90625 633.296875 75.882812 634.625 74.363281 C 636.679688 72 640.101562 71.394531 643.230469 71.441406 C 649.691406 71.5625 656.082031 73.996094 661 78.199219 C 662.328125 79.328125 663.53125 80.570312 664.847656 81.714844 C 665.976562 82.699219 667.171875 83.601562 668.363281 84.503906 C 671.199219 86.644531 674.035156 88.785156 676.871094 90.929688 C 679.027344 92.546875 681.179688 94.179688 683.335938 95.808594 C 686.074219 97.867188 688.8125 99.9375 691.808594 101.617188 C 697.113281 104.574219 698.183594 111.035156 701.253906 116.28125 C 703.125 119.484375 705.425781 121.6875 707.59375 124.695312 C 711.609375 130.28125 715.628906 135.867188 719.644531 141.453125 C 722.308594 145.167969 724.976562 148.878906 727.496094 152.6875 C 741.054688 173.148438 750.355469 196.433594 754.613281 220.621094 C 755.136719 223.554688 753.664062 226.414062 752.007812 228.886719 C 750.328125 231.367188 748.066406 233.390625 745.875 235.433594 C 734.714844 245.816406 724.878906 257.539062 713.765625 267.96875 C 702.664062 278.414062 689.96875 287.699219 675.3125 291.886719 C 662.203125 295.625 647.527344 295.332031 636.253906 303 C 621.476562 313.066406 626.554688 337.128906 619.90625 353.71875 C 616.960938 361.046875 612.882812 367.925781 610.558594 375.457031 C 605.996094 390.222656 602.855469 405.546875 596.402344 419.59375 C 594.03125 424.753906 591.292969 429.804688 589.769531 435.285156 C 586.789062 446.042969 588.675781 457.535156 591.390625 468.355469 C 594.101562 479.1875 597.632812 489.972656 597.914062 501.121094 C 598.230469 514.109375 605.058594 526.292969 608.625 538.78125 L 439.265625 538.78125 C 442.199219 529.761719 445.398438 521.65625 449.28125 513 C 450.425781 510.457031 451.621094 507.914062 452.179688 505.175781 C 452.703125 502.605469 452.652344 499.964844 452.824219 497.347656 C 453.714844 483.640625 460.625 470.472656 459.203125 456.816406 C 458.679688 451.777344 459.507812 446.785156 457.839844 442.003906 C 456.171875 437.21875 453.640625 432.789062 451.121094 428.394531 C 444.816406 417.414062 438.414062 406.410156 430.304688 396.699219 C 428.152344 399.558594 425.644531 402.445312 423.492188 405.304688 C 421.324219 408.1875 419.144531 411.074219 416.855469 413.847656 C 407.59375 425.046875 396.175781 434.578125 383.09375 440.90625 C 375.558594 444.558594 367.5 447.140625 360.355469 451.507812 C 356.957031 453.578125 353.78125 456.0625 350.117188 457.605469 C 345.96875 459.347656 341.402344 459.820312 336.910156 459.957031 C 329.851562 460.175781 322.414062 459.492188 316.535156 455.585938 C 314.210938 454.050781 313.214844 451.265625 311.972656 448.78125 C 310.328125 445.53125 308.699219 442.292969 307.066406 439.042969 C 305.542969 436.015625 304.011719 432.984375 302.746094 429.832031 C 299.007812 420.53125 297.597656 410.476562 296.636719 400.496094 C 295.855469 392.402344 295.34375 384.285156 295.113281 376.152344 C 294.808594 365.84375 299.179688 355.410156 299.996094 345.140625 C 300.664062 336.863281 299.375 328.316406 301.882812 320.40625 C 303.863281 314.125 306.289062 307.429688 309.632812 301.757812 C 316.644531 289.84375 323.644531 277.9375 330.65625 266.023438 C 331.15625 265.167969 331.679688 264.304688 332.433594 263.671875 C 334.027344 262.332031 336.386719 262.332031 338.359375 262.980469 C 340.332031 263.636719 342.058594 264.851562 343.898438 265.816406 C 348.488281 268.226562 353.792969 269.101562 358.210938 271.804688 C 358.917969 272.230469 359.625 272.726562 360.015625 273.457031 C 360.441406 274.238281 360.464844 275.164062 360.695312 276.015625 C 361.195312 277.839844 362.632812 279.226562 363.738281 280.761719 C 364.847656 282.296875 365.675781 284.363281 364.785156 286.03125 C 364.421875 286.714844 363.8125 287.238281 363.214844 287.710938 C 360.453125 289.902344 357.335938 291.742188 355.230469 294.566406 C 354.097656 296.050781 353.308594 297.765625 352.234375 299.300781 C 346.648438 307.261719 334.515625 308.976562 329.902344 317.546875 C 328.148438 320.796875 327.769531 324.605469 327.722656 328.292969 C 327.589844 335.839844 328.648438 343.398438 330.839844 350.617188 C 332.480469 356.070312 336.058594 360.242188 339.03125 365.113281 C 340.453125 367.449219 341.914062 369.761719 343.605469 371.917969 C 344.910156 373.585938 346.34375 375.15625 347.488281 376.917969 C 348.925781 379.148438 349.886719 381.640625 350.8125 384.136719 C 352.550781 380.789062 353.488281 376.96875 354.660156 373.390625 C 356.386719 368.058594 359.890625 363.445312 364.019531 359.648438 C 368.132812 355.863281 372.867188 352.808594 377.601562 349.8125 C 377.382812 342.386719 380.9375 335.4375 384.261719 328.804688 C 386.339844 324.664062 388.605469 320.601562 391.355469 316.875 C 403.320312 300.652344 424.683594 291.933594 444.570312 295.148438 C 446.203125 295.417969 448.125 294.601562 449.292969 293.445312 C 453.761719 289.015625 458.242188 284.597656 462.71875 280.175781 C 464.179688 278.730469 465.664062 277.269531 466.710938 275.503906 C 468.941406 271.742188 468.964844 266.984375 467.722656 262.796875 C 466.480469 258.609375 464.121094 254.847656 461.734375 251.183594 C 460.164062 248.761719 458.53125 246.316406 456.234375 244.550781 C 454.722656 243.40625 452.996094 242.589844 451.363281 241.617188 C 445.035156 237.855469 440.191406 231.597656 433.253906 229.140625 C 423.832031 225.792969 416.578125 216.542969 413.109375 207.171875 C 411.730469 203.433594 411.171875 199.394531 411.511719 195.414062 C 411.746094 192.660156 412.390625 189.949219 413.046875 187.257812 C 413.960938 183.472656 414.871094 179.675781 415.785156 175.890625 C 416.125 174.441406 416.480469 172.980469 417.136719 171.640625 C 418.476562 168.890625 420.933594 166.882812 423.332031 164.984375 C 428.613281 160.796875 433.957031 156.65625 439.847656 153.40625 C 445.742188 150.15625 452.253906 147.820312 458.972656 147.503906 C 462.257812 147.347656 465.554688 147.6875 468.816406 148.136719 C 472.980469 148.722656 477.167969 149.535156 480.964844 151.3125 C 484.777344 153.089844 487.941406 157.789062 490.824219 160.84375 Z M 490.824219 160.84375 " fill-opacity="1" fill-rule="nonzero"/></g><path fill="#5ce1e6" d="M 46.175781 614.867188 C 54.320312 614.867188 61.429688 616.5 67.503906 619.738281 C 73.5625 622.949219 78.261719 627.476562 81.574219 633.320312 C 84.90625 639.136719 86.585938 645.832031 86.585938 653.429688 C 86.585938 661 84.90625 667.695312 81.574219 673.535156 C 78.261719 679.378906 73.539062 683.929688 67.40625 687.167969 C 61.292969 690.382812 54.222656 691.988281 46.175781 691.988281 L 17.304688 691.988281 L 17.304688 614.867188 Z M 44.960938 675.726562 C 52.066406 675.726562 57.59375 673.804688 61.5625 669.933594 C 65.519531 666.039062 67.503906 660.535156 67.503906 653.429688 C 67.503906 646.320312 65.519531 640.804688 61.5625 636.875 C 57.59375 632.917969 52.066406 630.933594 44.960938 630.933594 L 36.097656 630.933594 L 36.097656 675.726562 Z M 44.960938 675.726562 " fill-opacity="1" fill-rule="nonzero"/><path fill="#5ce1e6" d="M 133.597656 692.769531 C 126.355469 692.769531 119.699219 691.085938 113.636719 687.703125 C 107.597656 684.332031 102.789062 679.621094 99.222656 673.585938 C 95.683594 667.546875 93.917969 660.769531 93.917969 653.234375 C 93.917969 645.675781 95.683594 638.894531 99.222656 632.882812 C 102.789062 626.882812 107.597656 622.207031 113.636719 618.859375 C 119.699219 615.488281 126.355469 613.796875 133.597656 613.796875 C 140.828125 613.796875 147.472656 615.488281 153.511719 618.859375 C 159.546875 622.207031 164.296875 626.882812 167.777344 632.882812 C 171.28125 638.894531 173.035156 645.675781 173.035156 653.234375 C 173.035156 660.769531 171.257812 667.546875 167.726562 673.585938 C 164.222656 679.621094 159.464844 684.332031 153.460938 687.703125 C 147.449219 691.085938 140.828125 692.769531 133.597656 692.769531 Z M 133.597656 675.628906 C 139.730469 675.628906 144.648438 673.585938 148.351562 669.496094 C 152.050781 665.382812 153.902344 659.953125 153.902344 653.234375 C 153.902344 646.417969 152.050781 640.988281 148.351562 636.921875 C 144.648438 632.832031 139.730469 630.789062 133.597656 630.789062 C 127.367188 630.789062 122.398438 632.820312 118.699219 636.875 C 115 640.902344 113.148438 646.355469 113.148438 653.234375 C 113.148438 660.023438 115 665.453125 118.699219 669.542969 C 122.398438 673.609375 127.367188 675.628906 133.597656 675.628906 Z M 133.597656 675.628906 " fill-opacity="1" fill-rule="nonzero"/><path fill="#5ce1e6" d="M 289.527344 614.867188 L 269.421875 691.988281 L 246.683594 691.988281 L 234.414062 641.257812 L 221.65625 691.988281 L 198.921875 691.988281 L 179.347656 614.867188 L 199.457031 614.867188 L 210.558594 671.003906 L 224.285156 614.867188 L 244.929688 614.867188 L 258.125 671.003906 L 269.324219 614.867188 Z M 289.527344 614.867188 " fill-opacity="1" fill-rule="nonzero"/><path fill="#5ce1e6" d="M 335.414062 692.769531 C 328.171875 692.769531 321.515625 691.085938 315.453125 687.703125 C 309.414062 684.332031 304.609375 679.621094 301.042969 673.585938 C 297.5 667.546875 295.734375 660.769531 295.734375 653.234375 C 295.734375 645.675781 297.5 638.894531 301.042969 632.882812 C 304.609375 626.882812 309.414062 622.207031 315.453125 618.859375 C 321.515625 615.488281 328.171875 613.796875 335.414062 613.796875 C 342.644531 613.796875 349.289062 615.488281 355.328125 618.859375 C 361.367188 622.207031 366.113281 626.882812 369.59375 632.882812 C 373.097656 638.894531 374.851562 645.675781 374.851562 653.234375 C 374.851562 660.769531 373.074219 667.546875 369.542969 673.585938 C 366.039062 679.621094 361.28125 684.332031 355.28125 687.703125 C 349.265625 691.085938 342.644531 692.769531 335.414062 692.769531 Z M 335.414062 675.628906 C 341.550781 675.628906 346.46875 673.585938 350.167969 669.496094 C 353.867188 665.382812 355.71875 659.953125 355.71875 653.234375 C 355.71875 646.417969 353.867188 640.988281 350.167969 636.921875 C 346.46875 632.832031 341.550781 630.789062 335.414062 630.789062 C 329.183594 630.789062 324.214844 632.820312 320.515625 636.875 C 316.816406 640.902344 314.964844 646.355469 314.964844 653.234375 C 314.964844 660.023438 316.816406 665.453125 320.515625 669.542969 C 324.214844 673.609375 329.183594 675.628906 335.414062 675.628906 Z M 335.414062 675.628906 " fill-opacity="1" fill-rule="nonzero"/><path fill="#5ce1e6" d="M 424.59375 691.988281 L 408.527344 662.875 L 404.046875 662.875 L 404.046875 691.988281 L 385.253906 691.988281 L 385.253906 614.867188 L 416.753906 614.867188 C 422.855469 614.867188 428.050781 615.9375 432.335938 618.082031 C 436.621094 620.199219 439.808594 623.097656 441.925781 626.796875 C 444.03125 630.496094 445.09375 634.621094 445.09375 639.164062 C 445.09375 644.300781 443.644531 648.875 440.757812 652.890625 C 437.863281 656.921875 433.601562 659.78125 427.953125 661.460938 L 445.773438 691.988281 Z M 404.046875 649.582031 L 415.683594 649.582031 C 419.117188 649.582031 421.699219 648.742188 423.425781 647.050781 C 425.140625 645.371094 426.007812 642.996094 426.007812 639.941406 C 426.007812 636.996094 425.140625 634.683594 423.425781 633.027344 C 421.699219 631.347656 419.117188 630.496094 415.683594 630.496094 L 404.046875 630.496094 Z M 404.046875 649.582031 " fill-opacity="1" fill-rule="nonzero"/><path fill="#5ce1e6" d="M 501.539062 691.988281 L 475.636719 657.957031 L 475.636719 691.988281 L 456.84375 691.988281 L 456.84375 614.867188 L 475.636719 614.867188 L 475.636719 648.707031 L 501.34375 614.867188 L 523.402344 614.867188 L 493.507812 652.648438 L 524.519531 691.988281 Z M 501.539062 691.988281 " fill-opacity="1" fill-rule="nonzero"/><path fill="#5ce1e6" d="M 569.84375 692.769531 C 562.601562 692.769531 555.945312 691.085938 549.882812 687.703125 C 543.84375 684.332031 539.035156 679.621094 535.46875 673.585938 C 531.929688 667.546875 530.164062 660.769531 530.164062 653.234375 C 530.164062 645.675781 531.929688 638.894531 535.46875 632.882812 C 539.035156 626.882812 543.84375 622.207031 549.882812 618.859375 C 555.945312 615.488281 562.601562 613.796875 569.84375 613.796875 C 577.074219 613.796875 583.71875 615.488281 589.757812 618.859375 C 595.792969 622.207031 600.542969 626.882812 604.023438 632.882812 C 607.527344 638.894531 609.28125 645.675781 609.28125 653.234375 C 609.28125 660.769531 607.503906 667.546875 603.972656 673.585938 C 600.46875 679.621094 595.710938 684.332031 589.707031 687.703125 C 583.695312 691.085938 577.074219 692.769531 569.84375 692.769531 Z M 569.84375 675.628906 C 575.980469 675.628906 580.894531 673.585938 584.597656 669.496094 C 588.296875 665.382812 590.148438 659.953125 590.148438 653.234375 C 590.148438 646.417969 588.296875 640.988281 584.597656 636.921875 C 580.894531 632.832031 575.980469 630.789062 569.84375 630.789062 C 563.613281 630.789062 558.644531 632.820312 554.945312 636.875 C 551.246094 640.902344 549.394531 646.355469 549.394531 653.234375 C 549.394531 660.023438 551.246094 665.453125 554.945312 669.542969 C 558.644531 673.609375 563.613281 675.628906 569.84375 675.628906 Z M 569.84375 675.628906 " fill-opacity="1" fill-rule="nonzero"/><path fill="#5ce1e6" d="M 638.132812 614.867188 L 638.132812 661.023438 C 638.132812 665.636719 639.265625 669.191406 641.542969 671.6875 C 643.804688 674.15625 647.140625 675.386719 651.523438 675.386719 C 655.90625 675.386719 659.265625 674.15625 661.601562 671.6875 C 663.960938 669.191406 665.15625 665.636719 665.15625 661.023438 L 665.15625 614.867188 L 683.949219 614.867188 L 683.949219 660.925781 C 683.949219 667.816406 682.464844 673.632812 679.519531 678.40625 C 676.597656 683.152344 672.664062 686.730469 667.734375 689.164062 C 662.792969 691.574219 657.28125 692.769531 651.183594 692.769531 C 645.109375 692.769531 639.667969 691.585938 634.871094 689.214844 C 630.101562 686.816406 626.316406 683.226562 623.527344 678.453125 C 620.726562 673.65625 619.339844 667.816406 619.339844 660.925781 L 619.339844 614.867188 Z M 638.132812 614.867188 " fill-opacity="1" fill-rule="nonzero"/><path fill="#5ce1e6" d="M 752.546875 614.867188 L 752.546875 629.910156 L 732.148438 629.910156 L 732.148438 691.988281 L 713.351562 691.988281 L 713.351562 629.910156 L 692.90625 629.910156 L 692.90625 614.867188 Z M 752.546875 614.867188 " fill-opacity="1" fill-rule="nonzero"/><path fill="#5ce1e6" d="M 830.976562 691.988281 L 812.183594 691.988281 L 780.777344 644.421875 L 780.777344 691.988281 L 761.984375 691.988281 L 761.984375 614.867188 L 780.777344 614.867188 L 812.183594 662.679688 L 812.183594 614.867188 L 830.976562 614.867188 Z M 830.976562 691.988281 " fill-opacity="1" fill-rule="nonzero"/><path fill="#5ce1e6" d="M 881.023438 692.769531 C 873.78125 692.769531 867.121094 691.085938 861.0625 687.703125 C 855.023438 684.332031 850.214844 679.621094 846.648438 673.585938 C 843.109375 667.546875 841.34375 660.769531 841.34375 653.234375 C 841.34375 645.675781 843.109375 638.894531 846.648438 632.882812 C 850.214844 626.882812 855.023438 622.207031 861.0625 618.859375 C 867.121094 615.488281 873.78125 613.796875 881.023438 613.796875 C 888.253906 613.796875 894.898438 615.488281 900.9375 618.859375 C 906.972656 622.207031 911.722656 626.882812 915.203125 632.882812 C 918.707031 638.894531 920.460938 645.675781 920.460938 653.234375 C 920.460938 660.769531 918.683594 667.546875 915.152344 673.585938 C 911.648438 679.621094 906.886719 684.332031 900.886719 687.703125 C 894.875 691.085938 888.253906 692.769531 881.023438 692.769531 Z M 881.023438 675.628906 C 887.15625 675.628906 892.074219 673.585938 895.777344 669.496094 C 899.476562 665.382812 901.324219 659.953125 901.324219 653.234375 C 901.324219 646.417969 899.476562 640.988281 895.777344 636.921875 C 892.074219 632.832031 887.15625 630.789062 881.023438 630.789062 C 874.792969 630.789062 869.824219 632.820312 866.125 636.875 C 862.425781 640.902344 860.574219 646.355469 860.574219 653.234375 C 860.574219 660.023438 862.425781 665.453125 866.125 669.542969 C 869.824219 673.609375 874.792969 675.628906 881.023438 675.628906 Z M 881.023438 675.628906 " fill-opacity="1" fill-rule="nonzero"/><path fill="#5ce1e6" d="M 1036.949219 614.867188 L 1016.84375 691.988281 L 994.105469 691.988281 L 981.835938 641.257812 L 969.078125 691.988281 L 946.34375 691.988281 L 926.769531 614.867188 L 946.878906 614.867188 L 957.980469 671.003906 L 971.707031 614.867188 L 992.351562 614.867188 L 1005.546875 671.003906 L 1016.746094 614.867188 Z M 1036.949219 614.867188 " fill-opacity="1" fill-rule="nonzero"/></svg>