<svg xmlns="http://www.w3.org/2000/svg" xmlns:xlink="http://www.w3.org/1999/xlink" width="1400" zoomAndPan="magnify" viewBox="0 0 1050 809.999993" height="1080" preserveAspectRatio="xMidYMid meet" version="1.0"><defs><clipPath id="45684b280a"><path d="M 245.972656 20.726562 L 803.988281 20.726562 L 803.988281 536.542969 L 245.972656 536.542969 Z M 245.972656 20.726562 " clip-rule="nonzero"/></clipPath><clipPath id="4c2a37c36f"><path d="M 305.71875 20.726562 L 744.253906 20.726562 C 760.101562 20.726562 775.300781 27.023438 786.503906 38.226562 C 797.707031 49.441406 804.003906 64.628906 804.003906 80.476562 L 804.003906 476.796875 C 804.003906 492.644531 797.707031 507.84375 786.503906 519.046875 C 775.300781 530.25 760.101562 536.542969 744.253906 536.542969 L 305.71875 536.542969 C 289.871094 536.542969 274.671875 530.25 263.46875 519.046875 C 252.265625 507.84375 245.972656 492.644531 245.972656 476.796875 L 245.972656 80.476562 C 245.972656 64.628906 252.265625 49.441406 263.46875 38.226562 C 274.671875 27.023438 289.871094 20.726562 305.71875 20.726562 Z M 305.71875 20.726562 " clip-rule="nonzero"/></clipPath><linearGradient x1="0.00380331" gradientTransform="matrix(2.014917, 0, 0, 2.014917, 245.963442, 20.72798)" y1="128" x2="276.947684" gradientUnits="userSpaceOnUse" y2="128" id="581a853eef"><stop stop-opacity="1" stop-color="rgb(36.099243%, 88.198853%, 90.19928%)" offset="0"/><stop stop-opacity="1" stop-color="rgb(36.099243%, 88.00354%, 90.19928%)" offset="0.0078125"/><stop stop-opacity="1" stop-color="rgb(35.908508%, 87.80365%, 90.008545%)" offset="0.015625"/><stop stop-opacity="1" stop-color="rgb(35.508728%, 87.637329%, 89.797974%)" offset="0.0195313"/><stop stop-opacity="1" stop-color="rgb(35.299683%, 87.477112%, 89.778137%)" offset="0.0234375"/><stop stop-opacity="1" stop-color="rgb(35.293579%, 87.281799%, 89.588928%)" offset="0.03125"/><stop stop-opacity="1" stop-color="rgb(35.092163%, 86.891174%, 89.398193%)" offset="0.0390625"/><stop stop-opacity="1" stop-color="rgb(34.701538%, 86.500549%, 89.201355%)" offset="0.046875"/><stop stop-opacity="1" stop-color="rgb(34.310913%, 86.302185%, 89.002991%)" offset="0.0546875"/><stop stop-opacity="1" stop-color="rgb(34.106445%, 86.11145%, 88.812256%)" offset="0.0625"/><stop stop-opacity="1" stop-color="rgb(33.891296%, 85.704041%, 88.60321%)" offset="0.0664062"/><stop stop-opacity="1" stop-color="rgb(33.683777%, 85.484314%, 88.583374%)" offset="0.0703125"/><stop stop-opacity="1" stop-color="rgb(33.488464%, 85.289001%, 88.391113%)" offset="0.078125"/><stop stop-opacity="1" stop-color="rgb(33.097839%, 84.898376%, 88.198853%)" offset="0.0859375"/><stop stop-opacity="1" stop-color="rgb(32.901001%, 84.700012%, 88.005066%)" offset="0.09375"/><stop stop-opacity="1" stop-color="rgb(32.710266%, 84.509277%, 87.805176%)" offset="0.101562"/><stop stop-opacity="1" stop-color="rgb(32.359314%, 84.100342%, 87.649536%)" offset="0.105469"/><stop stop-opacity="1" stop-color="rgb(32.199097%, 83.880615%, 87.5%)" offset="0.109375"/><stop stop-opacity="1" stop-color="rgb(32.194519%, 83.685303%, 87.493896%)" offset="0.117188"/><stop stop-opacity="1" stop-color="rgb(31.994629%, 83.294678%, 87.294006%)" offset="0.125"/><stop stop-opacity="1" stop-color="rgb(31.604004%, 83.099365%, 87.098694%)" offset="0.132812"/><stop stop-opacity="1" stop-color="rgb(31.213379%, 82.90863%, 86.907959%)" offset="0.140625"/><stop stop-opacity="1" stop-color="rgb(30.996704%, 82.546997%, 86.697388%)" offset="0.148438"/><stop stop-opacity="1" stop-color="rgb(30.781555%, 82.182312%, 86.488342%)" offset="0.15625"/><stop stop-opacity="1" stop-color="rgb(30.392456%, 81.791687%, 86.297607%)" offset="0.164062"/><stop stop-opacity="1" stop-color="rgb(30.198669%, 81.401062%, 86.100769%)" offset="0.171875"/><stop stop-opacity="1" stop-color="rgb(30.006409%, 81.202698%, 85.902405%)" offset="0.179688"/><stop stop-opacity="1" stop-color="rgb(29.620361%, 81.011963%, 85.71167%)" offset="0.1875"/><stop stop-opacity="1" stop-color="rgb(29.211426%, 80.603027%, 85.50415%)" offset="0.191406"/><stop stop-opacity="1" stop-color="rgb(28.999329%, 80.383301%, 85.484314%)" offset="0.195312"/><stop stop-opacity="1" stop-color="rgb(28.996277%, 80.187988%, 85.292053%)" offset="0.203125"/><stop stop-opacity="1" stop-color="rgb(28.797913%, 79.797363%, 85.099792%)" offset="0.210938"/><stop stop-opacity="1" stop-color="rgb(28.407288%, 79.600525%, 84.906006%)" offset="0.21875"/><stop stop-opacity="1" stop-color="rgb(28.205872%, 79.40979%, 84.70459%)" offset="0.226562"/><stop stop-opacity="1" stop-color="rgb(27.992249%, 79.000854%, 84.498596%)" offset="0.230469"/><stop stop-opacity="1" stop-color="rgb(27.784729%, 78.781128%, 84.298706%)" offset="0.234375"/><stop stop-opacity="1" stop-color="rgb(27.636719%, 78.585815%, 84.298706%)" offset="0.242188"/><stop stop-opacity="1" stop-color="rgb(27.294922%, 78.19519%, 84.298706%)" offset="0.25"/><stop stop-opacity="1" stop-color="rgb(27.099609%, 77.999878%, 84.103394%)" offset="0.257812"/><stop stop-opacity="1" stop-color="rgb(26.908875%, 77.809143%, 83.903503%)" offset="0.265625"/><stop stop-opacity="1" stop-color="rgb(26.507568%, 77.44751%, 83.699036%)" offset="0.269531"/><stop stop-opacity="1" stop-color="rgb(26.298523%, 77.278137%, 83.499146%)" offset="0.273438"/><stop stop-opacity="1" stop-color="rgb(26.292419%, 77.082825%, 83.493042%)" offset="0.28125"/><stop stop-opacity="1" stop-color="rgb(26.091003%, 76.6922%, 83.293152%)" offset="0.289063"/><stop stop-opacity="1" stop-color="rgb(25.700378%, 76.301575%, 83.099365%)" offset="0.296875"/><stop stop-opacity="1" stop-color="rgb(25.309753%, 76.101685%, 82.907104%)" offset="0.304688"/><stop stop-opacity="1" stop-color="rgb(25.106812%, 75.91095%, 82.707214%)" offset="0.3125"/><stop stop-opacity="1" stop-color="rgb(24.891663%, 75.50354%, 82.548523%)" offset="0.316406"/><stop stop-opacity="1" stop-color="rgb(24.684143%, 75.283813%, 82.398987%)" offset="0.320313"/><stop stop-opacity="1" stop-color="rgb(24.488831%, 75.088501%, 82.395935%)" offset="0.328125"/><stop stop-opacity="1" stop-color="rgb(24.098206%, 74.697876%, 82.197571%)" offset="0.335938"/><stop stop-opacity="1" stop-color="rgb(23.901367%, 74.501038%, 82.000732%)" offset="0.34375"/><stop stop-opacity="1" stop-color="rgb(23.710632%, 74.310303%, 81.809998%)" offset="0.351563"/><stop stop-opacity="1" stop-color="rgb(23.309326%, 73.899841%, 81.600952%)" offset="0.355469"/><stop stop-opacity="1" stop-color="rgb(23.098755%, 73.680115%, 81.581116%)" offset="0.359375"/><stop stop-opacity="1" stop-color="rgb(23.094177%, 73.484802%, 81.390381%)" offset="0.367188"/><stop stop-opacity="1" stop-color="rgb(22.894287%, 73.094177%, 81.199646%)" offset="0.375"/><stop stop-opacity="1" stop-color="rgb(22.55249%, 72.898865%, 81.004333%)" offset="0.382813"/><stop stop-opacity="1" stop-color="rgb(22.212219%, 72.70813%, 80.804443%)" offset="0.390625"/><stop stop-opacity="1" stop-color="rgb(21.99707%, 72.346497%, 80.59845%)" offset="0.394531"/><stop stop-opacity="1" stop-color="rgb(21.977234%, 72.177124%, 80.39856%)" offset="0.398438"/><stop stop-opacity="1" stop-color="rgb(21.781921%, 71.981812%, 80.392456%)" offset="0.40625"/><stop stop-opacity="1" stop-color="rgb(21.392822%, 71.592712%, 80.192566%)" offset="0.421875"/><stop stop-opacity="1" stop-color="rgb(21.006775%, 71.206665%, 79.806519%)" offset="0.429688"/><stop stop-opacity="1" stop-color="rgb(20.619202%, 70.819092%, 79.606628%)" offset="0.4375"/><stop stop-opacity="1" stop-color="rgb(20.211792%, 70.404053%, 79.399109%)" offset="0.441406"/><stop stop-opacity="1" stop-color="rgb(19.999695%, 70.184326%, 79.199219%)" offset="0.445313"/><stop stop-opacity="1" stop-color="rgb(19.996643%, 69.989014%, 79.196167%)" offset="0.453125"/><stop stop-opacity="1" stop-color="rgb(19.798279%, 69.598389%, 78.997803%)" offset="0.460938"/><stop stop-opacity="1" stop-color="rgb(19.407654%, 69.400024%, 78.800964%)" offset="0.46875"/><stop stop-opacity="1" stop-color="rgb(19.204712%, 69.20929%, 78.610229%)" offset="0.476563"/><stop stop-opacity="1" stop-color="rgb(18.989563%, 68.800354%, 78.401184%)" offset="0.480469"/><stop stop-opacity="1" stop-color="rgb(18.780518%, 68.580627%, 78.381348%)" offset="0.484375"/><stop stop-opacity="1" stop-color="rgb(18.585205%, 68.385315%, 78.190613%)" offset="0.492188"/><stop stop-opacity="1" stop-color="rgb(18.19458%, 67.99469%, 77.999878%)" offset="0.5"/><stop stop-opacity="1" stop-color="rgb(17.999268%, 67.799377%, 77.804565%)" offset="0.507813"/><stop stop-opacity="1" stop-color="rgb(17.808533%, 67.655945%, 77.603149%)" offset="0.515625"/><stop stop-opacity="1" stop-color="rgb(17.457581%, 67.295837%, 77.449036%)" offset="0.519531"/><stop stop-opacity="1" stop-color="rgb(17.298889%, 67.077637%, 77.2995%)" offset="0.523438"/><stop stop-opacity="1" stop-color="rgb(17.292786%, 66.882324%, 77.293396%)" offset="0.53125"/><stop stop-opacity="1" stop-color="rgb(17.09137%, 66.493225%, 77.093506%)" offset="0.539063"/><stop stop-opacity="1" stop-color="rgb(16.700745%, 66.299438%, 76.899719%)" offset="0.546875"/><stop stop-opacity="1" stop-color="rgb(16.31012%, 66.107178%, 76.707458%)" offset="0.554688"/><stop stop-opacity="1" stop-color="rgb(16.107178%, 65.719604%, 76.507568%)" offset="0.5625"/><stop stop-opacity="1" stop-color="rgb(15.890503%, 65.30304%, 76.298523%)" offset="0.566406"/><stop stop-opacity="1" stop-color="rgb(15.682983%, 65.083313%, 76.098633%)" offset="0.570313"/><stop stop-opacity="1" stop-color="rgb(15.487671%, 64.888%, 76.095581%)" offset="0.578125"/><stop stop-opacity="1" stop-color="rgb(15.097046%, 64.497375%, 75.897217%)" offset="0.585938"/><stop stop-opacity="1" stop-color="rgb(14.900208%, 64.300537%, 75.700378%)" offset="0.59375"/><stop stop-opacity="1" stop-color="rgb(14.709473%, 64.109802%, 75.509644%)" offset="0.601562"/><stop stop-opacity="1" stop-color="rgb(14.309692%, 63.700867%, 75.300598%)" offset="0.605469"/><stop stop-opacity="1" stop-color="rgb(14.099121%, 63.48114%, 75.280762%)" offset="0.609375"/><stop stop-opacity="1" stop-color="rgb(14.094543%, 63.285828%, 75.090027%)" offset="0.617188"/><stop stop-opacity="1" stop-color="rgb(13.894653%, 62.895203%, 74.899292%)" offset="0.625"/><stop stop-opacity="1" stop-color="rgb(13.504028%, 62.69989%, 74.703979%)" offset="0.632812"/><stop stop-opacity="1" stop-color="rgb(13.113403%, 62.556458%, 74.504089%)" offset="0.640625"/><stop stop-opacity="1" stop-color="rgb(12.896729%, 62.194824%, 74.299622%)" offset="0.644531"/><stop stop-opacity="1" stop-color="rgb(12.876892%, 61.978149%, 74.099731%)" offset="0.648438"/><stop stop-opacity="1" stop-color="rgb(12.683105%, 61.782837%, 74.093628%)" offset="0.65625"/><stop stop-opacity="1" stop-color="rgb(12.34436%, 61.393738%, 73.893738%)" offset="0.671875"/><stop stop-opacity="1" stop-color="rgb(12.007141%, 61.00769%, 73.50769%)" offset="0.679687"/><stop stop-opacity="1" stop-color="rgb(11.619568%, 60.620117%, 73.306274%)" offset="0.6875"/><stop stop-opacity="1" stop-color="rgb(11.210632%, 60.203552%, 73.098755%)" offset="0.691406"/><stop stop-opacity="1" stop-color="rgb(10.998535%, 59.983826%, 72.898865%)" offset="0.695312"/><stop stop-opacity="1" stop-color="rgb(10.995483%, 59.791565%, 72.895813%)" offset="0.703125"/><stop stop-opacity="1" stop-color="rgb(10.797119%, 59.599304%, 72.697449%)" offset="0.710937"/><stop stop-opacity="1" stop-color="rgb(10.406494%, 59.405518%, 72.50061%)" offset="0.71875"/><stop stop-opacity="1" stop-color="rgb(10.205078%, 59.016418%, 72.357178%)" offset="0.726562"/><stop stop-opacity="1" stop-color="rgb(9.989929%, 58.599854%, 72.206116%)" offset="0.730469"/><stop stop-opacity="1" stop-color="rgb(9.780884%, 58.380127%, 72.198486%)" offset="0.734375"/><stop stop-opacity="1" stop-color="rgb(9.585571%, 58.184814%, 72.193909%)" offset="0.742187"/><stop stop-opacity="1" stop-color="rgb(9.194946%, 57.794189%, 71.994019%)" offset="0.75"/><stop stop-opacity="1" stop-color="rgb(8.808899%, 57.455444%, 71.607971%)" offset="0.765625"/><stop stop-opacity="1" stop-color="rgb(8.396912%, 57.095337%, 71.3974%)" offset="0.769531"/><stop stop-opacity="1" stop-color="rgb(8.177185%, 56.877136%, 71.377563%)" offset="0.773438"/><stop stop-opacity="1" stop-color="rgb(7.987976%, 56.681824%, 71.188354%)" offset="0.78125"/><stop stop-opacity="1" stop-color="rgb(7.797241%, 56.292725%, 70.99762%)" offset="0.789063"/><stop stop-opacity="1" stop-color="rgb(7.650757%, 56.098938%, 70.800781%)" offset="0.796875"/><stop stop-opacity="1" stop-color="rgb(7.30896%, 55.906677%, 70.602417%)" offset="0.804688"/><stop stop-opacity="1" stop-color="rgb(7.107544%, 55.519104%, 70.411682%)" offset="0.8125"/><stop stop-opacity="1" stop-color="rgb(6.890869%, 55.104065%, 70.204163%)" offset="0.816406"/><stop stop-opacity="1" stop-color="rgb(6.68335%, 54.884338%, 70.184326%)" offset="0.820313"/><stop stop-opacity="1" stop-color="rgb(6.488037%, 54.692078%, 69.992065%)" offset="0.828125"/><stop stop-opacity="1" stop-color="rgb(6.097412%, 54.499817%, 69.799805%)" offset="0.835938"/><stop stop-opacity="1" stop-color="rgb(5.900574%, 54.30603%, 69.606018%)" offset="0.84375"/><stop stop-opacity="1" stop-color="rgb(5.709839%, 53.916931%, 69.404602%)" offset="0.851562"/><stop stop-opacity="1" stop-color="rgb(5.310059%, 53.500366%, 69.198608%)" offset="0.855469"/><stop stop-opacity="1" stop-color="rgb(5.099487%, 53.28064%, 68.998718%)" offset="0.859375"/><stop stop-opacity="1" stop-color="rgb(5.09491%, 53.085327%, 68.994141%)" offset="0.867188"/><stop stop-opacity="1" stop-color="rgb(4.89502%, 52.694702%, 68.79425%)" offset="0.875"/><stop stop-opacity="1" stop-color="rgb(4.504395%, 52.49939%, 68.598938%)" offset="0.882812"/><stop stop-opacity="1" stop-color="rgb(4.11377%, 52.355957%, 68.408203%)" offset="0.890625"/><stop stop-opacity="1" stop-color="rgb(3.897095%, 51.99585%, 68.197632%)" offset="0.894531"/><stop stop-opacity="1" stop-color="rgb(3.877258%, 51.777649%, 68.177795%)" offset="0.898438"/><stop stop-opacity="1" stop-color="rgb(3.681946%, 51.582336%, 67.988586%)" offset="0.90625"/><stop stop-opacity="1" stop-color="rgb(3.292847%, 51.193237%, 67.651367%)" offset="0.921875"/><stop stop-opacity="1" stop-color="rgb(2.906799%, 50.80719%, 67.500305%)" offset="0.929687"/><stop stop-opacity="1" stop-color="rgb(2.566528%, 50.419617%, 67.311096%)" offset="0.9375"/><stop stop-opacity="1" stop-color="rgb(2.207947%, 50.003052%, 67.103577%)" offset="0.941406"/><stop stop-opacity="1" stop-color="rgb(1.998901%, 49.783325%, 67.08374%)" offset="0.945312"/><stop stop-opacity="1" stop-color="rgb(1.99585%, 49.591064%, 66.891479%)" offset="0.953125"/><stop stop-opacity="1" stop-color="rgb(1.797485%, 49.398804%, 66.699219%)" offset="0.960937"/><stop stop-opacity="1" stop-color="rgb(1.40686%, 49.205017%, 66.505432%)" offset="0.96875"/><stop stop-opacity="1" stop-color="rgb(1.205444%, 48.815918%, 66.305542%)" offset="0.976562"/><stop stop-opacity="1" stop-color="rgb(0.990295%, 48.400879%, 66.099548%)" offset="0.980469"/><stop stop-opacity="1" stop-color="rgb(0.78125%, 48.181152%, 65.899658%)" offset="0.984375"/><stop stop-opacity="1" stop-color="rgb(0.585938%, 47.990417%, 65.895081%)" offset="0.992187"/><stop stop-opacity="1" stop-color="rgb(0.195312%, 47.799683%, 65.69519%)" offset="1"/></linearGradient><clipPath id="8be6e55948"><path d="M 298.527344 76.945312 L 751 76.945312 L 751 536.542969 L 298.527344 536.542969 Z M 298.527344 76.945312 " clip-rule="nonzero"/></clipPath></defs><g clip-path="url(#45684b280a)"><g clip-path="url(#4c2a37c36f)"><path fill="url(#581a853eef)" d="M 245.972656 20.726562 L 245.972656 536.542969 L 803.988281 536.542969 L 803.988281 20.726562 Z M 245.972656 20.726562 " fill-rule="nonzero"/></g></g><g clip-path="url(#8be6e55948)"><path fill="#ffffff" d="M 491.34375 164.855469 C 496.65625 170.480469 501.96875 176.09375 507.285156 181.71875 C 507.96875 182.4375 508.671875 183.214844 508.863281 184.183594 C 509.042969 185.070312 508.757812 185.980469 508.769531 186.890625 C 508.804688 188.949219 510.324219 190.625 511.75 192.097656 C 513.542969 193.9375 515.328125 195.769531 517.125 197.613281 C 518.261719 198.773438 519.433594 200.007812 519.886719 201.574219 C 520.511719 203.695312 519.695312 205.96875 519.960938 208.15625 C 520.140625 209.667969 520.832031 211.066406 521.480469 212.453125 C 525.273438 220.484375 528.132812 228.972656 529.976562 237.660156 C 530.410156 239.730469 530.753906 242.042969 529.640625 243.835938 C 528.648438 245.453125 526.746094 246.21875 525.238281 247.355469 C 523.730469 248.492188 522.519531 250.648438 523.585938 252.214844 C 524.066406 252.921875 524.867188 253.292969 525.644531 253.628906 C 533.890625 257.085938 542.878906 258.269531 551.75 259.421875 C 553.316406 259.625 554.910156 259.828125 556.476562 259.648438 C 559.242188 259.335938 561.839844 257.769531 563.417969 255.484375 C 569.917969 246.050781 579.167969 238.820312 590.382812 236.535156 C 604.445312 233.652344 619.289062 238.820312 633.269531 235.566406 C 639.167969 228.300781 647.246094 221.992188 656.03125 218.796875 C 662.183594 216.570312 669.066406 215.542969 675.230469 217.695312 C 676.738281 218.222656 678.210938 218.929688 679.800781 219.015625 C 681.679688 219.109375 683.488281 218.296875 685.199219 217.503906 C 687.152344 216.609375 689.101562 215.710938 691.054688 214.800781 C 688.539062 202.710938 685.90625 189.558594 686.324219 177.207031 C 686.433594 174.070312 686.71875 170.945312 686.578125 167.8125 C 686.503906 166.089844 686.300781 164.363281 686.0625 162.652344 C 685.007812 155.375 683.164062 148.21875 680.582031 141.335938 C 677.707031 133.75 673.949219 126.53125 670.191406 119.324219 C 669.316406 117.664062 666.398438 117.363281 664.519531 117.472656 C 662.640625 117.578125 660.808594 118.117188 658.941406 118.273438 C 651.578125 118.917969 644.867188 113.878906 637.503906 113.257812 C 634.226562 112.984375 630.945312 113.59375 627.703125 114.167969 C 626.996094 114.300781 626.242188 114.417969 625.558594 114.15625 C 624.816406 113.855469 624.328125 113.136719 623.921875 112.445312 C 623.082031 111.042969 622.363281 109.582031 621.765625 108.074219 C 621.371094 107.09375 621.058594 105.910156 621.683594 105.070312 C 621.992188 104.652344 622.484375 104.414062 622.796875 104.007812 C 623.597656 102.929688 622.867188 101.386719 623.082031 100.054688 C 623.214844 99.265625 623.691406 98.570312 624.136719 97.890625 C 626.734375 93.953125 628.804688 89.667969 630.277344 85.179688 C 630.898438 83.300781 631.4375 81.3125 632.742188 79.816406 C 634.765625 77.496094 638.128906 76.898438 641.203125 76.945312 C 647.558594 77.0625 653.84375 79.457031 658.675781 83.585938 C 659.980469 84.699219 661.167969 85.921875 662.460938 87.046875 C 663.574219 88.015625 664.746094 88.902344 665.917969 89.789062 C 668.707031 91.894531 671.496094 94 674.285156 96.105469 C 676.402344 97.699219 678.523438 99.300781 680.640625 100.90625 C 683.332031 102.929688 686.027344 104.964844 688.96875 106.613281 C 694.1875 109.523438 695.242188 115.878906 698.257812 121.039062 C 700.101562 124.183594 702.363281 126.351562 704.492188 129.308594 C 708.445312 134.800781 712.394531 140.296875 716.34375 145.789062 C 718.964844 149.4375 721.585938 153.089844 724.0625 156.835938 C 737.394531 176.957031 746.539062 199.851562 750.730469 223.632812 C 751.242188 226.519531 749.796875 229.332031 748.167969 231.761719 C 746.515625 234.203125 744.289062 236.1875 742.136719 238.199219 C 731.160156 248.410156 721.488281 259.933594 710.5625 270.191406 C 699.648438 280.460938 687.164062 289.59375 672.753906 293.710938 C 659.863281 297.386719 645.429688 297.097656 634.34375 304.636719 C 619.816406 314.535156 624.804688 338.199219 618.269531 354.511719 C 615.375 361.71875 611.363281 368.480469 609.078125 375.886719 C 604.589844 390.40625 601.503906 405.476562 595.160156 419.285156 C 592.824219 424.363281 590.132812 429.328125 588.636719 434.714844 C 585.703125 445.292969 587.558594 456.59375 590.226562 467.234375 C 592.898438 477.886719 596.367188 488.488281 596.644531 499.453125 C 596.953125 512.222656 603.667969 524.203125 607.175781 536.484375 L 440.644531 536.484375 C 443.527344 527.617188 446.675781 519.644531 450.492188 511.136719 C 451.617188 508.632812 452.792969 506.132812 453.339844 503.4375 C 453.855469 500.914062 453.808594 498.316406 453.976562 495.742188 C 454.851562 482.265625 461.648438 469.316406 460.246094 455.886719 C 459.734375 450.933594 460.546875 446.023438 458.90625 441.320312 C 457.265625 436.617188 454.777344 432.261719 452.300781 427.941406 C 446.101562 417.144531 439.804688 406.324219 431.832031 396.773438 C 429.714844 399.585938 427.25 402.421875 425.132812 405.234375 C 423 408.070312 420.859375 410.910156 418.609375 413.636719 C 409.5 424.648438 398.273438 434.019531 385.40625 440.242188 C 378 443.835938 370.074219 446.371094 363.050781 450.667969 C 359.710938 452.703125 356.585938 455.144531 352.984375 456.664062 C 348.902344 458.375 344.414062 458.84375 339.996094 458.976562 C 333.054688 459.191406 325.742188 458.519531 319.960938 454.679688 C 317.675781 453.171875 316.695312 450.429688 315.472656 447.988281 C 313.859375 444.792969 312.253906 441.609375 310.648438 438.414062 C 309.152344 435.433594 307.644531 432.453125 306.402344 429.351562 C 302.726562 420.207031 301.339844 410.320312 300.394531 400.507812 C 299.628906 392.546875 299.125 384.566406 298.898438 376.570312 C 298.597656 366.433594 302.894531 356.175781 303.695312 346.074219 C 304.355469 337.933594 303.085938 329.53125 305.550781 321.753906 C 307.503906 315.578125 309.882812 308.996094 313.175781 303.417969 C 320.070312 291.699219 326.953125 279.996094 333.84375 268.277344 C 334.335938 267.4375 334.851562 266.589844 335.59375 265.96875 C 337.160156 264.652344 339.484375 264.652344 341.421875 265.285156 C 343.359375 265.929688 345.058594 267.128906 346.867188 268.074219 C 351.378906 270.445312 356.597656 271.304688 360.941406 273.960938 C 361.636719 274.382812 362.332031 274.871094 362.714844 275.589844 C 363.132812 276.355469 363.15625 277.265625 363.382812 278.101562 C 363.875 279.898438 365.289062 281.261719 366.375 282.769531 C 367.464844 284.28125 368.28125 286.3125 367.40625 287.953125 C 367.046875 288.625 366.449219 289.136719 365.863281 289.605469 C 363.144531 291.761719 360.082031 293.566406 358.011719 296.34375 C 356.898438 297.804688 356.121094 299.492188 355.066406 301 C 349.574219 308.828125 337.640625 310.515625 333.105469 318.941406 C 331.378906 322.136719 331.007812 325.882812 330.960938 329.507812 C 330.828125 336.929688 331.871094 344.363281 334.023438 351.460938 C 335.640625 356.820312 339.160156 360.925781 342.082031 365.714844 C 343.480469 368.011719 344.917969 370.285156 346.582031 372.40625 C 347.859375 374.042969 349.273438 375.589844 350.398438 377.324219 C 351.8125 379.515625 352.757812 381.96875 353.664062 384.421875 C 355.378906 381.128906 356.300781 377.371094 357.449219 373.851562 C 359.148438 368.609375 362.59375 364.074219 366.652344 360.339844 C 370.699219 356.617188 375.351562 353.613281 380.007812 350.671875 C 379.792969 343.367188 383.289062 336.535156 386.554688 330.011719 C 388.601562 325.941406 390.828125 321.945312 393.535156 318.28125 C 405.300781 302.328125 426.304688 293.757812 445.859375 296.917969 C 447.464844 297.179688 449.355469 296.378906 450.503906 295.242188 C 454.898438 290.886719 459.300781 286.542969 463.707031 282.195312 C 465.144531 280.773438 466.601562 279.335938 467.632812 277.601562 C 469.824219 273.902344 469.847656 269.222656 468.625 265.105469 C 467.40625 260.988281 465.082031 257.289062 462.738281 253.6875 C 461.191406 251.304688 459.589844 248.898438 457.328125 247.164062 C 455.84375 246.039062 454.144531 245.238281 452.539062 244.28125 C 446.316406 240.582031 441.550781 234.429688 434.730469 232.011719 C 425.464844 228.71875 418.332031 219.625 414.921875 210.40625 C 413.570312 206.734375 413.019531 202.761719 413.355469 198.847656 C 413.582031 196.140625 414.214844 193.472656 414.863281 190.828125 C 415.757812 187.105469 416.65625 183.371094 417.554688 179.648438 C 417.890625 178.222656 418.238281 176.789062 418.882812 175.472656 C 420.199219 172.765625 422.617188 170.792969 424.976562 168.925781 C 430.171875 164.808594 435.425781 160.738281 441.21875 157.542969 C 447.011719 154.347656 453.414062 152.046875 460.019531 151.738281 C 463.25 151.582031 466.496094 151.917969 469.703125 152.359375 C 473.796875 152.933594 477.914062 153.734375 481.648438 155.484375 C 485.394531 157.230469 488.503906 161.851562 491.34375 164.855469 Z M 491.34375 164.855469 " fill-opacity="1" fill-rule="nonzero"/></g><path fill="#5ce1e6" d="M 54.113281 611.300781 C 62.121094 611.300781 69.113281 612.90625 75.082031 616.089844 C 81.042969 619.25 85.664062 623.703125 88.917969 629.445312 C 92.199219 635.167969 93.851562 641.75 93.851562 649.21875 C 93.851562 656.664062 92.199219 663.246094 88.917969 668.992188 C 85.664062 674.734375 81.019531 679.210938 74.988281 682.394531 C 68.980469 685.554688 62.027344 687.136719 54.113281 687.136719 L 25.726562 687.136719 L 25.726562 611.300781 Z M 52.917969 671.144531 C 59.90625 671.144531 65.339844 669.253906 69.242188 665.449219 C 73.132812 661.617188 75.082031 656.207031 75.082031 649.21875 C 75.082031 642.230469 73.132812 636.808594 69.242188 632.941406 C 65.339844 629.050781 59.90625 627.101562 52.917969 627.101562 L 44.203125 627.101562 L 44.203125 671.144531 Z M 52.917969 671.144531 " fill-opacity="1" fill-rule="nonzero"/><path fill="#5ce1e6" d="M 140.078125 687.902344 C 132.957031 687.902344 126.410156 686.25 120.449219 682.921875 C 114.511719 679.605469 109.785156 674.976562 106.277344 669.039062 C 102.792969 663.101562 101.058594 656.4375 101.058594 649.027344 C 101.058594 641.59375 102.792969 634.929688 106.277344 629.015625 C 109.785156 623.113281 114.511719 618.519531 120.449219 615.226562 C 126.410156 611.910156 132.957031 610.25 140.078125 610.25 C 147.1875 610.25 153.722656 611.910156 159.65625 615.226562 C 165.59375 618.519531 170.261719 623.113281 173.683594 629.015625 C 177.132812 634.929688 178.855469 641.59375 178.855469 649.027344 C 178.855469 656.4375 177.109375 663.101562 173.636719 669.039062 C 170.191406 674.976562 165.511719 679.605469 159.609375 682.921875 C 153.695312 686.25 147.1875 687.902344 140.078125 687.902344 Z M 140.078125 671.050781 C 146.109375 671.050781 150.945312 669.039062 154.582031 665.015625 C 158.222656 660.972656 160.039062 655.632812 160.039062 649.027344 C 160.039062 642.324219 158.222656 636.988281 154.582031 632.988281 C 150.945312 628.96875 146.109375 626.957031 140.078125 626.957031 C 133.949219 626.957031 129.066406 628.957031 125.425781 632.941406 C 121.789062 636.902344 119.96875 642.265625 119.96875 649.027344 C 119.96875 655.707031 121.789062 661.042969 125.425781 665.066406 C 129.066406 669.0625 133.949219 671.050781 140.078125 671.050781 Z M 140.078125 671.050781 " fill-opacity="1" fill-rule="nonzero"/><path fill="#5ce1e6" d="M 293.40625 611.300781 L 273.632812 687.136719 L 251.273438 687.136719 L 239.210938 637.25 L 226.667969 687.136719 L 204.308594 687.136719 L 185.0625 611.300781 L 204.835938 611.300781 L 215.75 666.5 L 229.253906 611.300781 L 249.550781 611.300781 L 262.523438 666.5 L 273.535156 611.300781 Z M 293.40625 611.300781 " fill-opacity="1" fill-rule="nonzero"/><path fill="#5ce1e6" d="M 338.527344 687.902344 C 331.40625 687.902344 324.855469 686.25 318.898438 682.921875 C 312.960938 679.605469 308.234375 674.976562 304.726562 669.039062 C 301.242188 663.101562 299.507812 656.4375 299.507812 649.027344 C 299.507812 641.59375 301.242188 634.929688 304.726562 629.015625 C 308.234375 623.113281 312.960938 618.519531 318.898438 615.226562 C 324.855469 611.910156 331.40625 610.25 338.527344 610.25 C 345.636719 610.25 352.171875 611.910156 358.105469 615.226562 C 364.042969 618.519531 368.710938 623.113281 372.132812 629.015625 C 375.582031 634.929688 377.304688 641.59375 377.304688 649.027344 C 377.304688 656.4375 375.558594 663.101562 372.085938 669.039062 C 368.640625 674.976562 363.960938 679.605469 358.058594 682.921875 C 352.144531 686.25 345.636719 687.902344 338.527344 687.902344 Z M 338.527344 671.050781 C 344.558594 671.050781 349.394531 669.039062 353.03125 665.015625 C 356.671875 660.972656 358.488281 655.632812 358.488281 649.027344 C 358.488281 642.324219 356.671875 636.988281 353.03125 632.988281 C 349.394531 628.96875 344.558594 626.957031 338.527344 626.957031 C 332.398438 626.957031 327.515625 628.957031 323.875 632.941406 C 320.238281 636.902344 318.417969 642.265625 318.417969 649.027344 C 318.417969 655.707031 320.238281 661.042969 323.875 665.066406 C 327.515625 669.0625 332.398438 671.050781 338.527344 671.050781 Z M 338.527344 671.050781 " fill-opacity="1" fill-rule="nonzero"/><path fill="#5ce1e6" d="M 426.21875 687.136719 L 410.417969 658.507812 L 406.015625 658.507812 L 406.015625 687.136719 L 387.535156 687.136719 L 387.535156 611.300781 L 418.507812 611.300781 C 424.503906 611.300781 429.617188 612.355469 433.828125 614.460938 C 438.042969 616.542969 441.179688 619.390625 443.261719 623.03125 C 445.332031 626.667969 446.371094 630.726562 446.371094 635.191406 C 446.371094 640.242188 444.949219 644.742188 442.113281 648.691406 C 439.261719 652.652344 435.074219 655.464844 429.519531 657.117188 L 447.042969 687.136719 Z M 406.015625 645.4375 L 417.457031 645.4375 C 420.832031 645.4375 423.367188 644.609375 425.066406 642.945312 C 426.753906 641.296875 427.605469 638.960938 427.605469 635.957031 C 427.605469 633.0625 426.753906 630.785156 425.066406 629.160156 C 423.367188 627.507812 420.832031 626.667969 417.457031 626.667969 L 406.015625 626.667969 Z M 406.015625 645.4375 " fill-opacity="1" fill-rule="nonzero"/><path fill="#5ce1e6" d="M 501.878906 687.136719 L 476.410156 653.671875 L 476.410156 687.136719 L 457.929688 687.136719 L 457.929688 611.300781 L 476.410156 611.300781 L 476.410156 644.574219 L 501.6875 611.300781 L 523.375 611.300781 L 493.980469 648.453125 L 524.476562 687.136719 Z M 501.878906 687.136719 " fill-opacity="1" fill-rule="nonzero"/><path fill="#5ce1e6" d="M 569.042969 687.902344 C 561.921875 687.902344 555.375 686.25 549.414062 682.921875 C 543.476562 679.605469 538.75 674.976562 535.242188 669.039062 C 531.761719 663.101562 530.023438 656.4375 530.023438 649.027344 C 530.023438 641.59375 531.761719 634.929688 535.242188 629.015625 C 538.75 623.113281 543.476562 618.519531 549.414062 615.226562 C 555.375 611.910156 561.921875 610.25 569.042969 610.25 C 576.152344 610.25 582.6875 611.910156 588.625 615.226562 C 594.558594 618.519531 599.226562 623.113281 602.652344 629.015625 C 606.097656 634.929688 607.820312 641.59375 607.820312 649.027344 C 607.820312 656.4375 606.074219 663.101562 602.601562 669.039062 C 599.15625 674.976562 594.476562 679.605469 588.574219 682.921875 C 582.664062 686.25 576.152344 687.902344 569.042969 687.902344 Z M 569.042969 671.050781 C 575.074219 671.050781 579.910156 669.039062 583.546875 665.015625 C 587.1875 660.972656 589.007812 655.632812 589.007812 649.027344 C 589.007812 642.324219 587.1875 636.988281 583.546875 632.988281 C 579.910156 628.96875 575.074219 626.957031 569.042969 626.957031 C 562.914062 626.957031 558.03125 628.957031 554.394531 632.941406 C 550.753906 636.902344 548.933594 642.265625 548.933594 649.027344 C 548.933594 655.707031 550.753906 661.042969 554.394531 665.066406 C 558.03125 669.0625 562.914062 671.050781 569.042969 671.050781 Z M 569.042969 671.050781 " fill-opacity="1" fill-rule="nonzero"/><path fill="#5ce1e6" d="M 636.191406 611.300781 L 636.191406 656.6875 C 636.191406 661.222656 637.304688 664.71875 639.542969 667.171875 C 641.769531 669.601562 645.050781 670.808594 649.359375 670.808594 C 653.667969 670.808594 656.96875 669.601562 659.269531 667.171875 C 661.589844 664.71875 662.761719 661.222656 662.761719 656.6875 L 662.761719 611.300781 L 681.242188 611.300781 L 681.242188 656.589844 C 681.242188 663.367188 679.78125 669.085938 676.886719 673.777344 C 674.015625 678.445312 670.148438 681.964844 665.300781 684.359375 C 660.441406 686.730469 655.019531 687.902344 649.023438 687.902344 C 643.050781 687.902344 637.699219 686.742188 632.984375 684.40625 C 628.292969 682.050781 624.570312 678.519531 621.828125 673.828125 C 619.078125 669.109375 617.710938 663.367188 617.710938 656.589844 L 617.710938 611.300781 Z M 636.191406 611.300781 " fill-opacity="1" fill-rule="nonzero"/><path fill="#5ce1e6" d="M 748.695312 611.300781 L 748.695312 626.09375 L 728.636719 626.09375 L 728.636719 687.136719 L 710.15625 687.136719 L 710.15625 626.09375 L 690.050781 626.09375 L 690.050781 611.300781 Z M 748.695312 611.300781 " fill-opacity="1" fill-rule="nonzero"/><path fill="#5ce1e6" d="M 825.816406 687.136719 L 807.335938 687.136719 L 776.457031 640.363281 L 776.457031 687.136719 L 757.976562 687.136719 L 757.976562 611.300781 L 776.457031 611.300781 L 807.335938 658.316406 L 807.335938 611.300781 L 825.816406 611.300781 Z M 825.816406 687.136719 " fill-opacity="1" fill-rule="nonzero"/><path fill="#5ce1e6" d="M 875.027344 687.902344 C 867.90625 687.902344 861.359375 686.25 855.398438 682.921875 C 849.464844 679.605469 844.734375 674.976562 841.230469 669.039062 C 837.746094 663.101562 836.011719 656.4375 836.011719 649.027344 C 836.011719 641.59375 837.746094 634.929688 841.230469 629.015625 C 844.734375 623.113281 849.464844 618.519531 855.398438 615.226562 C 861.359375 611.910156 867.90625 610.25 875.027344 610.25 C 882.136719 610.25 888.671875 611.910156 894.609375 615.226562 C 900.546875 618.519531 905.214844 623.113281 908.636719 629.015625 C 912.085938 634.929688 913.808594 641.59375 913.808594 649.027344 C 913.808594 656.4375 912.058594 663.101562 908.589844 669.039062 C 905.140625 674.976562 900.460938 679.605469 894.5625 682.921875 C 888.648438 686.25 882.136719 687.902344 875.027344 687.902344 Z M 875.027344 671.050781 C 881.0625 671.050781 885.898438 669.039062 889.535156 665.015625 C 893.171875 660.972656 894.992188 655.632812 894.992188 649.027344 C 894.992188 642.324219 893.171875 636.988281 889.535156 632.988281 C 885.898438 628.96875 881.0625 626.957031 875.027344 626.957031 C 868.902344 626.957031 864.019531 628.957031 860.378906 632.941406 C 856.742188 636.902344 854.921875 642.265625 854.921875 649.027344 C 854.921875 655.707031 856.742188 661.042969 860.378906 665.066406 C 864.019531 669.0625 868.902344 671.050781 875.027344 671.050781 Z M 875.027344 671.050781 " fill-opacity="1" fill-rule="nonzero"/><path fill="#5ce1e6" d="M 1028.355469 611.300781 L 1008.582031 687.136719 L 986.222656 687.136719 L 974.160156 637.25 L 961.617188 687.136719 L 939.257812 687.136719 L 920.011719 611.300781 L 939.785156 611.300781 L 950.699219 666.5 L 964.203125 611.300781 L 984.5 611.300781 L 997.472656 666.5 L 1008.484375 611.300781 Z M 1028.355469 611.300781 " fill-opacity="1" fill-rule="nonzero"/></svg>