<svg xmlns="http://www.w3.org/2000/svg" xmlns:xlink="http://www.w3.org/1999/xlink" width="500" zoomAndPan="magnify" viewBox="0 0 375 374.999991" height="500" preserveAspectRatio="xMidYMid meet" version="1.0"><defs><g/><clipPath id="7888b01fa6"><path d="M 96.4375 62.089844 L 278.597656 62.089844 L 278.597656 230.4375 L 96.4375 230.4375 Z M 96.4375 62.089844 " clip-rule="nonzero"/></clipPath><clipPath id="1ea97a0bf5"><path d="M 115.9375 62.089844 L 259.0625 62.089844 C 264.234375 62.089844 269.195312 64.144531 272.851562 67.800781 C 276.507812 71.460938 278.5625 76.417969 278.5625 81.589844 L 278.5625 210.9375 C 278.5625 216.109375 276.507812 221.070312 272.851562 224.726562 C 269.195312 228.382812 264.234375 230.4375 259.0625 230.4375 L 115.9375 230.4375 C 110.765625 230.4375 105.804688 228.382812 102.148438 224.726562 C 98.492188 221.070312 96.4375 216.109375 96.4375 210.9375 L 96.4375 81.589844 C 96.4375 76.417969 98.492188 71.460938 102.148438 67.800781 C 105.804688 64.144531 110.765625 62.089844 115.9375 62.089844 Z M 115.9375 62.089844 " clip-rule="nonzero"/></clipPath><clipPath id="5bef83bd02"><path d="M 113.589844 80.4375 L 261.339844 80.4375 L 261.339844 230.4375 L 113.589844 230.4375 Z M 113.589844 80.4375 " clip-rule="nonzero"/></clipPath></defs><g clip-path="url(#7888b01fa6)"><g clip-path="url(#1ea97a0bf5)"><path fill="#5ce1e6" d="M 96.4375 62.089844 L 278.597656 62.089844 L 278.597656 230.4375 L 96.4375 230.4375 Z M 96.4375 62.089844 " fill-opacity="1" fill-rule="nonzero"/></g></g><g clip-path="url(#5bef83bd02)"><path fill="#ffffff" d="M 176.519531 109.128906 C 178.253906 110.964844 179.988281 112.796875 181.722656 114.632812 C 181.945312 114.867188 182.175781 115.121094 182.238281 115.4375 C 182.296875 115.726562 182.203125 116.023438 182.207031 116.320312 C 182.21875 116.992188 182.714844 117.539062 183.179688 118.019531 C 183.765625 118.621094 184.347656 119.21875 184.933594 119.820312 C 185.304688 120.199219 185.6875 120.601562 185.835938 121.113281 C 186.039062 121.804688 185.773438 122.546875 185.859375 123.261719 C 185.917969 123.753906 186.144531 124.210938 186.355469 124.664062 C 187.59375 127.285156 188.527344 130.054688 189.128906 132.890625 C 189.269531 133.566406 189.382812 134.320312 189.019531 134.90625 C 188.695312 135.433594 188.074219 135.683594 187.582031 136.054688 C 187.089844 136.425781 186.695312 137.128906 187.042969 137.640625 C 187.199219 137.871094 187.460938 137.992188 187.714844 138.101562 C 190.40625 139.230469 193.339844 139.617188 196.234375 139.992188 C 196.746094 140.058594 197.265625 140.125 197.777344 140.066406 C 198.679688 139.964844 199.527344 139.453125 200.042969 138.707031 C 202.164062 135.628906 205.183594 133.269531 208.84375 132.523438 C 213.433594 131.582031 218.277344 133.269531 222.839844 132.207031 C 224.765625 129.835938 227.402344 127.777344 230.269531 126.734375 C 232.277344 126.007812 234.523438 125.671875 236.535156 126.375 C 237.027344 126.546875 237.507812 126.777344 238.027344 126.804688 C 238.640625 126.835938 239.230469 126.570312 239.789062 126.3125 C 240.425781 126.019531 241.0625 125.726562 241.699219 125.429688 C 240.878906 121.484375 240.019531 117.191406 240.15625 113.160156 C 240.191406 112.136719 240.285156 111.117188 240.238281 110.09375 C 240.214844 109.53125 240.148438 108.96875 240.070312 108.410156 C 239.726562 106.035156 239.125 103.699219 238.28125 101.453125 C 237.34375 98.976562 236.117188 96.621094 234.890625 94.269531 C 234.605469 93.726562 233.652344 93.628906 233.039062 93.664062 C 232.425781 93.699219 231.828125 93.875 231.21875 93.925781 C 228.816406 94.136719 226.625 92.492188 224.222656 92.289062 C 223.152344 92.199219 222.082031 92.398438 221.023438 92.585938 C 220.792969 92.628906 220.546875 92.667969 220.324219 92.582031 C 220.082031 92.484375 219.921875 92.25 219.789062 92.023438 C 219.515625 91.566406 219.28125 91.089844 219.085938 90.597656 C 218.957031 90.277344 218.855469 89.890625 219.058594 89.617188 C 219.160156 89.480469 219.320312 89.402344 219.421875 89.269531 C 219.683594 88.917969 219.445312 88.414062 219.515625 87.980469 C 219.558594 87.722656 219.714844 87.496094 219.859375 87.273438 C 220.707031 85.988281 221.382812 84.589844 221.863281 83.125 C 222.066406 82.511719 222.242188 81.863281 222.667969 81.375 C 223.328125 80.617188 224.425781 80.421875 225.429688 80.4375 C 227.503906 80.476562 229.554688 81.257812 231.132812 82.605469 C 231.558594 82.96875 231.945312 83.367188 232.367188 83.734375 C 232.730469 84.050781 233.113281 84.339844 233.496094 84.628906 C 234.40625 85.316406 235.316406 86.003906 236.226562 86.691406 C 236.917969 87.210938 237.609375 87.734375 238.300781 88.257812 C 239.179688 88.917969 240.058594 89.582031 241.019531 90.121094 C 242.722656 91.070312 243.066406 93.144531 244.050781 94.828125 C 244.652344 95.855469 245.390625 96.5625 246.085938 97.527344 C 247.375 99.320312 248.664062 101.113281 249.953125 102.90625 C 250.808594 104.097656 251.664062 105.289062 252.472656 106.511719 C 256.824219 113.078125 259.808594 120.550781 261.175781 128.3125 C 261.34375 129.253906 260.871094 130.171875 260.339844 130.964844 C 259.800781 131.761719 259.074219 132.410156 258.371094 133.066406 C 254.789062 136.398438 251.632812 140.160156 248.066406 143.507812 C 244.503906 146.859375 240.429688 149.839844 235.726562 151.183594 C 231.519531 152.382812 226.808594 152.289062 223.191406 154.75 C 218.449219 157.980469 220.078125 165.703125 217.945312 171.027344 C 217 173.378906 215.691406 175.585938 214.945312 178.003906 C 213.480469 182.742188 212.472656 187.660156 210.402344 192.167969 C 209.640625 193.824219 208.761719 195.445312 208.273438 197.203125 C 207.316406 200.65625 207.921875 204.34375 208.792969 207.816406 C 209.664062 211.292969 210.796875 214.753906 210.886719 218.332031 C 210.988281 222.5 213.179688 226.410156 214.324219 230.417969 L 159.972656 230.417969 C 160.914062 227.523438 161.941406 224.921875 163.1875 222.144531 C 163.554688 221.328125 163.9375 220.511719 164.117188 219.632812 C 164.285156 218.808594 164.269531 217.960938 164.324219 217.121094 C 164.609375 212.722656 166.828125 208.496094 166.371094 204.113281 C 166.203125 202.496094 166.46875 200.894531 165.933594 199.359375 C 165.398438 197.824219 164.585938 196.402344 163.777344 194.992188 C 161.753906 191.46875 159.699219 187.9375 157.097656 184.820312 C 156.40625 185.738281 155.601562 186.664062 154.910156 187.582031 C 154.214844 188.507812 153.515625 189.433594 152.78125 190.324219 C 149.808594 193.917969 146.144531 196.976562 141.945312 199.007812 C 139.527344 200.179688 136.941406 201.007812 134.648438 202.410156 C 133.558594 203.074219 132.539062 203.871094 131.363281 204.367188 C 130.03125 204.925781 128.566406 205.078125 127.125 205.121094 C 124.859375 205.191406 122.472656 204.972656 120.585938 203.71875 C 119.839844 203.226562 119.519531 202.332031 119.121094 201.535156 C 118.59375 200.492188 118.070312 199.453125 117.546875 198.410156 C 117.058594 197.4375 116.566406 196.464844 116.160156 195.453125 C 114.960938 192.46875 114.507812 189.242188 114.199219 186.039062 C 113.949219 183.441406 113.785156 180.835938 113.710938 178.226562 C 113.613281 174.917969 115.015625 171.570312 115.277344 168.273438 C 115.492188 165.617188 115.078125 162.875 115.882812 160.335938 C 116.519531 158.320312 117.296875 156.171875 118.371094 154.351562 C 120.621094 150.527344 122.867188 146.707031 125.117188 142.882812 C 125.277344 142.609375 125.445312 142.332031 125.6875 142.128906 C 126.199219 141.699219 126.957031 141.699219 127.589844 141.90625 C 128.222656 142.117188 128.777344 142.507812 129.367188 142.816406 C 130.839844 143.589844 132.542969 143.871094 133.960938 144.738281 C 134.1875 144.875 134.414062 145.035156 134.539062 145.269531 C 134.675781 145.519531 134.683594 145.816406 134.757812 146.089844 C 134.917969 146.675781 135.378906 147.121094 135.734375 147.613281 C 136.089844 148.105469 136.355469 148.769531 136.070312 149.304688 C 135.953125 149.523438 135.757812 149.691406 135.566406 149.84375 C 134.679688 150.546875 133.679688 151.136719 133.003906 152.042969 C 132.640625 152.519531 132.386719 153.070312 132.042969 153.5625 C 130.25 156.117188 126.355469 156.667969 124.875 159.417969 C 124.3125 160.460938 124.191406 161.683594 124.175781 162.867188 C 124.132812 165.289062 124.472656 167.714844 125.175781 170.03125 C 125.703125 171.78125 126.851562 173.121094 127.804688 174.683594 C 128.261719 175.433594 128.730469 176.175781 129.273438 176.867188 C 129.691406 177.402344 130.152344 177.90625 130.519531 178.472656 C 130.980469 179.1875 131.289062 179.988281 131.585938 180.789062 C 132.144531 179.714844 132.445312 178.488281 132.820312 177.339844 C 133.375 175.628906 134.5 174.148438 135.824219 172.929688 C 137.144531 171.714844 138.664062 170.734375 140.183594 169.773438 C 140.113281 167.390625 141.253906 165.160156 142.320312 163.03125 C 142.988281 161.703125 143.714844 160.398438 144.597656 159.203125 C 148.4375 153.996094 155.292969 151.199219 161.675781 152.230469 C 162.199219 152.316406 162.816406 152.054688 163.191406 151.683594 C 164.625 150.261719 166.0625 148.84375 167.5 147.425781 C 167.96875 146.960938 168.445312 146.492188 168.78125 145.925781 C 169.496094 144.71875 169.503906 143.191406 169.105469 141.847656 C 168.707031 140.503906 167.949219 139.296875 167.183594 138.121094 C 166.679688 137.34375 166.15625 136.558594 165.417969 135.992188 C 164.933594 135.625 164.378906 135.363281 163.855469 135.050781 C 161.824219 133.84375 160.269531 131.835938 158.042969 131.046875 C 155.019531 129.972656 152.691406 127.003906 151.578125 123.996094 C 151.136719 122.796875 150.957031 121.5 151.066406 120.222656 C 151.140625 119.339844 151.347656 118.46875 151.558594 117.605469 C 151.851562 116.390625 152.144531 115.171875 152.4375 113.957031 C 152.546875 113.492188 152.660156 113.023438 152.871094 112.59375 C 153.300781 111.710938 154.089844 111.066406 154.859375 110.457031 C 156.554688 109.113281 158.269531 107.785156 160.160156 106.742188 C 162.050781 105.699219 164.140625 104.949219 166.296875 104.847656 C 167.351562 104.796875 168.410156 104.90625 169.457031 105.050781 C 170.792969 105.238281 172.136719 105.5 173.355469 106.070312 C 174.578125 106.640625 175.59375 108.148438 176.519531 109.128906 Z M 176.519531 109.128906 " fill-opacity="1" fill-rule="nonzero"/></g><g fill="#5ce1e6" fill-opacity="1"><g transform="translate(22.367931, 279.585685)"><g><path d="M 11.453125 -24.75 C 14.066406 -24.75 16.347656 -24.226562 18.296875 -23.1875 C 20.242188 -22.15625 21.75 -20.703125 22.8125 -18.828125 C 23.882812 -16.960938 24.421875 -14.8125 24.421875 -12.375 C 24.421875 -9.945312 23.882812 -7.796875 22.8125 -5.921875 C 21.75 -4.046875 20.234375 -2.585938 18.265625 -1.546875 C 16.304688 -0.515625 14.035156 0 11.453125 0 L 2.1875 0 L 2.1875 -24.75 Z M 11.0625 -5.21875 C 13.34375 -5.21875 15.117188 -5.835938 16.390625 -7.078125 C 17.660156 -8.328125 18.296875 -10.09375 18.296875 -12.375 C 18.296875 -14.65625 17.660156 -16.425781 16.390625 -17.6875 C 15.117188 -18.957031 13.34375 -19.59375 11.0625 -19.59375 L 8.21875 -19.59375 L 8.21875 -5.21875 Z M 11.0625 -5.21875 "/></g></g></g><g fill="#5ce1e6" fill-opacity="1"><g transform="translate(47.986192, 279.585685)"><g><path d="M 13.890625 0.25 C 11.566406 0.25 9.429688 -0.289062 7.484375 -1.375 C 5.546875 -2.457031 4.003906 -3.96875 2.859375 -5.90625 C 1.722656 -7.84375 1.15625 -10.019531 1.15625 -12.4375 C 1.15625 -14.863281 1.722656 -17.039062 2.859375 -18.96875 C 4.003906 -20.894531 5.546875 -22.394531 7.484375 -23.46875 C 9.429688 -24.550781 11.566406 -25.09375 13.890625 -25.09375 C 16.210938 -25.09375 18.34375 -24.550781 20.28125 -23.46875 C 22.21875 -22.394531 23.742188 -20.894531 24.859375 -18.96875 C 25.984375 -17.039062 26.546875 -14.863281 26.546875 -12.4375 C 26.546875 -10.019531 25.976562 -7.84375 24.84375 -5.90625 C 23.71875 -3.96875 22.191406 -2.457031 20.265625 -1.375 C 18.335938 -0.289062 16.210938 0.25 13.890625 0.25 Z M 13.890625 -5.25 C 15.859375 -5.25 17.4375 -5.90625 18.625 -7.21875 C 19.8125 -8.539062 20.40625 -10.28125 20.40625 -12.4375 C 20.40625 -14.625 19.8125 -16.367188 18.625 -17.671875 C 17.4375 -18.984375 15.859375 -19.640625 13.890625 -19.640625 C 11.890625 -19.640625 10.296875 -18.988281 9.109375 -17.6875 C 7.921875 -16.394531 7.328125 -14.644531 7.328125 -12.4375 C 7.328125 -10.257812 7.921875 -8.515625 9.109375 -7.203125 C 10.296875 -5.898438 11.890625 -5.25 13.890625 -5.25 Z M 13.890625 -5.25 "/></g></g></g><g fill="#5ce1e6" fill-opacity="1"><g transform="translate(75.683513, 279.585685)"><g><path d="M 36.234375 -24.75 L 29.78125 0 L 22.484375 0 L 18.546875 -16.28125 L 14.453125 0 L 7.15625 0 L 0.875 -24.75 L 7.328125 -24.75 L 10.890625 -6.734375 L 15.296875 -24.75 L 21.921875 -24.75 L 26.15625 -6.734375 L 29.75 -24.75 Z M 36.234375 -24.75 "/></g></g></g><g fill="#5ce1e6" fill-opacity="1"><g transform="translate(112.754232, 279.585685)"><g><path d="M 13.890625 0.25 C 11.566406 0.25 9.429688 -0.289062 7.484375 -1.375 C 5.546875 -2.457031 4.003906 -3.96875 2.859375 -5.90625 C 1.722656 -7.84375 1.15625 -10.019531 1.15625 -12.4375 C 1.15625 -14.863281 1.722656 -17.039062 2.859375 -18.96875 C 4.003906 -20.894531 5.546875 -22.394531 7.484375 -23.46875 C 9.429688 -24.550781 11.566406 -25.09375 13.890625 -25.09375 C 16.210938 -25.09375 18.34375 -24.550781 20.28125 -23.46875 C 22.21875 -22.394531 23.742188 -20.894531 24.859375 -18.96875 C 25.984375 -17.039062 26.546875 -14.863281 26.546875 -12.4375 C 26.546875 -10.019531 25.976562 -7.84375 24.84375 -5.90625 C 23.71875 -3.96875 22.191406 -2.457031 20.265625 -1.375 C 18.335938 -0.289062 16.210938 0.25 13.890625 0.25 Z M 13.890625 -5.25 C 15.859375 -5.25 17.4375 -5.90625 18.625 -7.21875 C 19.8125 -8.539062 20.40625 -10.28125 20.40625 -12.4375 C 20.40625 -14.625 19.8125 -16.367188 18.625 -17.671875 C 17.4375 -18.984375 15.859375 -19.640625 13.890625 -19.640625 C 11.890625 -19.640625 10.296875 -18.988281 9.109375 -17.6875 C 7.921875 -16.394531 7.328125 -14.644531 7.328125 -12.4375 C 7.328125 -10.257812 7.921875 -8.515625 9.109375 -7.203125 C 10.296875 -5.898438 11.890625 -5.25 13.890625 -5.25 Z M 13.890625 -5.25 "/></g></g></g><g fill="#5ce1e6" fill-opacity="1"><g transform="translate(140.451553, 279.585685)"><g><path d="M 14.8125 0 L 9.65625 -9.34375 L 8.21875 -9.34375 L 8.21875 0 L 2.1875 0 L 2.1875 -24.75 L 12.296875 -24.75 C 14.253906 -24.75 15.921875 -24.40625 17.296875 -23.71875 C 18.671875 -23.039062 19.695312 -22.109375 20.375 -20.921875 C 21.050781 -19.734375 21.390625 -18.410156 21.390625 -16.953125 C 21.390625 -15.304688 20.925781 -13.835938 20 -12.546875 C 19.070312 -11.253906 17.703125 -10.335938 15.890625 -9.796875 L 21.609375 0 Z M 8.21875 -13.609375 L 11.953125 -13.609375 C 13.054688 -13.609375 13.882812 -13.878906 14.4375 -14.421875 C 14.988281 -14.960938 15.265625 -15.722656 15.265625 -16.703125 C 15.265625 -17.648438 14.988281 -18.390625 14.4375 -18.921875 C 13.882812 -19.460938 13.054688 -19.734375 11.953125 -19.734375 L 8.21875 -19.734375 Z M 8.21875 -13.609375 "/></g></g></g><g fill="#5ce1e6" fill-opacity="1"><g transform="translate(163.426939, 279.585685)"><g><path d="M 16.53125 0 L 8.21875 -10.921875 L 8.21875 0 L 2.1875 0 L 2.1875 -24.75 L 8.21875 -24.75 L 8.21875 -13.890625 L 16.46875 -24.75 L 23.546875 -24.75 L 13.953125 -12.625 L 23.90625 0 Z M 16.53125 0 "/></g></g></g><g fill="#5ce1e6" fill-opacity="1"><g transform="translate(187.988053, 279.585685)"><g><path d="M 13.890625 0.25 C 11.566406 0.25 9.429688 -0.289062 7.484375 -1.375 C 5.546875 -2.457031 4.003906 -3.96875 2.859375 -5.90625 C 1.722656 -7.84375 1.15625 -10.019531 1.15625 -12.4375 C 1.15625 -14.863281 1.722656 -17.039062 2.859375 -18.96875 C 4.003906 -20.894531 5.546875 -22.394531 7.484375 -23.46875 C 9.429688 -24.550781 11.566406 -25.09375 13.890625 -25.09375 C 16.210938 -25.09375 18.34375 -24.550781 20.28125 -23.46875 C 22.21875 -22.394531 23.742188 -20.894531 24.859375 -18.96875 C 25.984375 -17.039062 26.546875 -14.863281 26.546875 -12.4375 C 26.546875 -10.019531 25.976562 -7.84375 24.84375 -5.90625 C 23.71875 -3.96875 22.191406 -2.457031 20.265625 -1.375 C 18.335938 -0.289062 16.210938 0.25 13.890625 0.25 Z M 13.890625 -5.25 C 15.859375 -5.25 17.4375 -5.90625 18.625 -7.21875 C 19.8125 -8.539062 20.40625 -10.28125 20.40625 -12.4375 C 20.40625 -14.625 19.8125 -16.367188 18.625 -17.671875 C 17.4375 -18.984375 15.859375 -19.640625 13.890625 -19.640625 C 11.890625 -19.640625 10.296875 -18.988281 9.109375 -17.6875 C 7.921875 -16.394531 7.328125 -14.644531 7.328125 -12.4375 C 7.328125 -10.257812 7.921875 -8.515625 9.109375 -7.203125 C 10.296875 -5.898438 11.890625 -5.25 13.890625 -5.25 Z M 13.890625 -5.25 "/></g></g></g><g fill="#5ce1e6" fill-opacity="1"><g transform="translate(215.685363, 279.585685)"><g><path d="M 8.109375 -24.75 L 8.109375 -9.9375 C 8.109375 -8.457031 8.472656 -7.316406 9.203125 -6.515625 C 9.929688 -5.722656 11 -5.328125 12.40625 -5.328125 C 13.8125 -5.328125 14.890625 -5.722656 15.640625 -6.515625 C 16.398438 -7.316406 16.78125 -8.457031 16.78125 -9.9375 L 16.78125 -24.75 L 22.8125 -24.75 L 22.8125 -9.96875 C 22.8125 -7.757812 22.335938 -5.890625 21.390625 -4.359375 C 20.453125 -2.835938 19.191406 -1.6875 17.609375 -0.90625 C 16.023438 -0.132812 14.253906 0.25 12.296875 0.25 C 10.347656 0.25 8.601562 -0.128906 7.0625 -0.890625 C 5.53125 -1.660156 4.316406 -2.8125 3.421875 -4.34375 C 2.523438 -5.882812 2.078125 -7.757812 2.078125 -9.96875 L 2.078125 -24.75 Z M 8.109375 -24.75 "/></g></g></g><g fill="#5ce1e6" fill-opacity="1"><g transform="translate(240.528379, 279.585685)"><g><path d="M 19.984375 -24.75 L 19.984375 -19.921875 L 13.4375 -19.921875 L 13.4375 0 L 7.40625 0 L 7.40625 -19.921875 L 0.84375 -19.921875 L 0.84375 -24.75 Z M 19.984375 -24.75 "/></g></g></g><g fill="#5ce1e6" fill-opacity="1"><g transform="translate(261.354244, 279.585685)"><g><path d="M 24.328125 0 L 18.296875 0 L 8.21875 -15.265625 L 8.21875 0 L 2.1875 0 L 2.1875 -24.75 L 8.21875 -24.75 L 18.296875 -9.40625 L 18.296875 -24.75 L 24.328125 -24.75 Z M 24.328125 0 "/></g></g></g><g fill="#5ce1e6" fill-opacity="1"><g transform="translate(287.853448, 279.585685)"><g><path d="M 13.890625 0.25 C 11.566406 0.25 9.429688 -0.289062 7.484375 -1.375 C 5.546875 -2.457031 4.003906 -3.96875 2.859375 -5.90625 C 1.722656 -7.84375 1.15625 -10.019531 1.15625 -12.4375 C 1.15625 -14.863281 1.722656 -17.039062 2.859375 -18.96875 C 4.003906 -20.894531 5.546875 -22.394531 7.484375 -23.46875 C 9.429688 -24.550781 11.566406 -25.09375 13.890625 -25.09375 C 16.210938 -25.09375 18.34375 -24.550781 20.28125 -23.46875 C 22.21875 -22.394531 23.742188 -20.894531 24.859375 -18.96875 C 25.984375 -17.039062 26.546875 -14.863281 26.546875 -12.4375 C 26.546875 -10.019531 25.976562 -7.84375 24.84375 -5.90625 C 23.71875 -3.96875 22.191406 -2.457031 20.265625 -1.375 C 18.335938 -0.289062 16.210938 0.25 13.890625 0.25 Z M 13.890625 -5.25 C 15.859375 -5.25 17.4375 -5.90625 18.625 -7.21875 C 19.8125 -8.539062 20.40625 -10.28125 20.40625 -12.4375 C 20.40625 -14.625 19.8125 -16.367188 18.625 -17.671875 C 17.4375 -18.984375 15.859375 -19.640625 13.890625 -19.640625 C 11.890625 -19.640625 10.296875 -18.988281 9.109375 -17.6875 C 7.921875 -16.394531 7.328125 -14.644531 7.328125 -12.4375 C 7.328125 -10.257812 7.921875 -8.515625 9.109375 -7.203125 C 10.296875 -5.898438 11.890625 -5.25 13.890625 -5.25 Z M 13.890625 -5.25 "/></g></g></g><g fill="#5ce1e6" fill-opacity="1"><g transform="translate(315.550758, 279.585685)"><g><path d="M 36.234375 -24.75 L 29.78125 0 L 22.484375 0 L 18.546875 -16.28125 L 14.453125 0 L 7.15625 0 L 0.875 -24.75 L 7.328125 -24.75 L 10.890625 -6.734375 L 15.296875 -24.75 L 21.921875 -24.75 L 26.15625 -6.734375 L 29.75 -24.75 Z M 36.234375 -24.75 "/></g></g></g></svg>