<svg xmlns="http://www.w3.org/2000/svg" xmlns:xlink="http://www.w3.org/1999/xlink" width="1366" zoomAndPan="magnify" viewBox="0 0 1024.5 651.000003" height="868" preserveAspectRatio="xMidYMid meet" version="1.0"><defs><g/><clipPath id="43669358a3"><path d="M 0.535156 0 L 1023.464844 0 L 1023.464844 650 L 0.535156 650 Z M 0.535156 0 " clip-rule="nonzero"/></clipPath><linearGradient x1="0" gradientTransform="matrix(0.74885, 0, 0, 0.74885, 0.536041, 0.0000199693)" y1="434" x2="1365.999943" gradientUnits="userSpaceOnUse" y2="434" id="b8c51d536f"><stop stop-opacity="1" stop-color="rgb(54.899597%, 32.199097%, 100%)" offset="0"/><stop stop-opacity="1" stop-color="rgb(54.826355%, 32.417297%, 99.960327%)" offset="0.00390625"/><stop stop-opacity="1" stop-color="rgb(54.753113%, 32.637024%, 99.92218%)" offset="0.0078125"/><stop stop-opacity="1" stop-color="rgb(54.678345%, 32.855225%, 99.884033%)" offset="0.0117188"/><stop stop-opacity="1" stop-color="rgb(54.605103%, 33.074951%, 99.845886%)" offset="0.015625"/><stop stop-opacity="1" stop-color="rgb(54.53186%, 33.293152%, 99.807739%)" offset="0.0195312"/><stop stop-opacity="1" stop-color="rgb(54.458618%, 33.511353%, 99.769592%)" offset="0.0234375"/><stop stop-opacity="1" stop-color="rgb(54.385376%, 33.729553%, 99.731445%)" offset="0.0273438"/><stop stop-opacity="1" stop-color="rgb(54.312134%, 33.94928%, 99.693298%)" offset="0.03125"/><stop stop-opacity="1" stop-color="rgb(54.237366%, 34.16748%, 99.655151%)" offset="0.0351562"/><stop stop-opacity="1" stop-color="rgb(54.164124%, 34.387207%, 99.617004%)" offset="0.0390625"/><stop stop-opacity="1" stop-color="rgb(54.090881%, 34.605408%, 99.577332%)" offset="0.0429688"/><stop stop-opacity="1" stop-color="rgb(54.017639%, 34.823608%, 99.539185%)" offset="0.046875"/><stop stop-opacity="1" stop-color="rgb(53.944397%, 35.041809%, 99.501038%)" offset="0.0507812"/><stop stop-opacity="1" stop-color="rgb(53.871155%, 35.261536%, 99.462891%)" offset="0.0546875"/><stop stop-opacity="1" stop-color="rgb(53.797913%, 35.479736%, 99.424744%)" offset="0.0585938"/><stop stop-opacity="1" stop-color="rgb(53.72467%, 35.699463%, 99.386597%)" offset="0.0625"/><stop stop-opacity="1" stop-color="rgb(53.649902%, 35.917664%, 99.34845%)" offset="0.0664062"/><stop stop-opacity="1" stop-color="rgb(53.57666%, 36.13739%, 99.310303%)" offset="0.0703125"/><stop stop-opacity="1" stop-color="rgb(53.503418%, 36.355591%, 99.272156%)" offset="0.0742188"/><stop stop-opacity="1" stop-color="rgb(53.430176%, 36.573792%, 99.234009%)" offset="0.078125"/><stop stop-opacity="1" stop-color="rgb(53.356934%, 36.791992%, 99.195862%)" offset="0.0820312"/><stop stop-opacity="1" stop-color="rgb(53.283691%, 37.011719%, 99.157715%)" offset="0.0859375"/><stop stop-opacity="1" stop-color="rgb(53.210449%, 37.229919%, 99.118042%)" offset="0.0898438"/><stop stop-opacity="1" stop-color="rgb(53.137207%, 37.449646%, 99.079895%)" offset="0.09375"/><stop stop-opacity="1" stop-color="rgb(53.062439%, 37.667847%, 99.041748%)" offset="0.0976562"/><stop stop-opacity="1" stop-color="rgb(52.989197%, 37.886047%, 99.003601%)" offset="0.101562"/><stop stop-opacity="1" stop-color="rgb(52.915955%, 38.104248%, 98.965454%)" offset="0.105469"/><stop stop-opacity="1" stop-color="rgb(52.842712%, 38.323975%, 98.927307%)" offset="0.109375"/><stop stop-opacity="1" stop-color="rgb(52.76947%, 38.542175%, 98.88916%)" offset="0.113281"/><stop stop-opacity="1" stop-color="rgb(52.696228%, 38.761902%, 98.851013%)" offset="0.117188"/><stop stop-opacity="1" stop-color="rgb(52.622986%, 38.980103%, 98.812866%)" offset="0.121094"/><stop stop-opacity="1" stop-color="rgb(52.549744%, 39.199829%, 98.774719%)" offset="0.125"/><stop stop-opacity="1" stop-color="rgb(52.474976%, 39.41803%, 98.736572%)" offset="0.128906"/><stop stop-opacity="1" stop-color="rgb(52.401733%, 39.63623%, 98.698425%)" offset="0.132812"/><stop stop-opacity="1" stop-color="rgb(52.328491%, 39.854431%, 98.658752%)" offset="0.136719"/><stop stop-opacity="1" stop-color="rgb(52.255249%, 40.074158%, 98.620605%)" offset="0.140625"/><stop stop-opacity="1" stop-color="rgb(52.182007%, 40.292358%, 98.582458%)" offset="0.144531"/><stop stop-opacity="1" stop-color="rgb(52.108765%, 40.512085%, 98.544312%)" offset="0.148438"/><stop stop-opacity="1" stop-color="rgb(52.035522%, 40.730286%, 98.506165%)" offset="0.152344"/><stop stop-opacity="1" stop-color="rgb(51.96228%, 40.948486%, 98.468018%)" offset="0.15625"/><stop stop-opacity="1" stop-color="rgb(51.887512%, 41.166687%, 98.429871%)" offset="0.160156"/><stop stop-opacity="1" stop-color="rgb(51.81427%, 41.386414%, 98.391724%)" offset="0.164062"/><stop stop-opacity="1" stop-color="rgb(51.741028%, 41.604614%, 98.353577%)" offset="0.167969"/><stop stop-opacity="1" stop-color="rgb(51.667786%, 41.824341%, 98.31543%)" offset="0.171875"/><stop stop-opacity="1" stop-color="rgb(51.594543%, 42.042542%, 98.275757%)" offset="0.175781"/><stop stop-opacity="1" stop-color="rgb(51.521301%, 42.262268%, 98.23761%)" offset="0.179688"/><stop stop-opacity="1" stop-color="rgb(51.448059%, 42.480469%, 98.199463%)" offset="0.183594"/><stop stop-opacity="1" stop-color="rgb(51.374817%, 42.698669%, 98.161316%)" offset="0.1875"/><stop stop-opacity="1" stop-color="rgb(51.300049%, 42.91687%, 98.123169%)" offset="0.191406"/><stop stop-opacity="1" stop-color="rgb(51.226807%, 43.136597%, 98.085022%)" offset="0.195312"/><stop stop-opacity="1" stop-color="rgb(51.153564%, 43.354797%, 98.046875%)" offset="0.199219"/><stop stop-opacity="1" stop-color="rgb(51.080322%, 43.574524%, 98.008728%)" offset="0.203125"/><stop stop-opacity="1" stop-color="rgb(51.00708%, 43.792725%, 97.970581%)" offset="0.207031"/><stop stop-opacity="1" stop-color="rgb(50.933838%, 44.012451%, 97.932434%)" offset="0.210938"/><stop stop-opacity="1" stop-color="rgb(50.860596%, 44.230652%, 97.894287%)" offset="0.214844"/><stop stop-opacity="1" stop-color="rgb(50.787354%, 44.448853%, 97.85614%)" offset="0.21875"/><stop stop-opacity="1" stop-color="rgb(50.712585%, 44.667053%, 97.816467%)" offset="0.222656"/><stop stop-opacity="1" stop-color="rgb(50.639343%, 44.88678%, 97.77832%)" offset="0.226562"/><stop stop-opacity="1" stop-color="rgb(50.566101%, 45.10498%, 97.740173%)" offset="0.230469"/><stop stop-opacity="1" stop-color="rgb(50.492859%, 45.324707%, 97.702026%)" offset="0.234375"/><stop stop-opacity="1" stop-color="rgb(50.419617%, 45.542908%, 97.663879%)" offset="0.238281"/><stop stop-opacity="1" stop-color="rgb(50.346375%, 45.761108%, 97.625732%)" offset="0.242188"/><stop stop-opacity="1" stop-color="rgb(50.273132%, 45.979309%, 97.587585%)" offset="0.246094"/><stop stop-opacity="1" stop-color="rgb(50.19989%, 46.199036%, 97.549438%)" offset="0.25"/><stop stop-opacity="1" stop-color="rgb(50.125122%, 46.417236%, 97.511292%)" offset="0.253906"/><stop stop-opacity="1" stop-color="rgb(50.05188%, 46.636963%, 97.473145%)" offset="0.257812"/><stop stop-opacity="1" stop-color="rgb(49.978638%, 46.855164%, 97.434998%)" offset="0.261719"/><stop stop-opacity="1" stop-color="rgb(49.905396%, 47.07489%, 97.396851%)" offset="0.265625"/><stop stop-opacity="1" stop-color="rgb(49.832153%, 47.293091%, 97.357178%)" offset="0.269531"/><stop stop-opacity="1" stop-color="rgb(49.758911%, 47.511292%, 97.319031%)" offset="0.273438"/><stop stop-opacity="1" stop-color="rgb(49.685669%, 47.729492%, 97.280884%)" offset="0.277344"/><stop stop-opacity="1" stop-color="rgb(49.612427%, 47.949219%, 97.242737%)" offset="0.28125"/><stop stop-opacity="1" stop-color="rgb(49.537659%, 48.167419%, 97.20459%)" offset="0.285156"/><stop stop-opacity="1" stop-color="rgb(49.464417%, 48.387146%, 97.166443%)" offset="0.289062"/><stop stop-opacity="1" stop-color="rgb(49.391174%, 48.605347%, 97.128296%)" offset="0.292969"/><stop stop-opacity="1" stop-color="rgb(49.317932%, 48.823547%, 97.090149%)" offset="0.296875"/><stop stop-opacity="1" stop-color="rgb(49.24469%, 49.041748%, 97.052002%)" offset="0.300781"/><stop stop-opacity="1" stop-color="rgb(49.171448%, 49.261475%, 97.013855%)" offset="0.304688"/><stop stop-opacity="1" stop-color="rgb(49.098206%, 49.479675%, 96.974182%)" offset="0.308594"/><stop stop-opacity="1" stop-color="rgb(49.024963%, 49.699402%, 96.936035%)" offset="0.3125"/><stop stop-opacity="1" stop-color="rgb(48.950195%, 49.917603%, 96.897888%)" offset="0.316406"/><stop stop-opacity="1" stop-color="rgb(48.876953%, 50.137329%, 96.859741%)" offset="0.320312"/><stop stop-opacity="1" stop-color="rgb(48.803711%, 50.35553%, 96.821594%)" offset="0.324219"/><stop stop-opacity="1" stop-color="rgb(48.730469%, 50.57373%, 96.783447%)" offset="0.328125"/><stop stop-opacity="1" stop-color="rgb(48.657227%, 50.791931%, 96.7453%)" offset="0.332031"/><stop stop-opacity="1" stop-color="rgb(48.583984%, 51.011658%, 96.707153%)" offset="0.335938"/><stop stop-opacity="1" stop-color="rgb(48.510742%, 51.229858%, 96.669006%)" offset="0.339844"/><stop stop-opacity="1" stop-color="rgb(48.4375%, 51.449585%, 96.630859%)" offset="0.34375"/><stop stop-opacity="1" stop-color="rgb(48.362732%, 51.667786%, 96.592712%)" offset="0.347656"/><stop stop-opacity="1" stop-color="rgb(48.28949%, 51.885986%, 96.554565%)" offset="0.351562"/><stop stop-opacity="1" stop-color="rgb(48.216248%, 52.104187%, 96.514893%)" offset="0.355469"/><stop stop-opacity="1" stop-color="rgb(48.143005%, 52.323914%, 96.476746%)" offset="0.359375"/><stop stop-opacity="1" stop-color="rgb(48.069763%, 52.542114%, 96.438599%)" offset="0.363281"/><stop stop-opacity="1" stop-color="rgb(47.996521%, 52.761841%, 96.400452%)" offset="0.367188"/><stop stop-opacity="1" stop-color="rgb(47.921753%, 52.980042%, 96.362305%)" offset="0.371094"/><stop stop-opacity="1" stop-color="rgb(47.848511%, 53.199768%, 96.324158%)" offset="0.375"/><stop stop-opacity="1" stop-color="rgb(47.775269%, 53.417969%, 96.286011%)" offset="0.378906"/><stop stop-opacity="1" stop-color="rgb(47.702026%, 53.636169%, 96.247864%)" offset="0.382812"/><stop stop-opacity="1" stop-color="rgb(47.628784%, 53.85437%, 96.209717%)" offset="0.386719"/><stop stop-opacity="1" stop-color="rgb(47.555542%, 54.074097%, 96.17157%)" offset="0.390625"/><stop stop-opacity="1" stop-color="rgb(47.4823%, 54.292297%, 96.133423%)" offset="0.394531"/><stop stop-opacity="1" stop-color="rgb(47.409058%, 54.512024%, 96.095276%)" offset="0.398438"/><stop stop-opacity="1" stop-color="rgb(47.33429%, 54.730225%, 96.055603%)" offset="0.402344"/><stop stop-opacity="1" stop-color="rgb(47.261047%, 54.949951%, 96.017456%)" offset="0.40625"/><stop stop-opacity="1" stop-color="rgb(47.187805%, 55.168152%, 95.979309%)" offset="0.410156"/><stop stop-opacity="1" stop-color="rgb(47.114563%, 55.386353%, 95.941162%)" offset="0.414062"/><stop stop-opacity="1" stop-color="rgb(47.041321%, 55.604553%, 95.903015%)" offset="0.417969"/><stop stop-opacity="1" stop-color="rgb(46.968079%, 55.82428%, 95.864868%)" offset="0.421875"/><stop stop-opacity="1" stop-color="rgb(46.894836%, 56.04248%, 95.826721%)" offset="0.425781"/><stop stop-opacity="1" stop-color="rgb(46.821594%, 56.262207%, 95.788574%)" offset="0.429688"/><stop stop-opacity="1" stop-color="rgb(46.746826%, 56.480408%, 95.750427%)" offset="0.433594"/><stop stop-opacity="1" stop-color="rgb(46.673584%, 56.698608%, 95.71228%)" offset="0.4375"/><stop stop-opacity="1" stop-color="rgb(46.600342%, 56.916809%, 95.672607%)" offset="0.441406"/><stop stop-opacity="1" stop-color="rgb(46.5271%, 57.136536%, 95.63446%)" offset="0.445312"/><stop stop-opacity="1" stop-color="rgb(46.453857%, 57.354736%, 95.596313%)" offset="0.449219"/><stop stop-opacity="1" stop-color="rgb(46.380615%, 57.574463%, 95.558167%)" offset="0.453125"/><stop stop-opacity="1" stop-color="rgb(46.307373%, 57.792664%, 95.52002%)" offset="0.457031"/><stop stop-opacity="1" stop-color="rgb(46.234131%, 58.01239%, 95.481873%)" offset="0.460938"/><stop stop-opacity="1" stop-color="rgb(46.159363%, 58.230591%, 95.443726%)" offset="0.464844"/><stop stop-opacity="1" stop-color="rgb(46.086121%, 58.448792%, 95.405579%)" offset="0.46875"/><stop stop-opacity="1" stop-color="rgb(46.012878%, 58.666992%, 95.367432%)" offset="0.472656"/><stop stop-opacity="1" stop-color="rgb(45.939636%, 58.886719%, 95.329285%)" offset="0.476562"/><stop stop-opacity="1" stop-color="rgb(45.866394%, 59.104919%, 95.291138%)" offset="0.480469"/><stop stop-opacity="1" stop-color="rgb(45.793152%, 59.324646%, 95.252991%)" offset="0.484375"/><stop stop-opacity="1" stop-color="rgb(45.71991%, 59.542847%, 95.213318%)" offset="0.488281"/><stop stop-opacity="1" stop-color="rgb(45.646667%, 59.761047%, 95.175171%)" offset="0.492188"/><stop stop-opacity="1" stop-color="rgb(45.571899%, 59.979248%, 95.137024%)" offset="0.496094"/><stop stop-opacity="1" stop-color="rgb(45.498657%, 60.198975%, 95.098877%)" offset="0.5"/><stop stop-opacity="1" stop-color="rgb(45.425415%, 60.417175%, 95.06073%)" offset="0.503906"/><stop stop-opacity="1" stop-color="rgb(45.352173%, 60.636902%, 95.022583%)" offset="0.507812"/><stop stop-opacity="1" stop-color="rgb(45.278931%, 60.855103%, 94.984436%)" offset="0.511719"/><stop stop-opacity="1" stop-color="rgb(45.205688%, 61.074829%, 94.946289%)" offset="0.515625"/><stop stop-opacity="1" stop-color="rgb(45.132446%, 61.29303%, 94.908142%)" offset="0.519531"/><stop stop-opacity="1" stop-color="rgb(45.059204%, 61.51123%, 94.869995%)" offset="0.523438"/><stop stop-opacity="1" stop-color="rgb(44.984436%, 61.729431%, 94.831848%)" offset="0.527344"/><stop stop-opacity="1" stop-color="rgb(44.911194%, 61.949158%, 94.793701%)" offset="0.53125"/><stop stop-opacity="1" stop-color="rgb(44.837952%, 62.167358%, 94.754028%)" offset="0.535156"/><stop stop-opacity="1" stop-color="rgb(44.764709%, 62.387085%, 94.715881%)" offset="0.539062"/><stop stop-opacity="1" stop-color="rgb(44.691467%, 62.605286%, 94.677734%)" offset="0.542969"/><stop stop-opacity="1" stop-color="rgb(44.618225%, 62.823486%, 94.639587%)" offset="0.546875"/><stop stop-opacity="1" stop-color="rgb(44.544983%, 63.041687%, 94.60144%)" offset="0.550781"/><stop stop-opacity="1" stop-color="rgb(44.471741%, 63.261414%, 94.563293%)" offset="0.554688"/><stop stop-opacity="1" stop-color="rgb(44.396973%, 63.479614%, 94.525146%)" offset="0.558594"/><stop stop-opacity="1" stop-color="rgb(44.32373%, 63.699341%, 94.487%)" offset="0.5625"/><stop stop-opacity="1" stop-color="rgb(44.250488%, 63.917542%, 94.448853%)" offset="0.566406"/><stop stop-opacity="1" stop-color="rgb(44.177246%, 64.137268%, 94.410706%)" offset="0.570312"/><stop stop-opacity="1" stop-color="rgb(44.104004%, 64.355469%, 94.371033%)" offset="0.574219"/><stop stop-opacity="1" stop-color="rgb(44.030762%, 64.573669%, 94.332886%)" offset="0.578125"/><stop stop-opacity="1" stop-color="rgb(43.95752%, 64.79187%, 94.294739%)" offset="0.582031"/><stop stop-opacity="1" stop-color="rgb(43.884277%, 65.011597%, 94.256592%)" offset="0.585938"/><stop stop-opacity="1" stop-color="rgb(43.809509%, 65.229797%, 94.218445%)" offset="0.589844"/><stop stop-opacity="1" stop-color="rgb(43.736267%, 65.449524%, 94.180298%)" offset="0.59375"/><stop stop-opacity="1" stop-color="rgb(43.663025%, 65.667725%, 94.142151%)" offset="0.597656"/><stop stop-opacity="1" stop-color="rgb(43.589783%, 65.887451%, 94.104004%)" offset="0.601562"/><stop stop-opacity="1" stop-color="rgb(43.516541%, 66.105652%, 94.065857%)" offset="0.605469"/><stop stop-opacity="1" stop-color="rgb(43.443298%, 66.323853%, 94.02771%)" offset="0.609375"/><stop stop-opacity="1" stop-color="rgb(43.370056%, 66.542053%, 93.989563%)" offset="0.613281"/><stop stop-opacity="1" stop-color="rgb(43.296814%, 66.76178%, 93.951416%)" offset="0.617188"/><stop stop-opacity="1" stop-color="rgb(43.222046%, 66.97998%, 93.911743%)" offset="0.621094"/><stop stop-opacity="1" stop-color="rgb(43.148804%, 67.199707%, 93.873596%)" offset="0.625"/><stop stop-opacity="1" stop-color="rgb(43.075562%, 67.417908%, 93.835449%)" offset="0.628906"/><stop stop-opacity="1" stop-color="rgb(43.002319%, 67.636108%, 93.797302%)" offset="0.632812"/><stop stop-opacity="1" stop-color="rgb(42.929077%, 67.854309%, 93.759155%)" offset="0.636719"/><stop stop-opacity="1" stop-color="rgb(42.855835%, 68.074036%, 93.721008%)" offset="0.640625"/><stop stop-opacity="1" stop-color="rgb(42.782593%, 68.292236%, 93.682861%)" offset="0.644531"/><stop stop-opacity="1" stop-color="rgb(42.709351%, 68.511963%, 93.644714%)" offset="0.648438"/><stop stop-opacity="1" stop-color="rgb(42.634583%, 68.730164%, 93.606567%)" offset="0.652344"/><stop stop-opacity="1" stop-color="rgb(42.56134%, 68.94989%, 93.56842%)" offset="0.65625"/><stop stop-opacity="1" stop-color="rgb(42.488098%, 69.168091%, 93.530273%)" offset="0.660156"/><stop stop-opacity="1" stop-color="rgb(42.414856%, 69.386292%, 93.492126%)" offset="0.664062"/><stop stop-opacity="1" stop-color="rgb(42.341614%, 69.604492%, 93.452454%)" offset="0.667969"/><stop stop-opacity="1" stop-color="rgb(42.268372%, 69.824219%, 93.414307%)" offset="0.671875"/><stop stop-opacity="1" stop-color="rgb(42.193604%, 70.042419%, 93.37616%)" offset="0.675781"/><stop stop-opacity="1" stop-color="rgb(42.120361%, 70.262146%, 93.338013%)" offset="0.679688"/><stop stop-opacity="1" stop-color="rgb(42.047119%, 70.480347%, 93.299866%)" offset="0.683594"/><stop stop-opacity="1" stop-color="rgb(41.973877%, 70.698547%, 93.261719%)" offset="0.6875"/><stop stop-opacity="1" stop-color="rgb(41.900635%, 70.916748%, 93.223572%)" offset="0.691406"/><stop stop-opacity="1" stop-color="rgb(41.827393%, 71.136475%, 93.185425%)" offset="0.695312"/><stop stop-opacity="1" stop-color="rgb(41.75415%, 71.354675%, 93.147278%)" offset="0.699219"/><stop stop-opacity="1" stop-color="rgb(41.680908%, 71.574402%, 93.109131%)" offset="0.703125"/><stop stop-opacity="1" stop-color="rgb(41.60614%, 71.792603%, 93.069458%)" offset="0.707031"/><stop stop-opacity="1" stop-color="rgb(41.532898%, 72.012329%, 93.031311%)" offset="0.710938"/><stop stop-opacity="1" stop-color="rgb(41.459656%, 72.23053%, 92.993164%)" offset="0.714844"/><stop stop-opacity="1" stop-color="rgb(41.386414%, 72.44873%, 92.955017%)" offset="0.71875"/><stop stop-opacity="1" stop-color="rgb(41.313171%, 72.666931%, 92.91687%)" offset="0.722656"/><stop stop-opacity="1" stop-color="rgb(41.239929%, 72.886658%, 92.878723%)" offset="0.726562"/><stop stop-opacity="1" stop-color="rgb(41.166687%, 73.104858%, 92.840576%)" offset="0.730469"/><stop stop-opacity="1" stop-color="rgb(41.093445%, 73.324585%, 92.802429%)" offset="0.734375"/><stop stop-opacity="1" stop-color="rgb(41.018677%, 73.542786%, 92.764282%)" offset="0.738281"/><stop stop-opacity="1" stop-color="rgb(40.945435%, 73.760986%, 92.726135%)" offset="0.742188"/><stop stop-opacity="1" stop-color="rgb(40.872192%, 73.979187%, 92.687988%)" offset="0.746094"/><stop stop-opacity="1" stop-color="rgb(40.79895%, 74.198914%, 92.649841%)" offset="0.75"/><stop stop-opacity="1" stop-color="rgb(40.725708%, 74.417114%, 92.610168%)" offset="0.753906"/><stop stop-opacity="1" stop-color="rgb(40.652466%, 74.636841%, 92.572021%)" offset="0.757812"/><stop stop-opacity="1" stop-color="rgb(40.579224%, 74.855042%, 92.533875%)" offset="0.761719"/><stop stop-opacity="1" stop-color="rgb(40.505981%, 75.074768%, 92.495728%)" offset="0.765625"/><stop stop-opacity="1" stop-color="rgb(40.431213%, 75.292969%, 92.457581%)" offset="0.769531"/><stop stop-opacity="1" stop-color="rgb(40.357971%, 75.511169%, 92.419434%)" offset="0.773438"/><stop stop-opacity="1" stop-color="rgb(40.284729%, 75.72937%, 92.381287%)" offset="0.777344"/><stop stop-opacity="1" stop-color="rgb(40.211487%, 75.949097%, 92.34314%)" offset="0.78125"/><stop stop-opacity="1" stop-color="rgb(40.138245%, 76.167297%, 92.304993%)" offset="0.785156"/><stop stop-opacity="1" stop-color="rgb(40.065002%, 76.387024%, 92.266846%)" offset="0.789062"/><stop stop-opacity="1" stop-color="rgb(39.99176%, 76.605225%, 92.228699%)" offset="0.792969"/><stop stop-opacity="1" stop-color="rgb(39.918518%, 76.824951%, 92.190552%)" offset="0.796875"/><stop stop-opacity="1" stop-color="rgb(39.84375%, 77.043152%, 92.150879%)" offset="0.800781"/><stop stop-opacity="1" stop-color="rgb(39.770508%, 77.261353%, 92.112732%)" offset="0.804688"/><stop stop-opacity="1" stop-color="rgb(39.697266%, 77.479553%, 92.074585%)" offset="0.808594"/><stop stop-opacity="1" stop-color="rgb(39.624023%, 77.69928%, 92.036438%)" offset="0.8125"/><stop stop-opacity="1" stop-color="rgb(39.550781%, 77.91748%, 91.998291%)" offset="0.816406"/><stop stop-opacity="1" stop-color="rgb(39.477539%, 78.137207%, 91.960144%)" offset="0.820312"/><stop stop-opacity="1" stop-color="rgb(39.404297%, 78.355408%, 91.921997%)" offset="0.824219"/><stop stop-opacity="1" stop-color="rgb(39.331055%, 78.573608%, 91.88385%)" offset="0.828125"/><stop stop-opacity="1" stop-color="rgb(39.256287%, 78.791809%, 91.845703%)" offset="0.832031"/><stop stop-opacity="1" stop-color="rgb(39.183044%, 79.011536%, 91.807556%)" offset="0.835938"/><stop stop-opacity="1" stop-color="rgb(39.109802%, 79.229736%, 91.767883%)" offset="0.839844"/><stop stop-opacity="1" stop-color="rgb(39.03656%, 79.449463%, 91.729736%)" offset="0.84375"/><stop stop-opacity="1" stop-color="rgb(38.963318%, 79.667664%, 91.691589%)" offset="0.847656"/><stop stop-opacity="1" stop-color="rgb(38.890076%, 79.88739%, 91.653442%)" offset="0.851562"/><stop stop-opacity="1" stop-color="rgb(38.816833%, 80.105591%, 91.615295%)" offset="0.855469"/><stop stop-opacity="1" stop-color="rgb(38.743591%, 80.323792%, 91.577148%)" offset="0.859375"/><stop stop-opacity="1" stop-color="rgb(38.668823%, 80.541992%, 91.539001%)" offset="0.863281"/><stop stop-opacity="1" stop-color="rgb(38.595581%, 80.761719%, 91.500854%)" offset="0.867188"/><stop stop-opacity="1" stop-color="rgb(38.522339%, 80.979919%, 91.462708%)" offset="0.871094"/><stop stop-opacity="1" stop-color="rgb(38.449097%, 81.199646%, 91.424561%)" offset="0.875"/><stop stop-opacity="1" stop-color="rgb(38.375854%, 81.417847%, 91.386414%)" offset="0.878906"/><stop stop-opacity="1" stop-color="rgb(38.302612%, 81.636047%, 91.348267%)" offset="0.882812"/><stop stop-opacity="1" stop-color="rgb(38.22937%, 81.854248%, 91.308594%)" offset="0.886719"/><stop stop-opacity="1" stop-color="rgb(38.156128%, 82.073975%, 91.270447%)" offset="0.890625"/><stop stop-opacity="1" stop-color="rgb(38.08136%, 82.292175%, 91.2323%)" offset="0.894531"/><stop stop-opacity="1" stop-color="rgb(38.008118%, 82.511902%, 91.194153%)" offset="0.898438"/><stop stop-opacity="1" stop-color="rgb(37.934875%, 82.730103%, 91.156006%)" offset="0.902344"/><stop stop-opacity="1" stop-color="rgb(37.861633%, 82.949829%, 91.117859%)" offset="0.90625"/><stop stop-opacity="1" stop-color="rgb(37.788391%, 83.16803%, 91.079712%)" offset="0.910156"/><stop stop-opacity="1" stop-color="rgb(37.715149%, 83.38623%, 91.041565%)" offset="0.914062"/><stop stop-opacity="1" stop-color="rgb(37.641907%, 83.604431%, 91.003418%)" offset="0.917969"/><stop stop-opacity="1" stop-color="rgb(37.568665%, 83.824158%, 90.965271%)" offset="0.921875"/><stop stop-opacity="1" stop-color="rgb(37.493896%, 84.042358%, 90.927124%)" offset="0.925781"/><stop stop-opacity="1" stop-color="rgb(37.420654%, 84.262085%, 90.888977%)" offset="0.929688"/><stop stop-opacity="1" stop-color="rgb(37.347412%, 84.480286%, 90.849304%)" offset="0.933594"/><stop stop-opacity="1" stop-color="rgb(37.27417%, 84.698486%, 90.811157%)" offset="0.9375"/><stop stop-opacity="1" stop-color="rgb(37.200928%, 84.916687%, 90.77301%)" offset="0.941406"/><stop stop-opacity="1" stop-color="rgb(37.127686%, 85.136414%, 90.734863%)" offset="0.945312"/><stop stop-opacity="1" stop-color="rgb(37.054443%, 85.354614%, 90.696716%)" offset="0.949219"/><stop stop-opacity="1" stop-color="rgb(36.981201%, 85.574341%, 90.658569%)" offset="0.953125"/><stop stop-opacity="1" stop-color="rgb(36.906433%, 85.792542%, 90.620422%)" offset="0.957031"/><stop stop-opacity="1" stop-color="rgb(36.833191%, 86.012268%, 90.582275%)" offset="0.960938"/><stop stop-opacity="1" stop-color="rgb(36.759949%, 86.230469%, 90.544128%)" offset="0.964844"/><stop stop-opacity="1" stop-color="rgb(36.686707%, 86.448669%, 90.505981%)" offset="0.96875"/><stop stop-opacity="1" stop-color="rgb(36.613464%, 86.66687%, 90.467834%)" offset="0.972656"/><stop stop-opacity="1" stop-color="rgb(36.540222%, 86.886597%, 90.429688%)" offset="0.976562"/><stop stop-opacity="1" stop-color="rgb(36.46698%, 87.104797%, 90.390015%)" offset="0.980469"/><stop stop-opacity="1" stop-color="rgb(36.393738%, 87.324524%, 90.351868%)" offset="0.984375"/><stop stop-opacity="1" stop-color="rgb(36.31897%, 87.542725%, 90.313721%)" offset="0.988281"/><stop stop-opacity="1" stop-color="rgb(36.245728%, 87.762451%, 90.275574%)" offset="0.992188"/><stop stop-opacity="1" stop-color="rgb(36.172485%, 87.980652%, 90.237427%)" offset="0.996094"/><stop stop-opacity="1" stop-color="rgb(36.099243%, 88.198853%, 90.19928%)" offset="1"/></linearGradient><clipPath id="afd3a1e79c"><path d="M 630 0 L 1023.464844 0 L 1023.464844 650 L 630 650 Z M 630 0 " clip-rule="nonzero"/></clipPath><clipPath id="b531247615"><path d="M 865.414062 -83.484375 L 1338.027344 59.175781 L 1103.015625 837.730469 L 630.402344 695.070312 Z M 865.414062 -83.484375 " clip-rule="nonzero"/></clipPath><clipPath id="00f912971c"><path d="M 326 152.019531 L 372.039062 152.019531 L 372.039062 220.164062 L 326 220.164062 Z M 326 152.019531 " clip-rule="nonzero"/></clipPath><clipPath id="ff2f737e1b"><path d="M 297 152.019531 L 343 152.019531 L 343 220.164062 L 297 220.164062 Z M 297 152.019531 " clip-rule="nonzero"/></clipPath><clipPath id="cddb309e0e"><path d="M 268 152.019531 L 314 152.019531 L 314 220.164062 L 268 220.164062 Z M 268 152.019531 " clip-rule="nonzero"/></clipPath><clipPath id="924a5220f4"><path d="M 340.007812 83.050781 L 351 83.050781 L 351 93 L 340.007812 93 Z M 340.007812 83.050781 " clip-rule="nonzero"/></clipPath><clipPath id="9ae279fb2a"><path d="M 387 83.050781 L 398 83.050781 L 398 93 L 387 93 Z M 387 83.050781 " clip-rule="nonzero"/></clipPath><clipPath id="deabf72baf"><path d="M 434 83.050781 L 445 83.050781 L 445 93 L 434 93 Z M 434 83.050781 " clip-rule="nonzero"/></clipPath><clipPath id="759aba2683"><path d="M 478 83.050781 L 490 83.050781 L 490 93 L 478 93 Z M 478 83.050781 " clip-rule="nonzero"/></clipPath><clipPath id="4a252eb73c"><path d="M 525 83.050781 L 537 83.050781 L 537 93 L 525 93 Z M 525 83.050781 " clip-rule="nonzero"/></clipPath><clipPath id="99480a8f61"><path d="M 572 83.050781 L 583.386719 83.050781 L 583.386719 93 L 572 93 Z M 572 83.050781 " clip-rule="nonzero"/></clipPath><clipPath id="d78ea7a868"><path d="M 340.007812 117 L 351 117 L 351 127 L 340.007812 127 Z M 340.007812 117 " clip-rule="nonzero"/></clipPath><clipPath id="e89c5f90f9"><path d="M 572 117 L 583.386719 117 L 583.386719 127 L 572 127 Z M 572 117 " clip-rule="nonzero"/></clipPath><clipPath id="4fc5b5a2d0"><path d="M 655 215 L 1023.464844 215 L 1023.464844 650 L 655 650 Z M 655 215 " clip-rule="nonzero"/></clipPath></defs><g clip-path="url(#43669358a3)"><path fill="#ffffff" d="M 0.535156 0 L 1023.464844 0 L 1023.464844 650 L 0.535156 650 Z M 0.535156 0 " fill-opacity="1" fill-rule="nonzero"/><path fill="url(#b8c51d536f)" d="M 0.535156 0 L 0.535156 650 L 1023.464844 650 L 1023.464844 0 Z M 0.535156 0 " fill-rule="nonzero"/></g><g clip-path="url(#afd3a1e79c)"><g clip-path="url(#b531247615)"><path fill="#ffffff" d="M 865.414062 -83.484375 L 1338.027344 59.175781 L 1102.859375 838.246094 L 630.25 695.585938 Z M 865.414062 -83.484375 " fill-opacity="1" fill-rule="nonzero"/></g></g><g clip-path="url(#00f912971c)"><path fill="#ffffff" d="M 326.664062 208.652344 L 349.242188 186.074219 L 326.664062 163.5 L 338.070312 152.09375 L 372.050781 186.074219 L 338.070312 220.054688 Z M 353.113281 186.074219 L 330.539062 208.652344 L 338.070312 216.183594 L 368.175781 186.074219 L 338.070312 155.96875 L 330.539062 163.5 Z M 353.113281 186.074219 " fill-opacity="1" fill-rule="nonzero"/></g><g clip-path="url(#ff2f737e1b)"><path fill="#ffffff" d="M 297.359375 208.652344 L 319.9375 186.074219 L 297.359375 163.5 L 308.765625 152.09375 L 342.742188 186.074219 L 308.765625 220.054688 Z M 323.808594 186.074219 L 301.234375 208.652344 L 308.765625 216.183594 L 338.871094 186.074219 L 308.765625 155.96875 L 301.234375 163.5 Z M 323.808594 186.074219 " fill-opacity="1" fill-rule="nonzero"/></g><g clip-path="url(#cddb309e0e)"><path fill="#ffffff" d="M 268.054688 208.652344 L 290.628906 186.074219 L 268.054688 163.5 L 279.457031 152.09375 L 313.4375 186.074219 L 279.457031 220.054688 Z M 294.503906 186.074219 L 271.925781 208.652344 L 279.457031 216.183594 L 309.566406 186.074219 L 279.457031 155.96875 L 271.925781 163.5 Z M 294.503906 186.074219 " fill-opacity="1" fill-rule="nonzero"/></g><g clip-path="url(#924a5220f4)"><path fill="#ffffff" d="M 350.484375 92.640625 L 347.011719 87.769531 L 350.285156 83.214844 L 346.863281 83.214844 L 345.300781 85.585938 L 343.699219 83.214844 L 340.128906 83.214844 L 343.417969 87.886719 L 340.007812 92.640625 L 343.632812 92.640625 L 345.21875 90.125 L 346.851562 92.640625 Z M 350.484375 92.640625 " fill-opacity="1" fill-rule="nonzero"/></g><g clip-path="url(#9ae279fb2a)"><path fill="#ffffff" d="M 397.597656 92.640625 L 394.121094 87.769531 L 397.394531 83.214844 L 393.976562 83.214844 L 392.414062 85.585938 L 390.804688 83.214844 L 387.242188 83.214844 L 390.523438 87.886719 L 387.121094 92.640625 L 390.742188 92.640625 L 392.332031 90.125 L 393.960938 92.640625 Z M 397.597656 92.640625 " fill-opacity="1" fill-rule="nonzero"/></g><g clip-path="url(#deabf72baf)"><path fill="#ffffff" d="M 444.519531 92.640625 L 441.039062 87.769531 L 444.3125 83.214844 L 440.890625 83.214844 L 439.328125 85.585938 L 437.726562 83.214844 L 434.15625 83.214844 L 437.445312 87.886719 L 434.039062 92.640625 L 437.664062 92.640625 L 439.246094 90.125 L 440.882812 92.640625 Z M 444.519531 92.640625 " fill-opacity="1" fill-rule="nonzero"/></g><g clip-path="url(#759aba2683)"><path fill="#ffffff" d="M 489.183594 92.640625 L 485.707031 87.769531 L 488.980469 83.214844 L 485.5625 83.214844 L 484 85.585938 L 482.398438 83.214844 L 478.828125 83.214844 L 482.109375 87.886719 L 478.707031 92.640625 L 482.328125 92.640625 L 483.917969 90.125 L 485.546875 92.640625 Z M 489.183594 92.640625 " fill-opacity="1" fill-rule="nonzero"/></g><g clip-path="url(#4a252eb73c)"><path fill="#ffffff" d="M 536.292969 92.640625 L 532.820312 87.769531 L 536.09375 83.214844 L 532.667969 83.214844 L 531.105469 85.585938 L 529.503906 83.214844 L 525.9375 83.214844 L 529.222656 87.886719 L 525.8125 92.640625 L 529.4375 92.640625 L 531.027344 90.125 L 532.65625 92.640625 Z M 536.292969 92.640625 " fill-opacity="1" fill-rule="nonzero"/></g><g clip-path="url(#99480a8f61)"><path fill="#ffffff" d="M 583.210938 92.640625 L 579.738281 87.769531 L 583.007812 83.214844 L 579.589844 83.214844 L 578.027344 85.585938 L 576.425781 83.214844 L 572.855469 83.214844 L 576.144531 87.886719 L 572.734375 92.640625 L 576.355469 92.640625 L 577.945312 90.125 L 579.574219 92.640625 Z M 583.210938 92.640625 " fill-opacity="1" fill-rule="nonzero"/></g><g clip-path="url(#d78ea7a868)"><path fill="#ffffff" d="M 350.484375 126.984375 L 347.011719 122.109375 L 350.285156 117.554688 L 346.863281 117.554688 L 345.300781 119.925781 L 343.699219 117.554688 L 340.128906 117.554688 L 343.417969 122.226562 L 340.007812 126.984375 L 343.632812 126.984375 L 345.21875 124.464844 L 346.851562 126.984375 Z M 350.484375 126.984375 " fill-opacity="1" fill-rule="nonzero"/></g><path fill="#ffffff" d="M 397.597656 126.984375 L 394.121094 122.109375 L 397.394531 117.554688 L 393.976562 117.554688 L 392.414062 119.925781 L 390.804688 117.554688 L 387.242188 117.554688 L 390.523438 122.226562 L 387.121094 126.984375 L 390.742188 126.984375 L 392.332031 124.464844 L 393.960938 126.984375 Z M 397.597656 126.984375 " fill-opacity="1" fill-rule="nonzero"/><path fill="#ffffff" d="M 444.519531 126.984375 L 441.039062 122.109375 L 444.3125 117.554688 L 440.890625 117.554688 L 439.328125 119.925781 L 437.726562 117.554688 L 434.15625 117.554688 L 437.445312 122.226562 L 434.039062 126.984375 L 437.664062 126.984375 L 439.246094 124.464844 L 440.882812 126.984375 Z M 444.519531 126.984375 " fill-opacity="1" fill-rule="nonzero"/><path fill="#ffffff" d="M 489.183594 126.984375 L 485.707031 122.109375 L 488.980469 117.554688 L 485.5625 117.554688 L 484 119.925781 L 482.398438 117.554688 L 478.828125 117.554688 L 482.109375 122.226562 L 478.707031 126.984375 L 482.328125 126.984375 L 483.917969 124.464844 L 485.546875 126.984375 Z M 489.183594 126.984375 " fill-opacity="1" fill-rule="nonzero"/><path fill="#ffffff" d="M 536.292969 126.984375 L 532.820312 122.109375 L 536.09375 117.554688 L 532.667969 117.554688 L 531.105469 119.925781 L 529.503906 117.554688 L 525.9375 117.554688 L 529.222656 122.226562 L 525.8125 126.984375 L 529.4375 126.984375 L 531.027344 124.464844 L 532.65625 126.984375 Z M 536.292969 126.984375 " fill-opacity="1" fill-rule="nonzero"/><g clip-path="url(#e89c5f90f9)"><path fill="#ffffff" d="M 583.210938 126.984375 L 579.738281 122.109375 L 583.007812 117.554688 L 579.589844 117.554688 L 578.027344 119.925781 L 576.425781 117.554688 L 572.855469 117.554688 L 576.144531 122.226562 L 572.734375 126.984375 L 576.355469 126.984375 L 577.945312 124.464844 L 579.574219 126.984375 Z M 583.210938 126.984375 " fill-opacity="1" fill-rule="nonzero"/></g><g fill="#ffffff" fill-opacity="1"><g transform="translate(27.727253, 354.082225)"><g><path d="M 3.6875 0 L 3.6875 -83.25 L 29.078125 -83.25 L 36.0625 -32.46875 L 43.03125 -83.25 L 68.625 -83.25 L 68.625 0 L 53.40625 0 L 53.40625 -60 L 43.8125 0 L 28.875 0 L 18.703125 -60 L 18.703125 0 Z M 3.6875 0 "/></g></g></g><g fill="#ffffff" fill-opacity="1"><g transform="translate(100.026941, 354.082225)"><g><path d="M 1.453125 0 L 9.5 -83.25 L 37.703125 -83.25 L 45.65625 0 L 29.859375 0 L 28.6875 -13.46875 L 18.609375 -13.46875 L 17.640625 0 Z M 19.875 -26.75 L 27.421875 -26.75 L 23.75 -69.109375 L 22.96875 -69.109375 Z M 19.875 -26.75 "/></g></g></g><g fill="#ffffff" fill-opacity="1"><g transform="translate(147.031426, 354.082225)"><g><path d="M 23.453125 0.78125 C 15.890625 0.78125 10.425781 -1.09375 7.0625 -4.84375 C 3.707031 -8.59375 2.03125 -14.632812 2.03125 -22.96875 L 2.03125 -31.109375 L 18.421875 -31.109375 L 18.421875 -20.734375 C 18.421875 -16.597656 19.742188 -14.53125 22.390625 -14.53125 C 23.878906 -14.53125 24.910156 -14.96875 25.484375 -15.84375 C 26.066406 -16.71875 26.359375 -18.1875 26.359375 -20.25 C 26.359375 -22.96875 26.035156 -25.210938 25.390625 -26.984375 C 24.742188 -28.765625 23.921875 -30.253906 22.921875 -31.453125 C 21.921875 -32.648438 20.128906 -34.507812 17.546875 -37.03125 L 10.375 -44.203125 C 4.8125 -49.628906 2.03125 -55.632812 2.03125 -62.21875 C 2.03125 -69.332031 3.660156 -74.742188 6.921875 -78.453125 C 10.191406 -82.171875 14.957031 -84.03125 21.21875 -84.03125 C 28.71875 -84.03125 34.113281 -82.039062 37.40625 -78.0625 C 40.707031 -74.09375 42.359375 -67.875 42.359375 -59.40625 L 25.390625 -59.40625 L 25.296875 -65.125 C 25.296875 -66.226562 24.988281 -67.101562 24.375 -67.75 C 23.757812 -68.394531 22.90625 -68.71875 21.8125 -68.71875 C 20.519531 -68.71875 19.550781 -68.359375 18.90625 -67.640625 C 18.257812 -66.929688 17.9375 -65.96875 17.9375 -64.75 C 17.9375 -62.03125 19.484375 -59.21875 22.578125 -56.3125 L 32.28125 -47 C 34.539062 -44.8125 36.410156 -42.726562 37.890625 -40.75 C 39.378906 -38.78125 40.578125 -36.453125 41.484375 -33.765625 C 42.390625 -31.085938 42.84375 -27.910156 42.84375 -24.234375 C 42.84375 -16.023438 41.335938 -9.800781 38.328125 -5.5625 C 35.328125 -1.332031 30.367188 0.78125 23.453125 0.78125 Z M 23.453125 0.78125 "/></g></g></g><g fill="#ffffff" fill-opacity="1"><g transform="translate(191.709917, 354.082225)"><g><path d="M 23.453125 0.78125 C 15.890625 0.78125 10.425781 -1.09375 7.0625 -4.84375 C 3.707031 -8.59375 2.03125 -14.632812 2.03125 -22.96875 L 2.03125 -31.109375 L 18.421875 -31.109375 L 18.421875 -20.734375 C 18.421875 -16.597656 19.742188 -14.53125 22.390625 -14.53125 C 23.878906 -14.53125 24.910156 -14.96875 25.484375 -15.84375 C 26.066406 -16.71875 26.359375 -18.1875 26.359375 -20.25 C 26.359375 -22.96875 26.035156 -25.210938 25.390625 -26.984375 C 24.742188 -28.765625 23.921875 -30.253906 22.921875 -31.453125 C 21.921875 -32.648438 20.128906 -34.507812 17.546875 -37.03125 L 10.375 -44.203125 C 4.8125 -49.628906 2.03125 -55.632812 2.03125 -62.21875 C 2.03125 -69.332031 3.660156 -74.742188 6.921875 -78.453125 C 10.191406 -82.171875 14.957031 -84.03125 21.21875 -84.03125 C 28.71875 -84.03125 34.113281 -82.039062 37.40625 -78.0625 C 40.707031 -74.09375 42.359375 -67.875 42.359375 -59.40625 L 25.390625 -59.40625 L 25.296875 -65.125 C 25.296875 -66.226562 24.988281 -67.101562 24.375 -67.75 C 23.757812 -68.394531 22.90625 -68.71875 21.8125 -68.71875 C 20.519531 -68.71875 19.550781 -68.359375 18.90625 -67.640625 C 18.257812 -66.929688 17.9375 -65.96875 17.9375 -64.75 C 17.9375 -62.03125 19.484375 -59.21875 22.578125 -56.3125 L 32.28125 -47 C 34.539062 -44.8125 36.410156 -42.726562 37.890625 -40.75 C 39.378906 -38.78125 40.578125 -36.453125 41.484375 -33.765625 C 42.390625 -31.085938 42.84375 -27.910156 42.84375 -24.234375 C 42.84375 -16.023438 41.335938 -9.800781 38.328125 -5.5625 C 35.328125 -1.332031 30.367188 0.78125 23.453125 0.78125 Z M 23.453125 0.78125 "/></g></g></g><g fill="#ffffff" fill-opacity="1"><g transform="translate(236.388407, 354.082225)"><g/></g></g><g fill="#ffffff" fill-opacity="1"><g transform="translate(259.066878, 354.082225)"><g><path d="M 1.453125 0 L 9.5 -83.25 L 37.703125 -83.25 L 45.65625 0 L 29.859375 0 L 28.6875 -13.46875 L 18.609375 -13.46875 L 17.640625 0 Z M 19.875 -26.75 L 27.421875 -26.75 L 23.75 -69.109375 L 22.96875 -69.109375 Z M 19.875 -26.75 "/></g></g></g><g fill="#ffffff" fill-opacity="1"><g transform="translate(306.071363, 354.082225)"><g><path d="M 3.6875 -83.25 L 26.265625 -83.25 C 32.335938 -83.25 36.742188 -81.765625 39.484375 -78.796875 C 42.234375 -75.828125 43.609375 -70.984375 43.609375 -64.265625 L 43.609375 -60.578125 C 43.609375 -52.628906 40.765625 -47.878906 35.078125 -46.328125 C 38.566406 -45.421875 41.019531 -43.316406 42.4375 -40.015625 C 43.863281 -36.722656 44.578125 -32.363281 44.578125 -26.9375 C 44.578125 -18.09375 43.253906 -11.390625 40.609375 -6.828125 C 37.960938 -2.273438 33.179688 0 26.265625 0 L 3.6875 0 Z M 23.359375 -51.953125 C 24.773438 -51.953125 25.742188 -52.484375 26.265625 -53.546875 C 26.785156 -54.617188 27.046875 -56.125 27.046875 -58.0625 L 27.046875 -66.390625 C 27.046875 -69.109375 25.847656 -70.46875 23.453125 -70.46875 L 19.96875 -70.46875 L 19.96875 -51.953125 Z M 21.609375 -14.640625 C 25.941406 -14.640625 28.109375 -16.707031 28.109375 -20.84375 L 28.109375 -31.203125 C 28.109375 -33.722656 27.734375 -35.628906 26.984375 -36.921875 C 26.242188 -38.210938 24.9375 -38.859375 23.0625 -38.859375 L 19.96875 -38.859375 L 19.96875 -14.734375 Z M 21.609375 -14.640625 "/></g></g></g><g fill="#ffffff" fill-opacity="1"><g transform="translate(352.494326, 354.082225)"><g/></g></g><g fill="#ffffff" fill-opacity="1"><g transform="translate(375.172797, 354.082225)"><g><path d="M 3.6875 0 L 3.6875 -83.25 L 20.25 -83.25 L 20.25 -53.5 L 28.109375 -53.5 L 28.109375 -83.25 L 44.6875 -83.25 L 44.6875 0 L 28.109375 0 L 28.109375 -37.796875 L 20.25 -37.796875 L 20.25 0 Z M 3.6875 0 "/></g></g></g><g fill="#ffffff" fill-opacity="1"><g transform="translate(423.534088, 354.082225)"><g><path d="M 23.546875 0.78125 C 16.828125 0.78125 11.722656 -1.269531 8.234375 -5.375 C 4.742188 -9.476562 3 -15.25 3 -22.6875 L 3 -62.328125 C 3 -69.492188 4.742188 -74.898438 8.234375 -78.546875 C 11.722656 -82.203125 16.828125 -84.03125 23.546875 -84.03125 C 30.265625 -84.03125 35.367188 -82.203125 38.859375 -78.546875 C 42.347656 -74.898438 44.09375 -69.492188 44.09375 -62.328125 L 44.09375 -22.6875 C 44.09375 -15.1875 42.347656 -9.398438 38.859375 -5.328125 C 35.367188 -1.253906 30.265625 0.78125 23.546875 0.78125 Z M 23.546875 -14.53125 C 25.035156 -14.53125 26.035156 -15.175781 26.546875 -16.46875 C 27.066406 -17.769531 27.328125 -19.582031 27.328125 -21.90625 L 27.328125 -62.609375 C 27.328125 -64.421875 27.082031 -65.890625 26.59375 -67.015625 C 26.113281 -68.148438 25.132812 -68.71875 23.65625 -68.71875 C 20.875 -68.71875 19.484375 -66.617188 19.484375 -62.421875 L 19.484375 -21.8125 C 19.484375 -19.414062 19.769531 -17.601562 20.34375 -16.375 C 20.925781 -15.144531 21.992188 -14.53125 23.546875 -14.53125 Z M 23.546875 -14.53125 "/></g></g></g><g fill="#ffffff" fill-opacity="1"><g transform="translate(470.635502, 354.082225)"><g><path d="M 3.6875 0 L 3.6875 -83.25 L 29.078125 -83.25 L 36.0625 -32.46875 L 43.03125 -83.25 L 68.625 -83.25 L 68.625 0 L 53.40625 0 L 53.40625 -60 L 43.8125 0 L 28.875 0 L 18.703125 -60 L 18.703125 0 Z M 3.6875 0 "/></g></g></g><g fill="#ffffff" fill-opacity="1"><g transform="translate(542.93519, 354.082225)"><g><path d="M 3.6875 0 L 3.6875 -83.25 L 37.03125 -83.25 L 37.03125 -67.171875 L 20.640625 -67.171875 L 20.640625 -50.984375 L 36.34375 -50.984375 L 36.34375 -35.28125 L 20.640625 -35.28125 L 20.640625 -16.1875 L 38.09375 -16.1875 L 38.09375 0 Z M 3.6875 0 "/></g></g></g><g fill="#ffffff" fill-opacity="1"><g transform="translate(27.727253, 459.158059)"><g><path d="M 3.6875 0 L 3.6875 -83.25 L 37.03125 -83.25 L 37.03125 -67.0625 L 20.453125 -67.0625 L 20.453125 -53.796875 L 36.15625 -53.796875 L 36.15625 -37.796875 L 20.453125 -37.796875 L 20.453125 0 Z M 3.6875 0 "/></g></g></g><g fill="#ffffff" fill-opacity="1"><g transform="translate(66.3969, 459.158059)"><g><path d="M 2.90625 0 L 2.90625 -83.25 L 19 -83.25 L 19 0 Z M 2.90625 0 "/></g></g></g><g fill="#ffffff" fill-opacity="1"><g transform="translate(88.39692, 459.158059)"><g><path d="M 10.859375 0 L 10.859375 -67.265625 L 0.96875 -67.265625 L 0.96875 -83.25 L 37.40625 -83.25 L 37.40625 -67.265625 L 27.53125 -67.265625 L 27.53125 0 Z M 10.859375 0 "/></g></g></g><g fill="#ffffff" fill-opacity="1"><g transform="translate(126.775829, 459.158059)"><g><path d="M 3.6875 0 L 3.6875 -83.25 L 20.84375 -83.25 L 28.5 -43.421875 L 28.5 -83.25 L 44.578125 -83.25 L 44.578125 0 L 28.296875 0 L 19.96875 -41.671875 L 19.96875 0 Z M 3.6875 0 "/></g></g></g><g fill="#ffffff" fill-opacity="1"><g transform="translate(175.04024, 459.158059)"><g><path d="M 3.6875 0 L 3.6875 -83.25 L 37.03125 -83.25 L 37.03125 -67.171875 L 20.640625 -67.171875 L 20.640625 -50.984375 L 36.34375 -50.984375 L 36.34375 -35.28125 L 20.640625 -35.28125 L 20.640625 -16.1875 L 38.09375 -16.1875 L 38.09375 0 Z M 3.6875 0 "/></g></g></g><g fill="#ffffff" fill-opacity="1"><g transform="translate(214.969813, 459.158059)"><g><path d="M 23.453125 0.78125 C 15.890625 0.78125 10.425781 -1.09375 7.0625 -4.84375 C 3.707031 -8.59375 2.03125 -14.632812 2.03125 -22.96875 L 2.03125 -31.109375 L 18.421875 -31.109375 L 18.421875 -20.734375 C 18.421875 -16.597656 19.742188 -14.53125 22.390625 -14.53125 C 23.878906 -14.53125 24.910156 -14.96875 25.484375 -15.84375 C 26.066406 -16.71875 26.359375 -18.1875 26.359375 -20.25 C 26.359375 -22.96875 26.035156 -25.210938 25.390625 -26.984375 C 24.742188 -28.765625 23.921875 -30.253906 22.921875 -31.453125 C 21.921875 -32.648438 20.128906 -34.507812 17.546875 -37.03125 L 10.375 -44.203125 C 4.8125 -49.628906 2.03125 -55.632812 2.03125 -62.21875 C 2.03125 -69.332031 3.660156 -74.742188 6.921875 -78.453125 C 10.191406 -82.171875 14.957031 -84.03125 21.21875 -84.03125 C 28.71875 -84.03125 34.113281 -82.039062 37.40625 -78.0625 C 40.707031 -74.09375 42.359375 -67.875 42.359375 -59.40625 L 25.390625 -59.40625 L 25.296875 -65.125 C 25.296875 -66.226562 24.988281 -67.101562 24.375 -67.75 C 23.757812 -68.394531 22.90625 -68.71875 21.8125 -68.71875 C 20.519531 -68.71875 19.550781 -68.359375 18.90625 -67.640625 C 18.257812 -66.929688 17.9375 -65.96875 17.9375 -64.75 C 17.9375 -62.03125 19.484375 -59.21875 22.578125 -56.3125 L 32.28125 -47 C 34.539062 -44.8125 36.410156 -42.726562 37.890625 -40.75 C 39.378906 -38.78125 40.578125 -36.453125 41.484375 -33.765625 C 42.390625 -31.085938 42.84375 -27.910156 42.84375 -24.234375 C 42.84375 -16.023438 41.335938 -9.800781 38.328125 -5.5625 C 35.328125 -1.332031 30.367188 0.78125 23.453125 0.78125 Z M 23.453125 0.78125 "/></g></g></g><g fill="#ffffff" fill-opacity="1"><g transform="translate(259.648304, 459.158059)"><g><path d="M 23.453125 0.78125 C 15.890625 0.78125 10.425781 -1.09375 7.0625 -4.84375 C 3.707031 -8.59375 2.03125 -14.632812 2.03125 -22.96875 L 2.03125 -31.109375 L 18.421875 -31.109375 L 18.421875 -20.734375 C 18.421875 -16.597656 19.742188 -14.53125 22.390625 -14.53125 C 23.878906 -14.53125 24.910156 -14.96875 25.484375 -15.84375 C 26.066406 -16.71875 26.359375 -18.1875 26.359375 -20.25 C 26.359375 -22.96875 26.035156 -25.210938 25.390625 -26.984375 C 24.742188 -28.765625 23.921875 -30.253906 22.921875 -31.453125 C 21.921875 -32.648438 20.128906 -34.507812 17.546875 -37.03125 L 10.375 -44.203125 C 4.8125 -49.628906 2.03125 -55.632812 2.03125 -62.21875 C 2.03125 -69.332031 3.660156 -74.742188 6.921875 -78.453125 C 10.191406 -82.171875 14.957031 -84.03125 21.21875 -84.03125 C 28.71875 -84.03125 34.113281 -82.039062 37.40625 -78.0625 C 40.707031 -74.09375 42.359375 -67.875 42.359375 -59.40625 L 25.390625 -59.40625 L 25.296875 -65.125 C 25.296875 -66.226562 24.988281 -67.101562 24.375 -67.75 C 23.757812 -68.394531 22.90625 -68.71875 21.8125 -68.71875 C 20.519531 -68.71875 19.550781 -68.359375 18.90625 -67.640625 C 18.257812 -66.929688 17.9375 -65.96875 17.9375 -64.75 C 17.9375 -62.03125 19.484375 -59.21875 22.578125 -56.3125 L 32.28125 -47 C 34.539062 -44.8125 36.410156 -42.726562 37.890625 -40.75 C 39.378906 -38.78125 40.578125 -36.453125 41.484375 -33.765625 C 42.390625 -31.085938 42.84375 -27.910156 42.84375 -24.234375 C 42.84375 -16.023438 41.335938 -9.800781 38.328125 -5.5625 C 35.328125 -1.332031 30.367188 0.78125 23.453125 0.78125 Z M 23.453125 0.78125 "/></g></g></g><g fill="#ffffff" fill-opacity="1"><g transform="translate(304.326794, 459.158059)"><g/></g></g><g fill="#ffffff" fill-opacity="1"><g transform="translate(327.005265, 459.158059)"><g><path d="M 10.859375 0 L 10.859375 -67.265625 L 0.96875 -67.265625 L 0.96875 -83.25 L 37.40625 -83.25 L 37.40625 -67.265625 L 27.53125 -67.265625 L 27.53125 0 Z M 10.859375 0 "/></g></g></g><g fill="#ffffff" fill-opacity="1"><g transform="translate(365.384175, 459.158059)"><g><path d="M 3.6875 -83.25 L 29.265625 -83.25 C 33.335938 -83.25 36.488281 -82.328125 38.71875 -80.484375 C 40.945312 -78.648438 42.445312 -76.066406 43.21875 -72.734375 C 44 -69.410156 44.390625 -65.164062 44.390625 -60 C 44.390625 -55.28125 43.773438 -51.59375 42.546875 -48.9375 C 41.316406 -46.289062 39.1875 -44.453125 36.15625 -43.421875 C 38.675781 -42.898438 40.5 -41.640625 41.625 -39.640625 C 42.757812 -37.640625 43.328125 -34.925781 43.328125 -31.5 L 43.125 0 L 26.84375 0 L 26.84375 -32.5625 C 26.84375 -34.894531 26.390625 -36.382812 25.484375 -37.03125 C 24.585938 -37.675781 22.941406 -38 20.546875 -38 L 20.546875 0 L 3.6875 0 Z M 24.625 -52.4375 C 26.945312 -52.4375 28.109375 -54.957031 28.109375 -60 C 28.109375 -62.195312 28.007812 -63.84375 27.8125 -64.9375 C 27.625 -66.03125 27.269531 -66.785156 26.75 -67.203125 C 26.226562 -67.628906 25.484375 -67.84375 24.515625 -67.84375 L 20.640625 -67.84375 L 20.640625 -52.4375 Z M 24.625 -52.4375 "/></g></g></g><g fill="#ffffff" fill-opacity="1"><g transform="translate(411.613329, 459.158059)"><g><path d="M 1.453125 0 L 9.5 -83.25 L 37.703125 -83.25 L 45.65625 0 L 29.859375 0 L 28.6875 -13.46875 L 18.609375 -13.46875 L 17.640625 0 Z M 19.875 -26.75 L 27.421875 -26.75 L 23.75 -69.109375 L 22.96875 -69.109375 Z M 19.875 -26.75 "/></g></g></g><g fill="#ffffff" fill-opacity="1"><g transform="translate(458.617814, 459.158059)"><g><path d="M 2.90625 0 L 2.90625 -83.25 L 19 -83.25 L 19 0 Z M 2.90625 0 "/></g></g></g><g fill="#ffffff" fill-opacity="1"><g transform="translate(480.617833, 459.158059)"><g><path d="M 3.6875 0 L 3.6875 -83.25 L 20.84375 -83.25 L 28.5 -43.421875 L 28.5 -83.25 L 44.578125 -83.25 L 44.578125 0 L 28.296875 0 L 19.96875 -41.671875 L 19.96875 0 Z M 3.6875 0 "/></g></g></g><g fill="#ffffff" fill-opacity="1"><g transform="translate(528.882244, 459.158059)"><g><path d="M 2.90625 0 L 2.90625 -83.25 L 19 -83.25 L 19 0 Z M 2.90625 0 "/></g></g></g><g fill="#ffffff" fill-opacity="1"><g transform="translate(550.882264, 459.158059)"><g><path d="M 3.6875 0 L 3.6875 -83.25 L 20.84375 -83.25 L 28.5 -43.421875 L 28.5 -83.25 L 44.578125 -83.25 L 44.578125 0 L 28.296875 0 L 19.96875 -41.671875 L 19.96875 0 Z M 3.6875 0 "/></g></g></g><g fill="#ffffff" fill-opacity="1"><g transform="translate(599.146675, 459.158059)"><g><path d="M 20.84375 0.78125 C 14.832031 0.78125 10.351562 -1.332031 7.40625 -5.5625 C 4.46875 -9.800781 3 -16.21875 3 -24.8125 L 3 -60.671875 C 3 -68.359375 4.710938 -74.171875 8.140625 -78.109375 C 11.566406 -82.054688 16.671875 -84.03125 23.453125 -84.03125 C 28.941406 -84.03125 33.203125 -82.929688 36.234375 -80.734375 C 39.273438 -78.535156 41.378906 -75.335938 42.546875 -71.140625 C 43.710938 -66.941406 44.296875 -61.546875 44.296875 -54.953125 L 28.015625 -54.953125 L 28.015625 -62.421875 C 28.015625 -64.421875 27.738281 -65.96875 27.1875 -67.0625 C 26.632812 -68.164062 25.648438 -68.71875 24.234375 -68.71875 C 21.066406 -68.71875 19.484375 -66.648438 19.484375 -62.515625 L 19.484375 -22.1875 C 19.484375 -19.675781 19.804688 -17.769531 20.453125 -16.46875 C 21.097656 -15.175781 22.226562 -14.53125 23.84375 -14.53125 C 25.457031 -14.53125 26.585938 -15.175781 27.234375 -16.46875 C 27.878906 -17.769531 28.203125 -19.675781 28.203125 -22.1875 L 28.203125 -34.109375 L 23.75 -34.109375 L 23.75 -48.46875 L 44.09375 -48.46875 L 44.09375 0 L 37.40625 0 L 34.59375 -6.984375 C 31.625 -1.804688 27.039062 0.78125 20.84375 0.78125 Z M 20.84375 0.78125 "/></g></g></g><g fill="#ffffff" fill-opacity="1"><g transform="translate(27.727253, 564.233893)"><g><path d="M 3.6875 -83.25 L 25.6875 -83.25 C 32.34375 -83.25 37.09375 -81.097656 39.9375 -76.796875 C 42.78125 -72.503906 44.203125 -66.222656 44.203125 -57.953125 C 44.203125 -49.679688 42.941406 -43.445312 40.421875 -39.25 C 37.898438 -35.050781 33.375 -32.953125 26.84375 -32.953125 L 20.0625 -32.953125 L 20.0625 0 L 3.6875 0 Z M 21.03125 -47.96875 C 23.03125 -47.96875 24.5 -48.335938 25.4375 -49.078125 C 26.375 -49.828125 26.988281 -50.894531 27.28125 -52.28125 C 27.570312 -53.675781 27.71875 -55.664062 27.71875 -58.25 C 27.71875 -61.738281 27.328125 -64.257812 26.546875 -65.8125 C 25.773438 -67.363281 24.226562 -68.140625 21.90625 -68.140625 L 20.0625 -68.140625 L 20.0625 -47.96875 Z M 21.03125 -47.96875 "/></g></g></g><g fill="#ffffff" fill-opacity="1"><g transform="translate(73.471812, 564.233893)"><g><path d="M 3.6875 -83.25 L 29.265625 -83.25 C 33.335938 -83.25 36.488281 -82.328125 38.71875 -80.484375 C 40.945312 -78.648438 42.445312 -76.066406 43.21875 -72.734375 C 44 -69.410156 44.390625 -65.164062 44.390625 -60 C 44.390625 -55.28125 43.773438 -51.59375 42.546875 -48.9375 C 41.316406 -46.289062 39.1875 -44.453125 36.15625 -43.421875 C 38.675781 -42.898438 40.5 -41.640625 41.625 -39.640625 C 42.757812 -37.640625 43.328125 -34.925781 43.328125 -31.5 L 43.125 0 L 26.84375 0 L 26.84375 -32.5625 C 26.84375 -34.894531 26.390625 -36.382812 25.484375 -37.03125 C 24.585938 -37.675781 22.941406 -38 20.546875 -38 L 20.546875 0 L 3.6875 0 Z M 24.625 -52.4375 C 26.945312 -52.4375 28.109375 -54.957031 28.109375 -60 C 28.109375 -62.195312 28.007812 -63.84375 27.8125 -64.9375 C 27.625 -66.03125 27.269531 -66.785156 26.75 -67.203125 C 26.226562 -67.628906 25.484375 -67.84375 24.515625 -67.84375 L 20.640625 -67.84375 L 20.640625 -52.4375 Z M 24.625 -52.4375 "/></g></g></g><g fill="#ffffff" fill-opacity="1"><g transform="translate(119.700966, 564.233893)"><g><path d="M 23.546875 0.78125 C 16.828125 0.78125 11.722656 -1.269531 8.234375 -5.375 C 4.742188 -9.476562 3 -15.25 3 -22.6875 L 3 -62.328125 C 3 -69.492188 4.742188 -74.898438 8.234375 -78.546875 C 11.722656 -82.203125 16.828125 -84.03125 23.546875 -84.03125 C 30.265625 -84.03125 35.367188 -82.203125 38.859375 -78.546875 C 42.347656 -74.898438 44.09375 -69.492188 44.09375 -62.328125 L 44.09375 -22.6875 C 44.09375 -15.1875 42.347656 -9.398438 38.859375 -5.328125 C 35.367188 -1.253906 30.265625 0.78125 23.546875 0.78125 Z M 23.546875 -14.53125 C 25.035156 -14.53125 26.035156 -15.175781 26.546875 -16.46875 C 27.066406 -17.769531 27.328125 -19.582031 27.328125 -21.90625 L 27.328125 -62.609375 C 27.328125 -64.421875 27.082031 -65.890625 26.59375 -67.015625 C 26.113281 -68.148438 25.132812 -68.71875 23.65625 -68.71875 C 20.875 -68.71875 19.484375 -66.617188 19.484375 -62.421875 L 19.484375 -21.8125 C 19.484375 -19.414062 19.769531 -17.601562 20.34375 -16.375 C 20.925781 -15.144531 21.992188 -14.53125 23.546875 -14.53125 Z M 23.546875 -14.53125 "/></g></g></g><g fill="#ffffff" fill-opacity="1"><g transform="translate(166.80238, 564.233893)"><g><path d="M 20.84375 0.78125 C 14.832031 0.78125 10.351562 -1.332031 7.40625 -5.5625 C 4.46875 -9.800781 3 -16.21875 3 -24.8125 L 3 -60.671875 C 3 -68.359375 4.710938 -74.171875 8.140625 -78.109375 C 11.566406 -82.054688 16.671875 -84.03125 23.453125 -84.03125 C 28.941406 -84.03125 33.203125 -82.929688 36.234375 -80.734375 C 39.273438 -78.535156 41.378906 -75.335938 42.546875 -71.140625 C 43.710938 -66.941406 44.296875 -61.546875 44.296875 -54.953125 L 28.015625 -54.953125 L 28.015625 -62.421875 C 28.015625 -64.421875 27.738281 -65.96875 27.1875 -67.0625 C 26.632812 -68.164062 25.648438 -68.71875 24.234375 -68.71875 C 21.066406 -68.71875 19.484375 -66.648438 19.484375 -62.515625 L 19.484375 -22.1875 C 19.484375 -19.675781 19.804688 -17.769531 20.453125 -16.46875 C 21.097656 -15.175781 22.226562 -14.53125 23.84375 -14.53125 C 25.457031 -14.53125 26.585938 -15.175781 27.234375 -16.46875 C 27.878906 -17.769531 28.203125 -19.675781 28.203125 -22.1875 L 28.203125 -34.109375 L 23.75 -34.109375 L 23.75 -48.46875 L 44.09375 -48.46875 L 44.09375 0 L 37.40625 0 L 34.59375 -6.984375 C 31.625 -1.804688 27.039062 0.78125 20.84375 0.78125 Z M 20.84375 0.78125 "/></g></g></g><g fill="#ffffff" fill-opacity="1"><g transform="translate(213.806865, 564.233893)"><g><path d="M 3.6875 -83.25 L 29.265625 -83.25 C 33.335938 -83.25 36.488281 -82.328125 38.71875 -80.484375 C 40.945312 -78.648438 42.445312 -76.066406 43.21875 -72.734375 C 44 -69.410156 44.390625 -65.164062 44.390625 -60 C 44.390625 -55.28125 43.773438 -51.59375 42.546875 -48.9375 C 41.316406 -46.289062 39.1875 -44.453125 36.15625 -43.421875 C 38.675781 -42.898438 40.5 -41.640625 41.625 -39.640625 C 42.757812 -37.640625 43.328125 -34.925781 43.328125 -31.5 L 43.125 0 L 26.84375 0 L 26.84375 -32.5625 C 26.84375 -34.894531 26.390625 -36.382812 25.484375 -37.03125 C 24.585938 -37.675781 22.941406 -38 20.546875 -38 L 20.546875 0 L 3.6875 0 Z M 24.625 -52.4375 C 26.945312 -52.4375 28.109375 -54.957031 28.109375 -60 C 28.109375 -62.195312 28.007812 -63.84375 27.8125 -64.9375 C 27.625 -66.03125 27.269531 -66.785156 26.75 -67.203125 C 26.226562 -67.628906 25.484375 -67.84375 24.515625 -67.84375 L 20.640625 -67.84375 L 20.640625 -52.4375 Z M 24.625 -52.4375 "/></g></g></g><g fill="#ffffff" fill-opacity="1"><g transform="translate(260.036018, 564.233893)"><g><path d="M 1.453125 0 L 9.5 -83.25 L 37.703125 -83.25 L 45.65625 0 L 29.859375 0 L 28.6875 -13.46875 L 18.609375 -13.46875 L 17.640625 0 Z M 19.875 -26.75 L 27.421875 -26.75 L 23.75 -69.109375 L 22.96875 -69.109375 Z M 19.875 -26.75 "/></g></g></g><g fill="#ffffff" fill-opacity="1"><g transform="translate(307.040504, 564.233893)"><g><path d="M 3.6875 0 L 3.6875 -83.25 L 29.078125 -83.25 L 36.0625 -32.46875 L 43.03125 -83.25 L 68.625 -83.25 L 68.625 0 L 53.40625 0 L 53.40625 -60 L 43.8125 0 L 28.875 0 L 18.703125 -60 L 18.703125 0 Z M 3.6875 0 "/></g></g></g><g clip-path="url(#4fc5b5a2d0)"><path fill="#000000" d="M 1052.199219 462.609375 C 1054.960938 466.519531 1054.039062 471.929688 1050.132812 474.695312 L 995.195312 513.585938 C 993.007812 515.140625 990.265625 515.574219 987.714844 514.816406 L 941.664062 501.09375 L 895.617188 514.816406 C 893.058594 515.574219 890.3125 515.121094 888.136719 513.585938 L 833.199219 474.695312 C 829.292969 471.933594 828.363281 466.519531 831.132812 462.609375 C 833.894531 458.683594 839.300781 457.761719 843.210938 460.527344 L 894.703125 496.980469 L 932.996094 485.5625 L 932.996094 416.574219 C 932.996094 411.769531 936.875 407.898438 941.660156 407.898438 C 946.453125 407.898438 950.332031 411.773438 950.332031 416.574219 L 950.332031 485.5625 L 988.625 496.980469 L 1040.113281 460.527344 C 1044.03125 457.761719 1049.4375 458.683594 1052.199219 462.609375 Z M 1001.828125 592.179688 C 1003.832031 596.53125 1001.929688 601.683594 997.582031 603.703125 L 967.5625 617.589844 C 964.195312 619.144531 960.179688 618.402344 957.597656 615.652344 L 941.660156 598.679688 L 925.734375 615.652344 C 923.175781 618.371094 919.164062 619.160156 915.769531 617.589844 L 885.746094 603.703125 C 881.398438 601.683594 879.5 596.53125 881.507812 592.179688 C 883.511719 587.828125 888.667969 585.929688 893.015625 587.945312 L 917.375 599.214844 L 935.34375 580.066406 C 938.769531 576.410156 944.5625 576.414062 947.988281 580.066406 L 965.957031 599.214844 L 990.316406 587.945312 C 994.660156 585.929688 999.8125 587.828125 1001.828125 592.179688 Z M 1001.828125 552.382812 C 999.8125 548.03125 994.660156 546.132812 990.3125 548.140625 L 965.953125 559.402344 L 947.988281 540.253906 C 944.578125 536.621094 938.75 536.617188 935.339844 540.253906 L 917.375 559.402344 L 893.015625 548.140625 C 888.667969 546.117188 883.507812 548.03125 881.507812 552.382812 C 879.5 556.726562 881.398438 561.886719 885.746094 563.890625 L 915.765625 577.78125 C 919.164062 579.347656 923.175781 578.574219 925.734375 575.851562 L 941.660156 558.867188 L 957.59375 575.851562 C 960.164062 578.59375 964.207031 579.34375 967.5625 577.78125 L 997.582031 563.890625 C 1001.933594 561.886719 1003.832031 556.726562 1001.828125 552.382812 Z M 941.664062 232.414062 C 972.246094 232.414062 997.125 257.320312 997.125 287.917969 C 997.125 318.519531 972.246094 343.421875 941.664062 343.421875 C 911.085938 343.421875 886.207031 318.519531 886.207031 287.917969 C 886.207031 257.320312 911.085938 232.414062 941.664062 232.414062 Z M 941.664062 360.773438 C 981.804688 360.773438 1014.46875 328.089844 1014.46875 287.917969 C 1014.46875 247.746094 981.804688 215.0625 941.664062 215.0625 C 901.523438 215.0625 868.863281 247.746094 868.863281 287.917969 C 868.863281 328.089844 901.519531 360.773438 941.664062 360.773438 Z M 1209.523438 419.523438 C 1213.476562 409.066406 1206.15625 384.847656 1187.765625 347.542969 C 1186.890625 345.769531 1185.976562 343.902344 1185.027344 341.972656 C 1168.757812 308.683594 1144.195312 258.398438 1107.449219 262.464844 C 1093.46875 264.015625 1067.398438 276.710938 1073.4375 294.097656 C 1076.441406 302.753906 1082.8125 308.097656 1104.109375 306.039062 C 1110.898438 305.386719 1117.890625 304.136719 1124.910156 302.328125 C 1129.425781 301.175781 1134.050781 303.792969 1135.378906 308.265625 C 1141.082031 327.5 1143.089844 347.027344 1139.925781 366.269531 C 1139.101562 371.289062 1134.15625 374.523438 1129.230469 373.269531 C 1118.261719 370.472656 1107.46875 370.511719 1096.78125 373.625 C 1089.839844 375.652344 1082.855469 374.8125 1076.609375 371.199219 C 1030.125 344.351562 1011.019531 393.847656 941.441406 393.902344 C 871.738281 393.957031 853.324219 344.269531 806.722656 371.199219 C 800.46875 374.8125 793.484375 375.652344 786.550781 373.625 C 775.898438 370.523438 765.03125 370.476562 754.097656 373.269531 C 749.183594 374.523438 744.222656 371.285156 743.40625 366.269531 C 740.261719 346.953125 742.226562 327.570312 747.945312 308.265625 C 749.273438 303.792969 753.898438 301.167969 758.421875 302.328125 C 765.441406 304.136719 772.433594 305.386719 779.214844 306.039062 C 800.515625 308.097656 806.882812 302.753906 809.894531 294.097656 C 815.933594 276.738281 789.894531 264.023438 775.878906 262.464844 C 739.171875 258.394531 714.570312 308.683594 698.300781 341.972656 C 697.359375 343.890625 696.449219 345.769531 695.566406 347.542969 C 677.175781 384.847656 669.855469 409.066406 673.816406 419.523438 C 678.886719 432.945312 708.054688 445.902344 733.011719 452.261719 C 754.339844 457.71875 776.675781 458.617188 799.398438 454.960938 C 803.292969 454.339844 807.121094 456.410156 808.714844 460.027344 C 818.027344 481.210938 829.660156 499.953125 845.257812 515.890625 C 846.429688 517.082031 847.226562 518.574219 847.5625 520.203125 L 871.816406 637.886719 C 918.058594 648.570312 965.011719 648.570312 1011.535156 637.886719 L 1035.78125 520.203125 C 1036.117188 518.574219 1036.910156 517.082031 1038.074219 515.890625 C 1053.828125 499.742188 1065.175781 481.445312 1074.621094 460.027344 C 1076.21875 456.417969 1080.03125 454.324219 1083.941406 454.960938 C 1106.65625 458.617188 1128.992188 457.71875 1150.328125 452.261719 C 1175.28125 445.902344 1204.445312 432.945312 1209.523438 419.523438 Z M 1203.316406 339.867188 C 1202.4375 338.097656 1201.546875 336.257812 1200.609375 334.347656 C 1183.324219 298.980469 1154.398438 239.761719 1105.542969 245.210938 C 1080.234375 248.023438 1046.671875 269.929688 1057.058594 299.800781 C 1066.550781 327.101562 1096.074219 324.25 1105.777344 323.316406 C 1110.722656 322.832031 1115.777344 322.085938 1120.839844 321.070312 C 1123.496094 332.324219 1124.609375 343.355469 1123.84375 354.570312 C 1112.996094 353.144531 1102.429688 353.910156 1091.9375 356.964844 C 1089.511719 357.671875 1087.453125 357.414062 1085.269531 356.160156 C 1072.210938 348.628906 1059.023438 345.199219 1046.027344 345.953125 C 1011.765625 347.949219 991 376.542969 941.238281 376.542969 C 891.527344 376.542969 871.765625 347.96875 837.300781 345.953125 C 824.324219 345.199219 811.113281 348.628906 798.066406 356.160156 C 795.878906 357.417969 793.820312 357.671875 791.394531 356.964844 C 780.941406 353.921875 770.296875 353.132812 759.488281 354.570312 C 758.707031 343.398438 759.847656 332.277344 762.492188 321.070312 C 767.554688 322.085938 772.601562 322.832031 777.558594 323.316406 C 787.253906 324.25 816.785156 327.101562 826.273438 299.800781 C 836.664062 269.921875 803.082031 248.015625 777.78125 245.210938 C 728.925781 239.777344 700.007812 298.980469 682.722656 334.347656 C 667.367188 365.71875 649.277344 403.667969 657.59375 425.664062 C 667.40625 451.621094 714.515625 465.46875 728.722656 469.085938 C 750.289062 474.59375 772.757812 475.917969 795.566406 473.035156 C 800.535156 483.628906 805.890625 493.164062 811.835938 502.027344 C 817.636719 510.714844 824.113281 518.820312 831.082031 526.175781 L 855.9375 646.796875 C 856.609375 650.074219 859.09375 652.660156 862.328125 653.464844 C 914.746094 666.503906 968.496094 666.542969 1020.984375 653.472656 C 1024.222656 652.664062 1026.71875 650.074219 1027.386719 646.796875 L 1052.25 526.175781 C 1059.21875 518.820312 1065.691406 510.710938 1071.492188 502.027344 C 1077.441406 493.164062 1082.789062 483.628906 1087.765625 473.035156 C 1110.566406 475.917969 1133.035156 474.585938 1154.609375 469.085938 C 1168.8125 465.46875 1215.921875 451.621094 1225.730469 425.664062 C 1233.34375 405.554688 1218.664062 371.007812 1203.316406 339.867188 Z M 1203.316406 339.867188 " fill-opacity="1" fill-rule="evenodd"/></g><g fill="#e32929" fill-opacity="1"><g transform="translate(876.031641, 164.679732)"><g><path d="M 1.234375 0 L 8.0625 -70.703125 L 32.015625 -70.703125 L 38.765625 0 L 25.359375 0 L 24.359375 -11.4375 L 15.796875 -11.4375 L 14.984375 0 Z M 16.875 -22.71875 L 23.296875 -22.71875 L 20.171875 -58.6875 L 19.515625 -58.6875 Z M 16.875 -22.71875 "/></g></g></g><g fill="#e32929" fill-opacity="1"><g transform="translate(915.948701, 164.679732)"><g><path d="M 3.125 -70.703125 L 22.3125 -70.703125 C 27.46875 -70.703125 31.210938 -69.441406 33.546875 -66.921875 C 35.878906 -64.398438 37.046875 -60.285156 37.046875 -54.578125 L 37.046875 -51.453125 C 37.046875 -44.703125 34.628906 -40.664062 29.796875 -39.34375 C 32.753906 -38.570312 34.835938 -36.785156 36.046875 -33.984375 C 37.253906 -31.191406 37.859375 -27.492188 37.859375 -22.890625 C 37.859375 -15.367188 36.734375 -9.671875 34.484375 -5.796875 C 32.234375 -1.929688 28.175781 0 22.3125 0 L 3.125 0 Z M 19.84375 -44.125 C 21.039062 -44.125 21.859375 -44.570312 22.296875 -45.46875 C 22.742188 -46.375 22.96875 -47.65625 22.96875 -49.3125 L 22.96875 -56.390625 C 22.96875 -58.691406 21.953125 -59.84375 19.921875 -59.84375 L 16.953125 -59.84375 L 16.953125 -44.125 Z M 18.359375 -12.421875 C 22.035156 -12.421875 23.875 -14.179688 23.875 -17.703125 L 23.875 -26.5 C 23.875 -28.644531 23.554688 -30.265625 22.921875 -31.359375 C 22.296875 -32.453125 21.1875 -33 19.59375 -33 L 16.953125 -33 L 16.953125 -12.515625 Z M 18.359375 -12.421875 "/></g></g></g><g fill="#e32929" fill-opacity="1"><g transform="translate(65.536192, 179.554374)"><g><path d="M 1.78125 0 L 11.65625 -102.234375 L 46.296875 -102.234375 L 56.0625 0 L 36.65625 0 L 35.234375 -16.546875 L 22.84375 -16.546875 L 21.65625 0 Z M 24.390625 -32.84375 L 33.6875 -32.84375 L 29.15625 -84.859375 L 28.203125 -84.859375 Z M 24.390625 -32.84375 "/></g></g></g></svg>