<svg xmlns="http://www.w3.org/2000/svg" xmlns:xlink="http://www.w3.org/1999/xlink" width="1366" zoomAndPan="magnify" viewBox="0 0 1024.5 651.000003" height="868" preserveAspectRatio="xMidYMid meet" version="1.0"><defs><g/><clipPath id="3c63b621dd"><path d="M 0.535156 0 L 1023.464844 0 L 1023.464844 650 L 0.535156 650 Z M 0.535156 0 " clip-rule="nonzero"/></clipPath><linearGradient x1="0" gradientTransform="matrix(0.74885, 0, 0, 0.74885, 0.536041, 0.0000199693)" y1="434" x2="1365.999943" gradientUnits="userSpaceOnUse" y2="434" id="7790a85fe7"><stop stop-opacity="1" stop-color="rgb(100%, 19.198608%, 19.198608%)" offset="0"/><stop stop-opacity="1" stop-color="rgb(100%, 19.345093%, 19.241333%)" offset="0.0078125"/><stop stop-opacity="1" stop-color="rgb(100%, 19.639587%, 19.328308%)" offset="0.015625"/><stop stop-opacity="1" stop-color="rgb(100%, 19.934082%, 19.413757%)" offset="0.0234375"/><stop stop-opacity="1" stop-color="rgb(100%, 20.230103%, 19.499207%)" offset="0.03125"/><stop stop-opacity="1" stop-color="rgb(100%, 20.524597%, 19.586182%)" offset="0.0390625"/><stop stop-opacity="1" stop-color="rgb(100%, 20.819092%, 19.671631%)" offset="0.046875"/><stop stop-opacity="1" stop-color="rgb(100%, 21.113586%, 19.75708%)" offset="0.0546875"/><stop stop-opacity="1" stop-color="rgb(100%, 21.408081%, 19.844055%)" offset="0.0625"/><stop stop-opacity="1" stop-color="rgb(100%, 21.702576%, 19.929504%)" offset="0.0703125"/><stop stop-opacity="1" stop-color="rgb(100%, 21.99707%, 20.014954%)" offset="0.078125"/><stop stop-opacity="1" stop-color="rgb(100%, 22.291565%, 20.101929%)" offset="0.0859375"/><stop stop-opacity="1" stop-color="rgb(100%, 22.58606%, 20.187378%)" offset="0.09375"/><stop stop-opacity="1" stop-color="rgb(100%, 22.880554%, 20.272827%)" offset="0.101562"/><stop stop-opacity="1" stop-color="rgb(100%, 23.175049%, 20.359802%)" offset="0.109375"/><stop stop-opacity="1" stop-color="rgb(100%, 23.469543%, 20.445251%)" offset="0.117188"/><stop stop-opacity="1" stop-color="rgb(100%, 23.764038%, 20.530701%)" offset="0.125"/><stop stop-opacity="1" stop-color="rgb(100%, 24.058533%, 20.617676%)" offset="0.132812"/><stop stop-opacity="1" stop-color="rgb(100%, 24.353027%, 20.703125%)" offset="0.140625"/><stop stop-opacity="1" stop-color="rgb(100%, 24.647522%, 20.788574%)" offset="0.148438"/><stop stop-opacity="1" stop-color="rgb(100%, 24.942017%, 20.874023%)" offset="0.15625"/><stop stop-opacity="1" stop-color="rgb(100%, 25.236511%, 20.960999%)" offset="0.164062"/><stop stop-opacity="1" stop-color="rgb(100%, 25.531006%, 21.046448%)" offset="0.171875"/><stop stop-opacity="1" stop-color="rgb(100%, 25.8255%, 21.131897%)" offset="0.179688"/><stop stop-opacity="1" stop-color="rgb(100%, 26.119995%, 21.218872%)" offset="0.1875"/><stop stop-opacity="1" stop-color="rgb(100%, 26.41449%, 21.304321%)" offset="0.195312"/><stop stop-opacity="1" stop-color="rgb(100%, 26.708984%, 21.389771%)" offset="0.203125"/><stop stop-opacity="1" stop-color="rgb(100%, 27.003479%, 21.476746%)" offset="0.210938"/><stop stop-opacity="1" stop-color="rgb(100%, 27.297974%, 21.562195%)" offset="0.21875"/><stop stop-opacity="1" stop-color="rgb(100%, 27.592468%, 21.647644%)" offset="0.226562"/><stop stop-opacity="1" stop-color="rgb(100%, 27.886963%, 21.734619%)" offset="0.234375"/><stop stop-opacity="1" stop-color="rgb(100%, 28.181458%, 21.820068%)" offset="0.242188"/><stop stop-opacity="1" stop-color="rgb(100%, 28.475952%, 21.905518%)" offset="0.25"/><stop stop-opacity="1" stop-color="rgb(100%, 28.770447%, 21.992493%)" offset="0.257812"/><stop stop-opacity="1" stop-color="rgb(100%, 29.064941%, 22.077942%)" offset="0.265625"/><stop stop-opacity="1" stop-color="rgb(100%, 29.359436%, 22.163391%)" offset="0.273438"/><stop stop-opacity="1" stop-color="rgb(100%, 29.653931%, 22.250366%)" offset="0.28125"/><stop stop-opacity="1" stop-color="rgb(100%, 29.948425%, 22.335815%)" offset="0.289062"/><stop stop-opacity="1" stop-color="rgb(100%, 30.24292%, 22.421265%)" offset="0.296875"/><stop stop-opacity="1" stop-color="rgb(100%, 30.537415%, 22.50824%)" offset="0.304688"/><stop stop-opacity="1" stop-color="rgb(100%, 30.831909%, 22.593689%)" offset="0.3125"/><stop stop-opacity="1" stop-color="rgb(100%, 31.126404%, 22.679138%)" offset="0.320312"/><stop stop-opacity="1" stop-color="rgb(100%, 31.420898%, 22.766113%)" offset="0.328125"/><stop stop-opacity="1" stop-color="rgb(100%, 31.715393%, 22.851562%)" offset="0.335938"/><stop stop-opacity="1" stop-color="rgb(100%, 32.009888%, 22.937012%)" offset="0.34375"/><stop stop-opacity="1" stop-color="rgb(100%, 32.304382%, 23.022461%)" offset="0.351562"/><stop stop-opacity="1" stop-color="rgb(100%, 32.600403%, 23.109436%)" offset="0.359375"/><stop stop-opacity="1" stop-color="rgb(100%, 32.894897%, 23.194885%)" offset="0.367188"/><stop stop-opacity="1" stop-color="rgb(100%, 33.189392%, 23.280334%)" offset="0.375"/><stop stop-opacity="1" stop-color="rgb(100%, 33.483887%, 23.36731%)" offset="0.382812"/><stop stop-opacity="1" stop-color="rgb(100%, 33.778381%, 23.452759%)" offset="0.390625"/><stop stop-opacity="1" stop-color="rgb(100%, 34.072876%, 23.538208%)" offset="0.398438"/><stop stop-opacity="1" stop-color="rgb(100%, 34.367371%, 23.625183%)" offset="0.40625"/><stop stop-opacity="1" stop-color="rgb(100%, 34.661865%, 23.710632%)" offset="0.414062"/><stop stop-opacity="1" stop-color="rgb(100%, 34.95636%, 23.796082%)" offset="0.421875"/><stop stop-opacity="1" stop-color="rgb(100%, 35.250854%, 23.883057%)" offset="0.429688"/><stop stop-opacity="1" stop-color="rgb(100%, 35.545349%, 23.968506%)" offset="0.4375"/><stop stop-opacity="1" stop-color="rgb(100%, 35.839844%, 24.053955%)" offset="0.445312"/><stop stop-opacity="1" stop-color="rgb(100%, 36.134338%, 24.14093%)" offset="0.453125"/><stop stop-opacity="1" stop-color="rgb(100%, 36.428833%, 24.226379%)" offset="0.460938"/><stop stop-opacity="1" stop-color="rgb(100%, 36.723328%, 24.311829%)" offset="0.46875"/><stop stop-opacity="1" stop-color="rgb(100%, 37.017822%, 24.398804%)" offset="0.476562"/><stop stop-opacity="1" stop-color="rgb(100%, 37.312317%, 24.484253%)" offset="0.484375"/><stop stop-opacity="1" stop-color="rgb(100%, 37.606812%, 24.569702%)" offset="0.492188"/><stop stop-opacity="1" stop-color="rgb(100%, 37.901306%, 24.656677%)" offset="0.5"/><stop stop-opacity="1" stop-color="rgb(100%, 38.195801%, 24.742126%)" offset="0.507812"/><stop stop-opacity="1" stop-color="rgb(100%, 38.490295%, 24.827576%)" offset="0.515625"/><stop stop-opacity="1" stop-color="rgb(100%, 38.78479%, 24.914551%)" offset="0.523438"/><stop stop-opacity="1" stop-color="rgb(100%, 39.079285%, 25%)" offset="0.53125"/><stop stop-opacity="1" stop-color="rgb(100%, 39.373779%, 25.085449%)" offset="0.539062"/><stop stop-opacity="1" stop-color="rgb(100%, 39.668274%, 25.170898%)" offset="0.546875"/><stop stop-opacity="1" stop-color="rgb(100%, 39.962769%, 25.257874%)" offset="0.554688"/><stop stop-opacity="1" stop-color="rgb(100%, 40.257263%, 25.343323%)" offset="0.5625"/><stop stop-opacity="1" stop-color="rgb(100%, 40.551758%, 25.428772%)" offset="0.570312"/><stop stop-opacity="1" stop-color="rgb(100%, 40.846252%, 25.515747%)" offset="0.578125"/><stop stop-opacity="1" stop-color="rgb(100%, 41.140747%, 25.601196%)" offset="0.585938"/><stop stop-opacity="1" stop-color="rgb(100%, 41.435242%, 25.686646%)" offset="0.59375"/><stop stop-opacity="1" stop-color="rgb(100%, 41.729736%, 25.773621%)" offset="0.601562"/><stop stop-opacity="1" stop-color="rgb(100%, 42.024231%, 25.85907%)" offset="0.609375"/><stop stop-opacity="1" stop-color="rgb(100%, 42.318726%, 25.944519%)" offset="0.617188"/><stop stop-opacity="1" stop-color="rgb(100%, 42.61322%, 26.031494%)" offset="0.625"/><stop stop-opacity="1" stop-color="rgb(100%, 42.907715%, 26.116943%)" offset="0.632812"/><stop stop-opacity="1" stop-color="rgb(100%, 43.202209%, 26.202393%)" offset="0.640625"/><stop stop-opacity="1" stop-color="rgb(100%, 43.496704%, 26.289368%)" offset="0.648438"/><stop stop-opacity="1" stop-color="rgb(100%, 43.791199%, 26.374817%)" offset="0.65625"/><stop stop-opacity="1" stop-color="rgb(100%, 44.085693%, 26.460266%)" offset="0.664062"/><stop stop-opacity="1" stop-color="rgb(100%, 44.380188%, 26.547241%)" offset="0.671875"/><stop stop-opacity="1" stop-color="rgb(100%, 44.674683%, 26.63269%)" offset="0.679688"/><stop stop-opacity="1" stop-color="rgb(100%, 44.970703%, 26.71814%)" offset="0.6875"/><stop stop-opacity="1" stop-color="rgb(100%, 45.265198%, 26.805115%)" offset="0.695312"/><stop stop-opacity="1" stop-color="rgb(100%, 45.559692%, 26.890564%)" offset="0.703125"/><stop stop-opacity="1" stop-color="rgb(100%, 45.854187%, 26.976013%)" offset="0.710938"/><stop stop-opacity="1" stop-color="rgb(100%, 46.148682%, 27.062988%)" offset="0.71875"/><stop stop-opacity="1" stop-color="rgb(100%, 46.443176%, 27.148438%)" offset="0.726562"/><stop stop-opacity="1" stop-color="rgb(100%, 46.737671%, 27.233887%)" offset="0.734375"/><stop stop-opacity="1" stop-color="rgb(100%, 47.032166%, 27.319336%)" offset="0.742188"/><stop stop-opacity="1" stop-color="rgb(100%, 47.32666%, 27.406311%)" offset="0.75"/><stop stop-opacity="1" stop-color="rgb(100%, 47.621155%, 27.49176%)" offset="0.757812"/><stop stop-opacity="1" stop-color="rgb(100%, 47.915649%, 27.577209%)" offset="0.765625"/><stop stop-opacity="1" stop-color="rgb(100%, 48.210144%, 27.664185%)" offset="0.773438"/><stop stop-opacity="1" stop-color="rgb(100%, 48.504639%, 27.749634%)" offset="0.78125"/><stop stop-opacity="1" stop-color="rgb(100%, 48.799133%, 27.835083%)" offset="0.789062"/><stop stop-opacity="1" stop-color="rgb(100%, 49.093628%, 27.922058%)" offset="0.796875"/><stop stop-opacity="1" stop-color="rgb(100%, 49.388123%, 28.007507%)" offset="0.804688"/><stop stop-opacity="1" stop-color="rgb(100%, 49.682617%, 28.092957%)" offset="0.8125"/><stop stop-opacity="1" stop-color="rgb(100%, 49.977112%, 28.179932%)" offset="0.820312"/><stop stop-opacity="1" stop-color="rgb(100%, 50.271606%, 28.265381%)" offset="0.828125"/><stop stop-opacity="1" stop-color="rgb(100%, 50.566101%, 28.35083%)" offset="0.835938"/><stop stop-opacity="1" stop-color="rgb(100%, 50.860596%, 28.437805%)" offset="0.84375"/><stop stop-opacity="1" stop-color="rgb(100%, 51.15509%, 28.523254%)" offset="0.851562"/><stop stop-opacity="1" stop-color="rgb(100%, 51.449585%, 28.608704%)" offset="0.859375"/><stop stop-opacity="1" stop-color="rgb(100%, 51.74408%, 28.695679%)" offset="0.867188"/><stop stop-opacity="1" stop-color="rgb(100%, 52.038574%, 28.781128%)" offset="0.875"/><stop stop-opacity="1" stop-color="rgb(100%, 52.333069%, 28.866577%)" offset="0.882812"/><stop stop-opacity="1" stop-color="rgb(100%, 52.627563%, 28.953552%)" offset="0.890625"/><stop stop-opacity="1" stop-color="rgb(100%, 52.922058%, 29.039001%)" offset="0.898438"/><stop stop-opacity="1" stop-color="rgb(100%, 53.216553%, 29.124451%)" offset="0.90625"/><stop stop-opacity="1" stop-color="rgb(100%, 53.511047%, 29.211426%)" offset="0.914062"/><stop stop-opacity="1" stop-color="rgb(100%, 53.805542%, 29.296875%)" offset="0.921875"/><stop stop-opacity="1" stop-color="rgb(100%, 54.100037%, 29.382324%)" offset="0.929688"/><stop stop-opacity="1" stop-color="rgb(100%, 54.394531%, 29.467773%)" offset="0.9375"/><stop stop-opacity="1" stop-color="rgb(100%, 54.689026%, 29.554749%)" offset="0.945312"/><stop stop-opacity="1" stop-color="rgb(100%, 54.983521%, 29.640198%)" offset="0.953125"/><stop stop-opacity="1" stop-color="rgb(100%, 55.278015%, 29.725647%)" offset="0.960938"/><stop stop-opacity="1" stop-color="rgb(100%, 55.57251%, 29.812622%)" offset="0.96875"/><stop stop-opacity="1" stop-color="rgb(100%, 55.867004%, 29.898071%)" offset="0.976562"/><stop stop-opacity="1" stop-color="rgb(100%, 56.161499%, 29.983521%)" offset="0.984375"/><stop stop-opacity="1" stop-color="rgb(100%, 56.455994%, 30.070496%)" offset="0.992188"/><stop stop-opacity="1" stop-color="rgb(100%, 56.750488%, 30.155945%)" offset="1"/></linearGradient><clipPath id="62b75a981c"><path d="M 0.535156 0 L 776 0 L 776 262.410156 L 0.535156 262.410156 Z M 0.535156 0 " clip-rule="nonzero"/></clipPath><clipPath id="f5f03405a3"><path d="M 75 0 L 1023.464844 0 L 1023.464844 241 L 75 241 Z M 75 0 " clip-rule="nonzero"/></clipPath><clipPath id="7b62dc45f7"><path d="M 919 622 L 969 622 L 969 650 L 919 650 Z M 919 622 " clip-rule="nonzero"/></clipPath><clipPath id="826df7e6a1"><path d="M 989 554 L 1023.464844 554 L 1023.464844 602 L 989 602 Z M 989 554 " clip-rule="nonzero"/></clipPath><clipPath id="6d134922f3"><path d="M 976 578 L 1023.464844 578 L 1023.464844 650 L 976 650 Z M 976 578 " clip-rule="nonzero"/></clipPath><clipPath id="50cc39420d"><path d="M 835 598 L 897 598 L 897 650 L 835 650 Z M 835 598 " clip-rule="nonzero"/></clipPath><clipPath id="ff149c4ac2"><path d="M 737 607 L 805 607 L 805 650 L 737 650 Z M 737 607 " clip-rule="nonzero"/></clipPath><clipPath id="9755ec6ab1"><path d="M 776 595 L 860 595 L 860 650 L 776 650 Z M 776 595 " clip-rule="nonzero"/></clipPath><clipPath id="88c71b4a43"><path d="M 872 604 L 939 604 L 939 650 L 872 650 Z M 872 604 " clip-rule="nonzero"/></clipPath><clipPath id="36b3dbc013"><path d="M 976 505 L 1023.464844 505 L 1023.464844 571 L 976 571 Z M 976 505 " clip-rule="nonzero"/></clipPath><clipPath id="bfc89fbaae"><path d="M 713.601562 627 L 729 627 L 729 642 L 713.601562 642 Z M 713.601562 627 " clip-rule="nonzero"/></clipPath><clipPath id="b9dd26081a"><path d="M 965 437.304688 L 1023.464844 437.304688 L 1023.464844 535 L 965 535 Z M 965 437.304688 " clip-rule="nonzero"/></clipPath><clipPath id="5a5aa5b733"><path d="M 105 302 L 224 302 L 224 444.777344 L 105 444.777344 Z M 105 302 " clip-rule="nonzero"/></clipPath><clipPath id="46c61718b1"><path d="M 127 351 L 208 351 L 208 444.777344 L 127 444.777344 Z M 127 351 " clip-rule="nonzero"/></clipPath><clipPath id="442715de17"><path d="M 135 360 L 199 360 L 199 444.777344 L 135 444.777344 Z M 135 360 " clip-rule="nonzero"/></clipPath><clipPath id="94f38062ad"><path d="M 821 302 L 940 302 L 940 444.777344 L 821 444.777344 Z M 821 302 " clip-rule="nonzero"/></clipPath><clipPath id="c2c069805b"><path d="M 843 351 L 924 351 L 924 444.777344 L 843 444.777344 Z M 843 351 " clip-rule="nonzero"/></clipPath><clipPath id="bd94bbcd3a"><path d="M 851 360 L 915 360 L 915 444.777344 L 851 444.777344 Z M 851 360 " clip-rule="nonzero"/></clipPath></defs><g clip-path="url(#3c63b621dd)"><path fill="#ffffff" d="M 0.535156 0 L 1023.464844 0 L 1023.464844 650 L 0.535156 650 Z M 0.535156 0 " fill-opacity="1" fill-rule="nonzero"/><path fill="url(#7790a85fe7)" d="M 0.535156 0 L 0.535156 650 L 1023.464844 650 L 1023.464844 0 Z M 0.535156 0 " fill-rule="nonzero"/></g><g clip-path="url(#62b75a981c)"><path fill="#050505" d="M 0.535156 262.03125 C 171.277344 138.609375 330.648438 118.375 469.625 100.730469 C 589.628906 85.496094 693.980469 72.246094 775.433594 -6.359375 L 0.535156 -6.359375 Z M 0.535156 262.03125 " fill-opacity="1" fill-rule="evenodd"/></g><g clip-path="url(#f5f03405a3)"><path fill="#050505" d="M 807.269531 -6.359375 C 718.679688 92.078125 604.746094 106.542969 472.480469 123.335938 C 353.28125 138.46875 218.761719 155.550781 75.363281 240.261719 C 426.617188 71.460938 859.082031 213.949219 1023.476562 -6.359375 Z M 807.269531 -6.359375 " fill-opacity="1" fill-rule="evenodd"/></g><path fill="#002571" d="M 977.265625 605.242188 L 992.617188 620.59375 C 992.933594 620.910156 993.011719 621.226562 993.011719 621.617188 C 993.011719 622.011719 992.855469 622.328125 992.617188 622.640625 L 977.265625 637.996094 C 976.949219 638.308594 976.636719 638.386719 976.242188 638.386719 C 975.847656 638.386719 975.53125 638.230469 975.21875 637.996094 L 959.863281 622.640625 C 959.550781 622.328125 959.472656 622.011719 959.472656 621.617188 C 959.472656 621.226562 959.628906 620.910156 959.863281 620.59375 L 975.21875 605.242188 C 975.53125 604.925781 975.847656 604.847656 976.242188 604.847656 C 976.636719 604.847656 976.949219 605.007812 977.265625 605.242188 Z M 992.222656 620.910156 L 976.871094 605.558594 C 976.714844 605.398438 976.476562 605.242188 976.164062 605.242188 C 975.925781 605.242188 975.691406 605.320312 975.453125 605.558594 L 960.101562 620.910156 C 959.945312 621.066406 959.785156 621.304688 959.785156 621.617188 C 959.785156 621.855469 959.863281 622.089844 960.101562 622.328125 L 975.453125 637.679688 C 975.613281 637.835938 975.847656 637.996094 976.164062 637.996094 C 976.398438 637.996094 976.636719 637.917969 976.871094 637.679688 L 992.222656 622.328125 C 992.382812 622.167969 992.539062 621.933594 992.539062 621.617188 C 992.539062 621.382812 992.460938 621.144531 992.222656 620.910156 Z M 992.222656 620.910156 " fill-opacity="1" fill-rule="nonzero"/><g clip-path="url(#7b62dc45f7)"><path fill="#002571" d="M 945.929688 623.746094 L 967.503906 645.316406 C 968.054688 645.867188 968.289062 646.578125 968.289062 647.285156 C 968.289062 647.992188 968.054688 648.703125 967.503906 649.253906 L 945.929688 670.828125 C 945.378906 671.378906 944.667969 671.613281 943.960938 671.613281 C 943.253906 671.613281 942.542969 671.378906 941.992188 670.828125 L 920.421875 649.253906 C 919.871094 648.703125 919.632812 647.992188 919.632812 647.285156 C 919.632812 646.578125 919.871094 645.867188 920.421875 645.316406 L 941.992188 623.746094 C 942.542969 623.191406 943.253906 622.957031 943.960938 622.957031 C 944.667969 622.957031 945.378906 623.191406 945.929688 623.746094 Z M 966.007812 646.890625 L 944.433594 625.320312 C 944.355469 625.242188 944.199219 625.160156 944.039062 625.160156 C 943.882812 625.160156 943.726562 625.242188 943.644531 625.320312 L 922.074219 646.890625 C 921.996094 646.96875 921.917969 647.128906 921.917969 647.285156 C 921.917969 647.441406 921.996094 647.601562 922.074219 647.679688 L 943.644531 669.25 C 943.726562 669.332031 943.882812 669.410156 944.039062 669.410156 C 944.199219 669.410156 944.355469 669.332031 944.433594 669.25 L 966.007812 647.679688 C 966.085938 647.601562 966.164062 647.441406 966.164062 647.285156 C 966.164062 647.128906 966.085938 646.96875 966.007812 646.890625 Z M 966.007812 646.890625 " fill-opacity="1" fill-rule="nonzero"/></g><path fill="#002571" d="M 913.648438 575.875 L 932.546875 594.769531 C 932.859375 595.085938 933.015625 595.558594 933.015625 596.03125 C 933.015625 596.503906 932.859375 596.898438 932.546875 597.289062 L 913.648438 616.1875 C 913.335938 616.5 912.863281 616.660156 912.390625 616.660156 C 911.917969 616.660156 911.523438 616.5 911.128906 616.1875 L 892.234375 597.289062 C 891.917969 596.976562 891.761719 596.503906 891.761719 596.03125 C 891.761719 595.558594 891.917969 595.164062 892.234375 594.769531 L 911.128906 575.875 C 911.445312 575.558594 911.917969 575.402344 912.390625 575.402344 C 912.863281 575.402344 913.253906 575.558594 913.648438 575.875 Z M 932.230469 595.085938 L 913.335938 576.191406 C 913.097656 575.953125 912.785156 575.796875 912.46875 575.796875 C 912.152344 575.796875 911.839844 575.953125 911.601562 576.191406 L 892.707031 595.085938 C 892.46875 595.320312 892.3125 595.636719 892.3125 595.953125 C 892.3125 596.265625 892.46875 596.582031 892.707031 596.816406 L 911.601562 615.714844 C 911.839844 615.949219 912.152344 616.105469 912.46875 616.105469 C 912.785156 616.105469 913.097656 615.949219 913.335938 615.714844 L 932.230469 596.816406 C 932.464844 596.582031 932.625 596.265625 932.625 595.953125 C 932.625 595.636719 932.464844 595.320312 932.230469 595.085938 Z M 932.230469 595.085938 " fill-opacity="1" fill-rule="nonzero"/><path fill="#002571" d="M 875.304688 562.726562 L 902.941406 590.363281 C 903.492188 590.914062 903.730469 591.621094 903.730469 592.25 C 903.730469 592.960938 903.492188 593.667969 902.941406 594.140625 L 875.304688 621.777344 C 874.753906 622.328125 874.046875 622.5625 873.417969 622.5625 C 872.707031 622.5625 872 622.328125 871.527344 621.777344 L 843.890625 594.140625 C 843.339844 593.589844 843.105469 592.882812 843.105469 592.25 C 843.105469 591.542969 843.339844 590.835938 843.890625 590.363281 L 871.527344 562.726562 C 872.078125 562.175781 872.789062 561.941406 873.417969 561.941406 C 874.125 561.941406 874.835938 562.175781 875.304688 562.726562 Z M 902.234375 591.148438 L 874.597656 563.515625 C 874.28125 563.199219 873.890625 563.042969 873.417969 563.042969 C 873.023438 563.042969 872.550781 563.199219 872.234375 563.515625 L 844.601562 591.148438 C 844.285156 591.464844 844.128906 591.859375 844.128906 592.332031 C 844.128906 592.722656 844.285156 593.195312 844.601562 593.511719 L 872.234375 621.144531 C 872.550781 621.460938 872.945312 621.617188 873.417969 621.617188 C 873.8125 621.617188 874.28125 621.460938 874.597656 621.144531 L 902.234375 593.511719 C 902.546875 593.195312 902.707031 592.800781 902.707031 592.332031 C 902.707031 591.9375 902.546875 591.464844 902.234375 591.148438 Z M 902.234375 591.148438 " fill-opacity="1" fill-rule="nonzero"/><path fill="#002571" d="M 954.195312 562.410156 L 987.894531 596.109375 C 988.601562 596.816406 988.996094 597.761719 988.996094 598.785156 C 988.996094 599.730469 988.601562 600.675781 987.894531 601.464844 L 954.195312 635.160156 C 953.488281 635.871094 952.542969 636.261719 951.519531 636.261719 C 950.574219 636.261719 949.628906 635.871094 948.84375 635.160156 L 915.144531 601.464844 C 914.4375 600.753906 914.042969 599.808594 914.042969 598.785156 C 914.042969 597.839844 914.4375 596.898438 915.144531 596.1875 L 948.84375 562.492188 C 949.550781 561.78125 950.496094 561.386719 951.519531 561.386719 C 952.464844 561.386719 953.410156 561.78125 954.195312 562.492188 Z M 986.320312 597.605469 L 952.621094 563.90625 C 952.308594 563.59375 951.914062 563.433594 951.519531 563.433594 C 951.125 563.433594 950.730469 563.59375 950.417969 563.90625 L 916.71875 597.605469 C 916.40625 597.921875 916.246094 598.3125 916.246094 598.707031 C 916.246094 599.101562 916.40625 599.496094 916.71875 599.808594 L 950.417969 633.507812 C 950.730469 633.820312 951.125 633.980469 951.519531 633.980469 C 951.914062 633.980469 952.308594 633.820312 952.621094 633.507812 L 986.320312 599.808594 C 986.632812 599.496094 986.792969 599.101562 986.792969 598.707031 C 986.792969 598.3125 986.632812 597.921875 986.320312 597.605469 Z M 986.320312 597.605469 " fill-opacity="1" fill-rule="nonzero"/><g clip-path="url(#826df7e6a1)"><path fill="#002571" d="M 1014.585938 554.773438 L 1036.15625 576.347656 C 1036.550781 576.742188 1036.707031 577.214844 1036.707031 577.6875 C 1036.707031 578.160156 1036.550781 578.710938 1036.15625 579.023438 L 1014.585938 600.597656 C 1014.191406 600.992188 1013.71875 601.148438 1013.246094 601.148438 C 1012.773438 601.148438 1012.222656 600.992188 1011.90625 600.597656 L 990.335938 579.023438 C 989.941406 578.628906 989.785156 578.160156 989.785156 577.6875 C 989.785156 577.214844 989.941406 576.664062 990.335938 576.347656 L 1011.90625 554.773438 C 1012.300781 554.382812 1012.773438 554.222656 1013.246094 554.222656 C 1013.71875 554.222656 1014.269531 554.382812 1014.585938 554.773438 Z M 1035.84375 576.742188 L 1014.269531 555.167969 C 1013.953125 554.855469 1013.640625 554.773438 1013.246094 554.773438 C 1012.851562 554.773438 1012.539062 554.933594 1012.222656 555.167969 L 990.648438 576.742188 C 990.335938 577.054688 990.257812 577.371094 990.257812 577.765625 C 990.257812 578.160156 990.414062 578.472656 990.648438 578.789062 L 1012.222656 600.359375 C 1012.539062 600.675781 1012.851562 600.753906 1013.246094 600.753906 C 1013.640625 600.753906 1013.953125 600.597656 1014.269531 600.359375 L 1035.84375 578.789062 C 1036.15625 578.472656 1036.234375 578.160156 1036.234375 577.765625 C 1036.234375 577.371094 1036.078125 577.054688 1035.84375 576.742188 Z M 1035.84375 576.742188 " fill-opacity="1" fill-rule="nonzero"/></g><g clip-path="url(#6d134922f3)"><path fill="#002571" d="M 1023.007812 579.101562 L 1063.164062 619.257812 C 1063.871094 619.964844 1064.265625 620.910156 1064.265625 621.855469 C 1064.265625 622.800781 1063.871094 623.746094 1063.164062 624.453125 L 1023.007812 664.605469 C 1022.300781 665.316406 1021.355469 665.707031 1020.410156 665.707031 C 1019.464844 665.707031 1018.519531 665.316406 1017.8125 664.605469 L 977.660156 624.453125 C 976.949219 623.746094 976.554688 622.800781 976.554688 621.855469 C 976.554688 620.910156 976.949219 619.964844 977.660156 619.257812 L 1017.8125 579.101562 C 1018.519531 578.394531 1019.464844 578 1020.410156 578 C 1021.355469 578 1022.300781 578.394531 1023.007812 579.101562 Z M 1062.375 620.042969 L 1022.222656 579.890625 C 1021.75 579.417969 1021.039062 579.101562 1020.410156 579.101562 C 1019.703125 579.101562 1019.070312 579.339844 1018.597656 579.890625 L 978.445312 620.042969 C 977.972656 620.515625 977.660156 621.226562 977.660156 621.855469 C 977.660156 622.484375 977.894531 623.191406 978.445312 623.664062 L 1018.597656 663.820312 C 1019.070312 664.292969 1019.78125 664.605469 1020.410156 664.605469 C 1021.039062 664.605469 1021.75 664.371094 1022.222656 663.820312 L 1062.375 623.664062 C 1062.847656 623.191406 1063.164062 622.484375 1063.164062 621.855469 C 1063.164062 621.226562 1062.925781 620.515625 1062.375 620.042969 Z M 1062.375 620.042969 " fill-opacity="1" fill-rule="nonzero"/></g><g clip-path="url(#50cc39420d)"><path fill="#002571" d="M 867.589844 598.863281 L 895.539062 626.816406 C 896.011719 627.289062 896.25 627.917969 896.25 628.546875 C 896.25 629.175781 896.011719 629.808594 895.539062 630.277344 L 867.589844 658.230469 C 867.117188 658.703125 866.488281 658.9375 865.859375 658.9375 C 865.230469 658.9375 864.597656 658.703125 864.125 658.230469 L 836.175781 630.277344 C 835.703125 629.808594 835.46875 629.175781 835.46875 628.546875 C 835.46875 627.917969 835.703125 627.289062 836.175781 626.816406 L 864.125 598.863281 C 864.597656 598.394531 865.230469 598.15625 865.859375 598.15625 C 866.488281 598.15625 867.117188 598.394531 867.589844 598.863281 Z M 895.148438 627.128906 L 867.195312 599.179688 C 866.804688 598.785156 866.332031 598.628906 865.78125 598.628906 C 865.308594 598.628906 864.757812 598.785156 864.363281 599.179688 L 836.414062 627.128906 C 836.019531 627.523438 835.863281 627.996094 835.863281 628.46875 C 835.863281 628.941406 836.019531 629.492188 836.414062 629.808594 L 864.363281 657.757812 C 864.757812 658.152344 865.230469 658.308594 865.78125 658.308594 C 866.253906 658.308594 866.804688 658.152344 867.195312 657.757812 L 895.148438 629.808594 C 895.539062 629.414062 895.699219 628.941406 895.699219 628.46875 C 895.699219 627.996094 895.539062 627.445312 895.148438 627.050781 Z M 895.148438 627.128906 " fill-opacity="1" fill-rule="nonzero"/></g><path fill="#002571" d="M 878.140625 538.242188 L 896.40625 556.507812 C 896.722656 556.820312 896.878906 557.292969 896.878906 557.6875 C 896.878906 558.082031 896.722656 558.554688 896.40625 558.867188 L 878.140625 577.136719 C 877.824219 577.449219 877.355469 577.605469 876.960938 577.605469 C 876.566406 577.605469 876.09375 577.449219 875.777344 577.136719 L 857.511719 558.867188 C 857.199219 558.554688 857.039062 558.082031 857.039062 557.6875 C 857.039062 557.292969 857.199219 556.820312 857.511719 556.507812 L 875.777344 538.242188 C 876.09375 537.925781 876.566406 537.769531 876.960938 537.769531 C 877.355469 537.769531 877.824219 537.925781 878.140625 538.242188 Z M 896.09375 556.902344 L 877.824219 538.632812 C 877.589844 538.398438 877.273438 538.320312 876.960938 538.320312 C 876.644531 538.320312 876.332031 538.398438 876.09375 538.632812 L 857.828125 556.902344 C 857.59375 557.136719 857.511719 557.453125 857.511719 557.765625 C 857.511719 558.082031 857.59375 558.398438 857.828125 558.632812 L 876.09375 576.898438 C 876.332031 577.136719 876.644531 577.214844 876.960938 577.214844 C 877.273438 577.214844 877.589844 577.136719 877.824219 576.898438 L 896.09375 558.632812 C 896.328125 558.398438 896.40625 558.082031 896.40625 557.765625 C 896.40625 557.453125 896.328125 557.136719 896.09375 556.902344 Z M 896.09375 556.902344 " fill-opacity="1" fill-rule="nonzero"/><path fill="#002571" d="M 965.375 498.953125 L 978.132812 511.707031 C 978.367188 511.945312 978.523438 512.257812 978.523438 512.574219 C 978.523438 512.890625 978.367188 513.203125 978.132812 513.441406 L 965.375 526.195312 C 965.140625 526.429688 964.824219 526.589844 964.511719 526.589844 C 964.195312 526.589844 963.878906 526.429688 963.644531 526.195312 L 950.890625 513.441406 C 950.652344 513.203125 950.496094 512.890625 950.496094 512.574219 C 950.496094 512.257812 950.652344 511.945312 950.890625 511.707031 L 963.644531 498.953125 C 963.878906 498.71875 964.195312 498.558594 964.511719 498.558594 C 964.824219 498.558594 965.140625 498.71875 965.375 498.953125 Z M 977.816406 512.101562 L 965.0625 499.347656 C 964.902344 499.191406 964.746094 499.109375 964.511719 499.109375 C 964.351562 499.109375 964.117188 499.191406 963.960938 499.347656 L 951.203125 512.101562 C 951.046875 512.257812 950.96875 512.417969 950.96875 512.652344 C 950.96875 512.808594 951.046875 513.046875 951.203125 513.203125 L 963.960938 525.957031 C 964.117188 526.117188 964.273438 526.195312 964.511719 526.195312 C 964.667969 526.195312 964.902344 526.117188 965.0625 525.957031 L 977.816406 513.203125 C 977.972656 513.046875 978.050781 512.890625 978.050781 512.652344 C 978.050781 512.496094 977.972656 512.257812 977.816406 512.101562 Z M 977.816406 512.101562 " fill-opacity="1" fill-rule="nonzero"/><path fill="#002571" d="M 952.386719 528.636719 L 973.957031 550.207031 C 974.429688 550.679688 974.589844 551.230469 974.589844 551.78125 C 974.589844 552.335938 974.351562 552.964844 973.957031 553.359375 L 952.386719 574.929688 C 951.914062 575.402344 951.363281 575.558594 950.8125 575.558594 C 950.261719 575.558594 949.628906 575.324219 949.238281 574.929688 L 927.664062 553.359375 C 927.191406 552.886719 927.035156 552.335938 927.035156 551.78125 C 927.035156 551.230469 927.269531 550.601562 927.664062 550.207031 L 949.238281 528.636719 C 949.707031 528.164062 950.261719 528.003906 950.8125 528.003906 C 951.363281 528.003906 951.992188 528.242188 952.386719 528.636719 Z M 973.171875 550.996094 L 951.597656 529.421875 C 951.363281 529.1875 951.046875 529.109375 950.8125 529.109375 C 950.496094 529.109375 950.179688 529.1875 950.023438 529.421875 L 928.449219 550.996094 C 928.214844 551.230469 928.136719 551.546875 928.136719 551.78125 C 928.136719 552.097656 928.214844 552.335938 928.449219 552.570312 L 950.023438 574.144531 C 950.261719 574.378906 950.574219 574.457031 950.8125 574.457031 C 951.125 574.457031 951.363281 574.378906 951.597656 574.144531 L 973.171875 552.570312 C 973.40625 552.335938 973.484375 552.019531 973.484375 551.78125 C 973.484375 551.46875 973.40625 551.230469 973.171875 550.996094 Z M 973.171875 550.996094 " fill-opacity="1" fill-rule="nonzero"/><path fill="#002571" d="M 914.042969 519.976562 L 944.828125 550.757812 C 945.378906 551.3125 945.695312 552.097656 945.695312 552.886719 C 945.695312 553.671875 945.378906 554.382812 944.828125 555.011719 L 914.042969 585.796875 C 913.492188 586.347656 912.703125 586.660156 911.917969 586.660156 C 911.128906 586.660156 910.421875 586.347656 909.792969 585.796875 L 879.007812 555.011719 C 878.457031 554.460938 878.140625 553.671875 878.140625 552.886719 C 878.140625 552.097656 878.457031 551.390625 879.007812 550.757812 L 909.792969 519.976562 C 910.34375 519.425781 911.128906 519.109375 911.917969 519.109375 C 912.703125 519.109375 913.414062 519.425781 914.042969 519.976562 Z M 944.039062 551.546875 L 913.253906 520.761719 C 912.863281 520.367188 912.390625 520.210938 911.917969 520.210938 C 911.445312 520.210938 910.972656 520.367188 910.578125 520.761719 L 879.792969 551.546875 C 879.402344 551.941406 879.242188 552.414062 879.242188 552.886719 C 879.242188 553.359375 879.402344 553.828125 879.792969 554.222656 L 910.578125 585.007812 C 910.972656 585.402344 911.445312 585.558594 911.917969 585.558594 C 912.390625 585.558594 912.863281 585.402344 913.253906 585.007812 L 944.039062 554.222656 C 944.433594 553.828125 944.589844 553.359375 944.589844 552.886719 C 944.589844 552.414062 944.433594 551.941406 944.039062 551.546875 Z M 944.039062 551.546875 " fill-opacity="1" fill-rule="nonzero"/><g clip-path="url(#ff149c4ac2)"><path fill="#002571" d="M 773.113281 608.3125 L 803.738281 638.941406 C 804.289062 639.492188 804.605469 640.277344 804.605469 641.066406 C 804.605469 641.851562 804.289062 642.5625 803.738281 643.191406 L 773.113281 673.816406 C 772.5625 674.371094 771.773438 674.683594 770.984375 674.683594 C 770.199219 674.683594 769.492188 674.371094 768.9375 673.816406 L 738.3125 643.191406 C 737.761719 642.640625 737.445312 641.851562 737.445312 641.066406 C 737.445312 640.277344 737.761719 639.570312 738.3125 638.941406 L 768.9375 608.3125 C 769.492188 607.761719 770.277344 607.445312 770.984375 607.445312 C 771.773438 607.445312 772.480469 607.761719 773.035156 608.3125 Z M 802.953125 639.726562 L 772.324219 609.101562 C 771.929688 608.707031 771.457031 608.550781 770.984375 608.550781 C 770.515625 608.550781 770.042969 608.707031 769.648438 609.101562 L 739.019531 639.726562 C 738.628906 640.121094 738.46875 640.59375 738.46875 641.066406 C 738.46875 641.539062 738.628906 642.011719 739.019531 642.402344 L 769.648438 673.03125 C 770.042969 673.425781 770.515625 673.582031 770.984375 673.582031 C 771.457031 673.582031 771.929688 673.425781 772.324219 673.03125 L 802.953125 642.402344 C 803.34375 642.011719 803.503906 641.539062 803.503906 641.066406 C 803.503906 640.59375 803.34375 640.121094 802.953125 639.726562 Z M 802.953125 639.726562 " fill-opacity="1" fill-rule="nonzero"/></g><g clip-path="url(#9755ec6ab1)"><path fill="#002571" d="M 820.195312 596.1875 L 858.0625 634.058594 C 858.773438 634.765625 859.085938 635.632812 859.085938 636.578125 C 859.085938 637.445312 858.773438 638.386719 858.0625 639.097656 L 820.195312 676.96875 C 819.484375 677.675781 818.621094 677.992188 817.675781 677.992188 C 816.808594 677.992188 815.863281 677.675781 815.15625 676.96875 L 777.285156 639.097656 C 776.578125 638.386719 776.261719 637.523438 776.261719 636.578125 C 776.261719 635.710938 776.578125 634.765625 777.285156 634.058594 L 815.15625 596.1875 C 815.863281 595.480469 816.730469 595.164062 817.675781 595.164062 C 818.539062 595.164062 819.484375 595.480469 820.195312 596.1875 Z M 857.355469 634.847656 L 819.484375 596.976562 C 819.011719 596.503906 818.382812 596.265625 817.753906 596.265625 C 817.125 596.265625 816.492188 596.503906 816.019531 596.976562 L 778.152344 634.847656 C 777.679688 635.316406 777.441406 635.949219 777.441406 636.578125 C 777.441406 637.207031 777.679688 637.835938 778.152344 638.308594 L 816.019531 676.179688 C 816.492188 676.652344 817.125 676.890625 817.753906 676.890625 C 818.382812 676.890625 819.011719 676.652344 819.484375 676.179688 L 857.355469 638.308594 C 857.828125 637.835938 858.0625 637.207031 858.0625 636.578125 C 858.0625 635.949219 857.828125 635.316406 857.355469 634.847656 Z M 857.355469 634.847656 " fill-opacity="1" fill-rule="nonzero"/></g><path fill="#002571" d="M 981.988281 563.277344 L 997.65625 578.945312 C 997.972656 579.261719 998.050781 579.574219 998.050781 579.96875 C 998.050781 580.363281 997.894531 580.757812 997.65625 580.992188 L 981.988281 596.660156 C 981.675781 596.976562 981.359375 597.054688 980.964844 597.054688 C 980.570312 597.054688 980.179688 596.898438 979.941406 596.660156 L 964.273438 580.992188 C 963.960938 580.679688 963.878906 580.363281 963.878906 579.96875 C 963.878906 579.574219 964.039062 579.183594 964.273438 578.945312 L 979.941406 563.277344 C 980.257812 562.964844 980.570312 562.882812 980.964844 562.882812 C 981.359375 562.882812 981.753906 563.042969 981.988281 563.277344 Z M 997.34375 579.339844 L 981.675781 563.671875 C 981.515625 563.515625 981.203125 563.355469 980.964844 563.355469 C 980.730469 563.355469 980.492188 563.433594 980.257812 563.671875 L 964.589844 579.339844 C 964.433594 579.496094 964.273438 579.8125 964.273438 580.046875 C 964.273438 580.285156 964.351562 580.519531 964.589844 580.757812 L 980.257812 596.425781 C 980.414062 596.582031 980.730469 596.738281 980.964844 596.738281 C 981.203125 596.738281 981.4375 596.660156 981.675781 596.425781 L 997.34375 580.757812 C 997.5 580.597656 997.65625 580.285156 997.65625 580.046875 C 997.65625 579.8125 997.578125 579.574219 997.34375 579.339844 Z M 997.34375 579.339844 " fill-opacity="1" fill-rule="nonzero"/><g clip-path="url(#88c71b4a43)"><path fill="#002571" d="M 907.191406 604.925781 L 937.347656 635.082031 C 937.898438 635.632812 938.214844 636.421875 938.214844 637.128906 C 938.214844 637.835938 937.898438 638.625 937.347656 639.175781 L 907.191406 669.332031 C 906.640625 669.882812 905.855469 670.195312 905.144531 670.195312 C 904.4375 670.195312 903.648438 669.882812 903.097656 669.332031 L 872.945312 639.175781 C 872.394531 638.625 872.078125 637.835938 872.078125 637.128906 C 872.078125 636.421875 872.394531 635.632812 872.945312 635.082031 L 903.097656 604.925781 C 903.648438 604.375 904.4375 604.0625 905.144531 604.0625 C 905.855469 604.0625 906.640625 604.375 907.191406 604.925781 Z M 936.558594 635.871094 L 906.40625 605.714844 C 906.089844 605.398438 905.617188 605.164062 905.144531 605.164062 C 904.671875 605.164062 904.203125 605.320312 903.886719 605.714844 L 873.730469 635.871094 C 873.417969 636.183594 873.179688 636.65625 873.179688 637.128906 C 873.179688 637.601562 873.339844 638.074219 873.730469 638.386719 L 903.886719 668.542969 C 904.203125 668.859375 904.671875 669.09375 905.144531 669.09375 C 905.617188 669.09375 906.089844 668.9375 906.40625 668.542969 L 936.558594 638.386719 C 936.875 638.074219 937.113281 637.601562 937.113281 637.128906 C 937.113281 636.65625 936.953125 636.183594 936.558594 635.871094 Z M 936.558594 635.871094 " fill-opacity="1" fill-rule="nonzero"/></g><g clip-path="url(#36b3dbc013)"><path fill="#002571" d="M 1011.042969 506.667969 L 1040.09375 535.722656 C 1040.722656 536.351562 1041.117188 537.21875 1041.117188 538.082031 C 1041.117188 538.949219 1040.800781 539.816406 1040.09375 540.445312 L 1011.042969 569.496094 C 1010.410156 570.128906 1009.546875 570.519531 1008.679688 570.519531 C 1007.8125 570.519531 1006.945312 570.207031 1006.316406 569.496094 L 977.265625 540.445312 C 976.636719 539.816406 976.242188 538.949219 976.242188 538.082031 C 976.242188 537.21875 976.554688 536.351562 977.265625 535.722656 L 1006.316406 506.667969 C 1006.945312 506.039062 1007.8125 505.644531 1008.679688 505.644531 C 1009.546875 505.644531 1010.410156 505.960938 1011.042969 506.667969 Z M 1038.519531 537.296875 L 1009.464844 508.242188 C 1009.230469 508.007812 1008.914062 507.929688 1008.601562 507.929688 C 1008.285156 507.929688 1007.972656 508.007812 1007.734375 508.242188 L 978.683594 537.296875 C 978.445312 537.53125 978.367188 537.847656 978.367188 538.164062 C 978.367188 538.476562 978.445312 538.792969 978.683594 539.027344 L 1007.734375 568.082031 C 1007.972656 568.316406 1008.285156 568.394531 1008.601562 568.394531 C 1008.914062 568.394531 1009.230469 568.316406 1009.464844 568.082031 L 1038.519531 539.027344 C 1038.753906 538.792969 1038.832031 538.476562 1038.832031 538.164062 C 1038.832031 537.847656 1038.753906 537.53125 1038.519531 537.296875 Z M 1038.519531 537.296875 " fill-opacity="1" fill-rule="nonzero"/></g><path fill="#002571" d="M 817.753906 570.207031 L 839.324219 591.777344 C 839.878906 592.332031 840.113281 593.039062 840.113281 593.746094 C 840.113281 594.457031 839.878906 595.164062 839.324219 595.714844 L 817.753906 617.289062 C 817.203125 617.839844 816.492188 618.074219 815.785156 618.074219 C 815.078125 618.074219 814.367188 617.839844 813.816406 617.289062 L 792.242188 595.714844 C 791.691406 595.164062 791.457031 594.457031 791.457031 593.746094 C 791.457031 593.039062 791.691406 592.332031 792.242188 591.777344 L 813.816406 570.207031 C 814.367188 569.65625 815.078125 569.417969 815.785156 569.417969 C 816.492188 569.417969 817.203125 569.65625 817.753906 570.207031 Z M 837.828125 593.355469 L 816.257812 571.78125 C 816.179688 571.703125 816.019531 571.625 815.863281 571.625 C 815.707031 571.625 815.546875 571.703125 815.46875 571.78125 L 793.898438 593.355469 C 793.820312 593.433594 793.738281 593.589844 793.738281 593.746094 C 793.738281 593.90625 793.820312 594.0625 793.898438 594.140625 L 815.46875 615.714844 C 815.546875 615.792969 815.707031 615.871094 815.863281 615.871094 C 816.019531 615.871094 816.179688 615.792969 816.257812 615.714844 L 837.828125 594.140625 C 837.910156 594.0625 837.988281 593.90625 837.988281 593.746094 C 837.988281 593.589844 837.910156 593.433594 837.828125 593.355469 Z M 837.828125 593.355469 " fill-opacity="1" fill-rule="nonzero"/><path fill="#002571" d="M 837.359375 547.214844 L 845.152344 555.011719 C 845.46875 555.324219 845.625 555.796875 845.625 556.191406 C 845.625 556.664062 845.46875 557.058594 845.152344 557.371094 L 837.359375 565.167969 C 837.042969 565.484375 836.570312 565.640625 836.175781 565.640625 C 835.78125 565.640625 835.3125 565.484375 834.996094 565.167969 L 827.199219 557.371094 C 826.886719 557.058594 826.730469 556.585938 826.730469 556.191406 C 826.730469 555.71875 826.886719 555.324219 827.199219 555.011719 L 834.996094 547.214844 C 835.3125 546.902344 835.78125 546.746094 836.175781 546.746094 C 836.570312 546.746094 837.042969 546.902344 837.359375 547.214844 Z M 843.261719 556.191406 L 836.175781 549.105469 L 829.089844 556.191406 L 836.175781 563.277344 Z M 843.261719 556.191406 " fill-opacity="1" fill-rule="nonzero"/><g clip-path="url(#bfc89fbaae)"><path fill="#002571" d="M 721.464844 627.367188 L 727.917969 633.820312 C 728.078125 633.980469 728.15625 634.136719 728.15625 634.375 C 728.15625 634.53125 728.078125 634.765625 727.917969 634.925781 L 721.464844 641.378906 C 721.304688 641.539062 721.148438 641.617188 720.914062 641.617188 C 720.753906 641.617188 720.519531 641.539062 720.359375 641.378906 L 713.90625 634.925781 C 713.746094 634.765625 713.667969 634.609375 713.667969 634.375 C 713.667969 634.214844 713.746094 633.980469 713.90625 633.820312 L 720.359375 627.367188 C 720.519531 627.207031 720.675781 627.128906 720.914062 627.128906 C 721.070312 627.128906 721.304688 627.207031 721.464844 627.367188 Z M 727.527344 634.136719 L 721.070312 627.679688 C 720.992188 627.601562 720.992188 627.601562 720.914062 627.601562 C 720.832031 627.601562 720.753906 627.601562 720.753906 627.679688 L 714.300781 634.136719 C 714.21875 634.214844 714.21875 634.214844 714.21875 634.292969 C 714.21875 634.375 714.21875 634.453125 714.300781 634.453125 L 720.753906 640.90625 C 720.832031 640.988281 720.832031 640.988281 720.914062 640.988281 C 720.992188 640.988281 721.070312 640.988281 721.070312 640.90625 L 727.527344 634.453125 C 727.605469 634.375 727.605469 634.375 727.605469 634.292969 C 727.605469 634.214844 727.605469 634.136719 727.527344 634.136719 Z M 727.527344 634.136719 " fill-opacity="1" fill-rule="nonzero"/></g><path fill="#002571" d="M 763.269531 570.519531 L 772.640625 579.890625 C 773.035156 580.285156 773.191406 580.679688 773.191406 581.148438 C 773.191406 581.621094 773.035156 582.09375 772.640625 582.410156 L 763.269531 591.777344 C 762.875 592.171875 762.484375 592.332031 762.011719 592.332031 C 761.539062 592.332031 761.066406 592.171875 760.75 591.777344 L 751.382812 582.410156 C 750.988281 582.015625 750.832031 581.621094 750.832031 581.148438 C 750.832031 580.679688 750.988281 580.207031 751.382812 579.890625 L 760.75 570.519531 C 761.144531 570.128906 761.539062 569.96875 762.011719 569.96875 C 762.484375 569.96875 762.957031 570.128906 763.269531 570.519531 Z M 770.828125 581.148438 L 761.933594 572.253906 L 753.035156 581.148438 L 761.933594 590.046875 Z M 770.828125 581.148438 " fill-opacity="1" fill-rule="nonzero"/><path fill="#002571" d="M 915.855469 493.679688 L 935.773438 513.597656 C 936.089844 513.914062 936.324219 514.386719 936.324219 514.859375 C 936.324219 515.328125 936.167969 515.800781 935.773438 516.117188 L 915.855469 536.035156 C 915.539062 536.351562 915.066406 536.585938 914.59375 536.585938 C 914.121094 536.585938 913.648438 536.429688 913.335938 536.035156 L 893.414062 516.117188 C 893.101562 515.800781 892.863281 515.328125 892.863281 514.859375 C 892.863281 514.386719 893.019531 513.914062 893.414062 513.597656 L 913.335938 493.679688 C 913.648438 493.363281 914.121094 493.128906 914.59375 493.128906 C 915.066406 493.128906 915.539062 493.285156 915.855469 493.679688 Z M 935.378906 513.914062 L 915.460938 493.992188 C 915.222656 493.757812 914.832031 493.601562 914.515625 493.601562 C 914.199219 493.601562 913.808594 493.757812 913.570312 493.992188 L 893.652344 513.914062 C 893.414062 514.148438 893.257812 514.542969 893.257812 514.859375 C 893.257812 515.171875 893.414062 515.566406 893.652344 515.800781 L 913.570312 535.722656 C 913.808594 535.957031 914.199219 536.117188 914.515625 536.117188 C 914.832031 536.117188 915.222656 535.957031 915.460938 535.722656 L 935.378906 515.800781 C 935.617188 515.566406 935.773438 515.171875 935.773438 514.859375 C 935.773438 514.542969 935.617188 514.148438 935.378906 513.914062 Z M 935.378906 513.914062 " fill-opacity="1" fill-rule="nonzero"/><g clip-path="url(#b9dd26081a)"><path fill="#002571" d="M 1017.105469 438.488281 L 1061.824219 483.207031 C 1062.609375 483.996094 1063.003906 485.019531 1063.003906 486.042969 C 1063.003906 487.066406 1062.609375 488.089844 1061.824219 488.875 L 1017.105469 533.597656 C 1016.316406 534.382812 1015.292969 534.777344 1014.269531 534.777344 C 1013.246094 534.777344 1012.222656 534.382812 1011.433594 533.597656 L 966.714844 488.875 C 965.925781 488.089844 965.535156 487.066406 965.535156 486.042969 C 965.535156 485.019531 965.925781 483.996094 966.714844 483.207031 L 1011.433594 438.488281 C 1012.222656 437.699219 1013.246094 437.304688 1014.269531 437.304688 C 1015.292969 437.304688 1016.316406 437.699219 1017.105469 438.488281 Z M 1061.035156 483.914062 L 1016.316406 439.195312 C 1015.765625 438.644531 1014.976562 438.328125 1014.191406 438.328125 C 1013.402344 438.328125 1012.695312 438.644531 1012.066406 439.195312 L 967.34375 483.914062 C 966.792969 484.46875 966.480469 485.253906 966.480469 486.042969 C 966.480469 486.828125 966.792969 487.539062 967.34375 488.167969 L 1012.066406 532.886719 C 1012.617188 533.4375 1013.402344 533.753906 1014.191406 533.753906 C 1014.976562 533.753906 1015.6875 533.4375 1016.316406 532.886719 L 1061.035156 488.167969 C 1061.585938 487.617188 1061.902344 486.828125 1061.902344 486.042969 C 1061.902344 485.253906 1061.585938 484.546875 1061.035156 483.914062 Z M 1061.035156 483.914062 " fill-opacity="1" fill-rule="nonzero"/></g><path fill="#002571" d="M 943.410156 463.601562 L 951.203125 471.398438 C 951.519531 471.710938 951.675781 472.183594 951.675781 472.578125 C 951.675781 472.972656 951.519531 473.445312 951.203125 473.757812 L 943.410156 481.554688 C 943.09375 481.867188 942.621094 482.027344 942.230469 482.027344 C 941.757812 482.027344 941.363281 481.867188 941.046875 481.554688 L 933.253906 473.757812 C 932.9375 473.445312 932.78125 472.972656 932.78125 472.578125 C 932.78125 472.183594 932.9375 471.710938 933.253906 471.398438 L 941.046875 463.601562 C 941.363281 463.289062 941.835938 463.128906 942.230469 463.128906 C 942.703125 463.128906 943.09375 463.289062 943.410156 463.601562 Z M 949.316406 472.578125 L 942.230469 465.492188 L 935.144531 472.578125 L 942.230469 479.664062 Z M 949.316406 472.578125 " fill-opacity="1" fill-rule="nonzero"/><path fill="#002571" d="M 870.976562 499.820312 L 876.332031 505.171875 C 876.488281 505.332031 876.488281 505.488281 876.488281 505.644531 C 876.488281 505.804688 876.410156 505.960938 876.332031 506.117188 L 870.976562 511.472656 C 870.820312 511.628906 870.660156 511.628906 870.503906 511.628906 C 870.347656 511.628906 870.1875 511.550781 870.03125 511.472656 L 864.679688 506.117188 C 864.519531 505.960938 864.519531 505.804688 864.519531 505.644531 C 864.519531 505.488281 864.597656 505.332031 864.679688 505.171875 L 870.03125 499.820312 C 870.1875 499.664062 870.347656 499.664062 870.503906 499.664062 C 870.660156 499.664062 870.820312 499.742188 870.976562 499.820312 Z M 876.015625 505.488281 L 870.660156 500.132812 C 870.660156 500.132812 870.582031 500.054688 870.503906 500.054688 C 870.425781 500.054688 870.425781 500.054688 870.347656 500.132812 L 864.992188 505.488281 C 864.992188 505.488281 864.914062 505.566406 864.914062 505.644531 C 864.914062 505.722656 864.914062 505.722656 864.992188 505.804688 L 870.347656 511.15625 C 870.347656 511.15625 870.425781 511.234375 870.503906 511.234375 C 870.582031 511.234375 870.582031 511.234375 870.660156 511.15625 L 876.015625 505.804688 C 876.015625 505.804688 876.09375 505.722656 876.09375 505.644531 C 876.09375 505.566406 876.09375 505.566406 876.015625 505.488281 Z M 876.015625 505.488281 " fill-opacity="1" fill-rule="nonzero"/><path fill="#002571" d="M 990.097656 445.335938 L 1002.539062 457.777344 C 1002.773438 458.011719 1002.933594 458.328125 1002.933594 458.644531 C 1002.933594 458.957031 1002.773438 459.273438 1002.539062 459.507812 L 990.097656 471.949219 C 989.863281 472.183594 989.546875 472.34375 989.230469 472.34375 C 988.917969 472.34375 988.601562 472.183594 988.367188 471.949219 L 975.925781 459.507812 C 975.691406 459.273438 975.53125 458.957031 975.53125 458.644531 C 975.53125 458.328125 975.691406 458.011719 975.925781 457.777344 L 988.367188 445.335938 C 988.601562 445.101562 988.917969 444.941406 989.230469 444.941406 C 989.546875 444.941406 989.863281 445.101562 990.097656 445.335938 Z M 1002.222656 458.171875 L 989.785156 445.730469 C 989.625 445.574219 989.46875 445.496094 989.230469 445.496094 C 989.074219 445.496094 988.839844 445.574219 988.679688 445.730469 L 976.242188 458.171875 C 976.085938 458.328125 976.003906 458.484375 976.003906 458.722656 C 976.003906 458.878906 976.085938 459.113281 976.242188 459.273438 L 988.679688 471.710938 C 988.839844 471.871094 988.996094 471.949219 989.230469 471.949219 C 989.390625 471.949219 989.625 471.871094 989.785156 471.710938 L 1002.222656 459.273438 C 1002.378906 459.113281 1002.460938 458.957031 1002.460938 458.722656 C 1002.460938 458.5625 1002.378906 458.328125 1002.222656 458.171875 Z M 1002.222656 458.171875 " fill-opacity="1" fill-rule="nonzero"/><g clip-path="url(#5a5aa5b733)"><path stroke-linecap="butt" transform="matrix(0.747413, 0, 0, 0.748545, 32.471195, 212.611193)" fill="none" stroke-linejoin="miter" d="M 217.794778 300.283126 C 221.056026 296.578023 224.291142 292.961634 227.4949 289.433958 C 231.749156 284.721693 234.790896 280.745231 236.614896 277.509789 C 241.067753 269.624703 244.773242 259.474808 243.790686 250.38426 C 242.619982 239.649898 239.353508 229.740052 233.99649 220.665159 C 232.182943 217.596707 231.665534 217.800227 232.449488 221.275718 C 233.729946 226.901212 232.888502 232.432775 229.91993 237.865186 C 229.731781 238.230478 229.428652 238.39225 229.01577 238.360939 C 228.608114 238.32441 228.331117 238.110454 228.195232 237.719069 C 224.761514 228.007525 220.042112 220.686032 214.042252 215.754592 C 207.122553 210.05604 199.711576 206.956277 196.957285 197.777015 C 195.666375 193.518756 195.091475 188.660374 195.232587 183.191433 C 195.765675 162.688124 193.324966 142.372678 173.919496 131.153 C 173.720894 131.043413 173.517066 131.01732 173.297559 131.074723 C 172.733112 131.236495 172.670396 131.507855 173.119863 131.894021 C 178.942026 136.935048 181.617922 143.202413 181.152776 150.690896 C 180.065694 168.177938 158.104534 177.863391 147.076917 188.477728 C 131.110391 203.851297 125.01123 223.670989 128.768982 247.926367 C 128.80034 248.135106 128.727171 248.296878 128.544249 248.411684 C 128.366553 248.521271 128.188856 248.521271 128.01116 248.401247 C 118.321491 241.914707 114.751888 232.839814 111.480187 222.303753 C 110.842572 220.268556 110.419237 220.305085 110.215409 222.418559 C 108.5482 238.809727 110.361747 254.397252 115.661274 269.175916 C 117.626385 274.655294 120.793559 280.113798 125.168021 285.546209 C 129.971045 291.49003 135.422137 297.073776 141.526524 302.292231 " stroke="#f57621" stroke-width="2" stroke-opacity="1" stroke-miterlimit="4"/></g><g clip-path="url(#46c61718b1)"><path stroke-linecap="butt" transform="matrix(0.747413, 0, 0, 0.748545, 32.471195, 212.611193)" fill="none" stroke-linejoin="miter" d="M 200.114006 306.174762 C 211.559732 298.774993 218.505562 289.105196 220.946272 277.170589 C 222.493274 269.619485 222.738913 262.193623 221.677962 254.893005 C 221.082157 250.786081 220.366146 250.765207 219.535155 254.830383 C 218.531694 259.67311 216.190286 264.009646 212.510929 267.839992 C 211.18866 269.217664 210.592855 268.956741 210.723514 267.052005 C 211.653806 252.873463 206.976215 241.293711 196.690741 232.317969 C 187.999306 224.725117 174.321925 221.557514 172.4927 208.266109 C 172.058912 205.218532 173.28188 202.165736 174.980447 199.713062 C 176.78354 197.11949 176.417695 196.759416 173.877685 198.622405 C 167.386547 203.386854 164.961517 213.489783 165.332588 221.171349 C 165.614812 226.864683 165.698433 232.354498 165.58868 237.646011 C 165.395305 246.945298 156.656833 249.371879 152.256239 256.218492 C 150.379976 259.135609 148.937501 262.177968 147.939266 265.356007 C 147.056012 268.189628 146.115267 268.210502 145.127485 265.41341 C 144.134477 262.652847 143.611841 259.845319 143.564804 256.975168 C 143.543898 255.795797 143.287807 255.743613 142.801756 256.829052 C 137.821036 267.881739 136.138148 279.967681 142.984678 290.816849 C 146.852184 296.948534 153.385132 302.777548 162.583523 308.303892 " stroke="#fcc021" stroke-width="2" stroke-opacity="1" stroke-miterlimit="4"/></g><path fill="#ef5922" d="M 195.253906 437.386719 C 197.691406 434.613281 200.109375 431.90625 202.503906 429.265625 C 205.683594 425.738281 207.957031 422.761719 209.320312 420.339844 C 212.648438 414.4375 215.417969 406.839844 214.683594 400.035156 C 213.808594 392 211.367188 384.582031 207.363281 377.789062 C 206.007812 375.492188 205.621094 375.644531 206.207031 378.246094 C 207.164062 382.457031 206.535156 386.597656 204.316406 390.664062 C 204.175781 390.9375 203.949219 391.058594 203.640625 391.035156 C 203.335938 391.007812 203.128906 390.847656 203.027344 390.554688 C 200.460938 383.285156 196.933594 377.804688 192.449219 374.113281 C 187.277344 369.847656 181.738281 367.527344 179.679688 360.65625 C 178.714844 357.46875 178.285156 353.832031 178.390625 349.738281 C 178.789062 334.390625 176.964844 319.183594 162.460938 310.785156 C 162.3125 310.703125 162.160156 310.683594 161.996094 310.726562 C 161.574219 310.847656 161.527344 311.050781 161.863281 311.339844 C 166.214844 315.113281 168.214844 319.804688 167.867188 325.410156 C 167.054688 338.5 150.640625 345.75 142.398438 353.695312 C 130.464844 365.203125 125.90625 380.039062 128.714844 398.195312 C 128.738281 398.351562 128.683594 398.472656 128.546875 398.558594 C 128.414062 398.640625 128.28125 398.640625 128.148438 398.550781 C 120.90625 393.695312 118.238281 386.902344 115.792969 379.015625 C 115.316406 377.492188 115 377.519531 114.847656 379.101562 C 113.601562 391.371094 114.957031 403.039062 118.917969 414.101562 C 120.386719 418.203125 122.753906 422.289062 126.023438 426.355469 C 129.613281 430.804688 133.6875 434.984375 138.25 438.890625 C 133.613281 437.21875 129.453125 435.078125 125.769531 432.472656 C 112.917969 423.414062 104.054688 411.734375 99.175781 397.4375 C 97.089844 391.335938 95.71875 384.058594 95.058594 375.617188 C 94.078125 363.167969 94.757812 350.835938 97.09375 338.609375 C 97.472656 336.605469 97.828125 336.613281 98.160156 338.632812 C 98.511719 340.785156 98.871094 342.996094 99.242188 345.261719 C 100.632812 353.859375 104.945312 364.890625 112.34375 370.257812 C 112.59375 370.441406 112.855469 370.464844 113.136719 370.332031 C 113.414062 370.199219 113.5625 369.976562 113.578125 369.667969 C 113.71875 366.378906 113.800781 363.011719 113.824219 359.5625 C 113.96875 334.734375 127.894531 311.050781 150.050781 298.285156 C 160.171875 292.449219 170.59375 286.109375 176.84375 276.316406 C 183.605469 265.722656 181.269531 254.929688 174.261719 245.351562 C 173.308594 244.050781 173.511719 243.835938 174.875 244.703125 C 182.328125 249.460938 187.554688 259.242188 189.558594 267.296875 C 191.953125 276.964844 192.414062 286.980469 190.949219 297.339844 C 189.835938 305.179688 189.222656 313.035156 189.847656 320.621094 C 190.257812 325.542969 192.394531 330.402344 195.929688 333.976562 C 202.09375 340.191406 208.621094 345.117188 212.515625 353.304688 C 214.925781 358.359375 216.917969 364.261719 218.5 371.003906 C 218.535156 371.167969 218.605469 371.316406 218.714844 371.445312 C 218.820312 371.578125 218.949219 371.675781 219.101562 371.746094 C 219.253906 371.8125 219.414062 371.84375 219.582031 371.839844 C 219.75 371.832031 219.910156 371.789062 220.054688 371.707031 C 220.242188 371.609375 220.386719 371.476562 220.488281 371.304688 C 224.878906 364.339844 226.503906 357.070312 225.359375 349.492188 C 225.125 347.957031 225.304688 347.90625 225.90625 349.339844 C 231.089844 361.769531 233.34375 374.789062 232.667969 388.394531 C 232.550781 390.800781 232.121094 393.171875 231.378906 395.511719 C 225.328125 414.605469 213.285156 428.5625 195.253906 437.386719 Z M 195.253906 437.386719 " fill-opacity="1" fill-rule="nonzero"/><path fill="#fa921f" d="M 195.253906 437.386719 C 191.507812 439.5 187.101562 440.972656 182.039062 441.796875 C 190.59375 436.257812 195.785156 429.019531 197.609375 420.085938 C 198.765625 414.433594 198.949219 408.875 198.15625 403.410156 C 197.710938 400.335938 197.175781 400.320312 196.554688 403.363281 C 195.804688 406.988281 194.054688 410.234375 191.304688 413.101562 C 190.316406 414.132812 189.871094 413.9375 189.96875 412.511719 C 190.664062 401.898438 187.167969 393.230469 179.480469 386.511719 C 172.984375 380.828125 162.761719 378.457031 161.394531 368.507812 C 161.070312 366.226562 161.984375 363.941406 163.253906 362.105469 C 164.601562 360.164062 164.328125 359.894531 162.429688 361.289062 C 157.578125 364.855469 155.765625 372.417969 156.042969 378.167969 C 156.253906 382.429688 156.316406 386.539062 156.234375 390.5 C 156.089844 397.460938 149.558594 399.277344 146.269531 404.402344 C 144.867188 406.585938 143.789062 408.863281 143.042969 411.242188 C 142.382812 413.363281 141.679688 413.378906 140.941406 411.285156 C 140.199219 409.21875 139.808594 407.113281 139.773438 404.96875 C 139.757812 404.085938 139.566406 404.046875 139.203125 404.859375 C 135.480469 413.132812 134.222656 422.179688 139.339844 430.300781 C 142.230469 434.890625 147.113281 439.253906 153.988281 443.390625 C 147.882812 442.574219 142.636719 441.074219 138.25 438.890625 C 133.6875 434.984375 129.613281 430.804688 126.023438 426.355469 C 122.753906 422.289062 120.386719 418.203125 118.917969 414.101562 C 114.957031 403.039062 113.601562 391.371094 114.847656 379.101562 C 115 377.519531 115.316406 377.492188 115.792969 379.015625 C 118.238281 386.902344 120.90625 393.695312 128.148438 398.550781 C 128.28125 398.640625 128.414062 398.640625 128.546875 398.558594 C 128.683594 398.472656 128.738281 398.351562 128.714844 398.195312 C 125.90625 380.039062 130.464844 365.203125 142.398438 353.695312 C 150.640625 345.75 167.054688 338.5 167.867188 325.410156 C 168.214844 319.804688 166.214844 315.113281 161.863281 311.339844 C 161.527344 311.050781 161.574219 310.847656 161.996094 310.726562 C 162.160156 310.683594 162.3125 310.703125 162.460938 310.785156 C 176.964844 319.183594 178.789062 334.390625 178.390625 349.738281 C 178.285156 353.832031 178.714844 357.46875 179.679688 360.65625 C 181.738281 367.527344 187.277344 369.847656 192.449219 374.113281 C 196.933594 377.804688 200.460938 383.285156 203.027344 390.554688 C 203.128906 390.847656 203.335938 391.007812 203.640625 391.035156 C 203.949219 391.058594 204.175781 390.9375 204.316406 390.664062 C 206.535156 386.597656 207.164062 382.457031 206.207031 378.246094 C 205.621094 375.644531 206.007812 375.492188 207.363281 377.789062 C 211.367188 384.582031 213.808594 392 214.683594 400.035156 C 215.417969 406.839844 212.648438 414.4375 209.320312 420.339844 C 207.957031 422.761719 205.683594 425.738281 202.503906 429.265625 C 200.109375 431.90625 197.691406 434.613281 195.253906 437.386719 Z M 195.253906 437.386719 " fill-opacity="1" fill-rule="nonzero"/><g clip-path="url(#442715de17)"><path fill="#fdee23" d="M 182.039062 441.796875 C 179.570312 442.976562 176.152344 443.730469 171.78125 444.058594 C 164.886719 444.570312 158.953125 444.347656 153.988281 443.390625 C 147.113281 439.253906 142.230469 434.890625 139.339844 430.300781 C 134.222656 422.179688 135.480469 413.132812 139.203125 404.859375 C 139.566406 404.046875 139.757812 404.085938 139.773438 404.96875 C 139.808594 407.113281 140.199219 409.21875 140.941406 411.285156 C 141.679688 413.378906 142.382812 413.363281 143.042969 411.242188 C 143.789062 408.863281 144.867188 406.585938 146.269531 404.402344 C 149.558594 399.277344 156.089844 397.460938 156.234375 390.5 C 156.316406 386.539062 156.253906 382.429688 156.042969 378.167969 C 155.765625 372.417969 157.578125 364.855469 162.429688 361.289062 C 164.328125 359.894531 164.601562 360.164062 163.253906 362.105469 C 161.984375 363.941406 161.070312 366.226562 161.394531 368.507812 C 162.761719 378.457031 172.984375 380.828125 179.480469 386.511719 C 187.167969 393.230469 190.664062 401.898438 189.96875 412.511719 C 189.871094 413.9375 190.316406 414.132812 191.304688 413.101562 C 194.054688 410.234375 195.804688 406.988281 196.554688 403.363281 C 197.175781 400.320312 197.710938 400.335938 198.15625 403.410156 C 198.949219 408.875 198.765625 414.433594 197.609375 420.085938 C 195.785156 429.019531 190.59375 436.257812 182.039062 441.796875 Z M 182.039062 441.796875 " fill-opacity="1" fill-rule="nonzero"/></g><g clip-path="url(#94f38062ad)"><path stroke-linecap="butt" transform="matrix(0.747413, 0, 0, 0.748545, 748.466622, 212.611193)" fill="none" stroke-linejoin="miter" d="M 217.790444 300.283126 C 221.056918 296.578023 224.292034 292.961634 227.495792 289.433958 C 231.750048 284.721693 234.791789 280.745231 236.615788 277.509789 C 241.068646 269.624703 244.774134 259.474808 243.791579 250.38426 C 242.620875 239.649898 239.3544 229.740052 233.997383 220.665159 C 232.183836 217.596707 231.666427 217.800227 232.45038 221.275718 C 233.730838 226.901212 232.889394 232.432775 229.920823 237.865186 C 229.727447 238.230478 229.429545 238.39225 229.016663 238.360939 C 228.609007 238.32441 228.33201 238.110454 228.196124 237.719069 C 224.762407 228.007525 220.043005 220.686032 214.043145 215.754592 C 207.123446 210.05604 199.712469 206.956277 196.958178 197.777015 C 195.667267 193.518756 195.092368 188.660374 195.233479 183.191433 C 195.766568 162.688124 193.325859 142.372678 173.920388 131.153 C 173.721787 131.043413 173.512732 131.01732 173.298452 131.074723 C 172.728779 131.236495 172.671289 131.507855 173.115529 131.894021 C 178.942919 136.935048 181.618815 143.202413 181.153669 150.690896 C 180.066586 168.177938 158.1002 177.863391 147.072583 188.477728 C 131.111284 203.851297 125.012123 223.670989 128.769875 247.926367 C 128.801233 248.135106 128.722838 248.296878 128.545141 248.411684 C 128.367445 248.521271 128.189749 248.521271 128.012053 248.401247 C 118.322384 241.914707 114.752781 232.839814 111.475854 222.303753 C 110.843464 220.268556 110.420129 220.305085 110.211075 222.418559 C 108.543866 238.809727 110.362639 254.397252 115.662167 269.175916 C 117.622052 274.655294 120.794451 280.113798 125.168914 285.546209 C 129.971937 291.49003 135.42303 297.073776 141.52219 302.292231 " stroke="#f57621" stroke-width="2" stroke-opacity="1" stroke-miterlimit="4"/></g><g clip-path="url(#c2c069805b)"><path stroke-linecap="butt" transform="matrix(0.747413, 0, 0, 0.748545, 748.466622, 212.611193)" fill="none" stroke-linejoin="miter" d="M 200.114899 306.174762 C 211.560624 298.774993 218.506455 289.105196 220.947165 277.170589 C 222.494167 269.619485 222.739806 262.193623 221.678855 254.893005 C 221.08305 250.786081 220.367039 250.765207 219.530821 254.830383 C 218.532587 259.67311 216.191178 264.009646 212.511822 267.839992 C 211.189553 269.217664 210.593748 268.956741 210.724407 267.052005 C 211.654699 252.873463 206.977108 241.293711 196.691634 232.317969 C 188.000199 224.725117 174.322818 221.557514 172.493592 208.266109 C 172.059805 205.218532 173.282773 202.165736 174.976113 199.713062 C 176.784433 197.11949 176.418588 196.759416 173.878578 198.622405 C 167.38744 203.386854 164.962409 213.489783 165.333481 221.171349 C 165.610478 226.864683 165.699326 232.354498 165.589572 237.646011 C 165.396197 246.945298 156.657725 249.371879 152.251905 256.218492 C 150.380868 259.135609 148.938393 262.177968 147.940159 265.356007 C 147.056904 268.189628 146.11616 268.210502 145.123152 265.41341 C 144.13537 262.652847 143.612734 259.845319 143.56047 256.975168 C 143.544791 255.795797 143.2887 255.743613 142.802648 256.829052 C 137.816702 267.881739 136.139041 279.967681 142.980344 290.816849 C 146.853076 296.948534 153.386025 302.777548 162.57919 308.303892 " stroke="#fcc021" stroke-width="2" stroke-opacity="1" stroke-miterlimit="4"/></g><path fill="#ef5922" d="M 911.246094 437.386719 C 913.6875 434.613281 916.105469 431.90625 918.5 429.265625 C 921.679688 425.738281 923.953125 422.761719 925.316406 420.339844 C 928.644531 414.4375 931.414062 406.839844 930.679688 400.035156 C 929.804688 392 927.363281 384.582031 923.359375 377.789062 C 922.003906 375.492188 921.617188 375.644531 922.203125 378.246094 C 923.160156 382.457031 922.53125 386.597656 920.3125 390.664062 C 920.167969 390.9375 919.945312 391.058594 919.636719 391.035156 C 919.332031 391.007812 919.125 390.847656 919.023438 390.554688 C 916.457031 383.285156 912.929688 377.804688 908.445312 374.113281 C 903.273438 369.847656 897.734375 367.527344 895.675781 360.65625 C 894.710938 357.46875 894.28125 353.832031 894.386719 349.738281 C 894.785156 334.390625 892.960938 319.183594 878.457031 310.785156 C 878.308594 310.703125 878.152344 310.683594 877.992188 310.726562 C 877.566406 310.847656 877.523438 311.050781 877.855469 311.339844 C 882.210938 315.113281 884.210938 319.804688 883.863281 325.410156 C 883.050781 338.5 866.632812 345.75 858.390625 353.695312 C 846.460938 365.203125 841.902344 380.039062 844.710938 398.195312 C 844.734375 398.351562 844.675781 398.472656 844.542969 398.558594 C 844.410156 398.640625 844.277344 398.640625 844.144531 398.550781 C 836.902344 393.695312 834.234375 386.902344 831.785156 379.015625 C 831.3125 377.492188 830.996094 377.519531 830.839844 379.101562 C 829.59375 391.371094 830.953125 403.039062 834.914062 414.101562 C 836.378906 418.203125 838.75 422.289062 842.019531 426.355469 C 845.609375 430.804688 849.683594 434.984375 854.242188 438.890625 C 849.609375 437.21875 845.449219 435.078125 841.765625 432.472656 C 828.914062 423.414062 820.046875 411.734375 815.167969 397.4375 C 813.085938 391.335938 811.714844 384.058594 811.054688 375.617188 C 810.074219 363.167969 810.753906 350.835938 813.089844 338.609375 C 813.46875 336.605469 813.824219 336.613281 814.15625 338.632812 C 814.503906 340.785156 814.867188 342.996094 815.234375 345.261719 C 816.625 353.859375 820.941406 364.890625 828.339844 370.257812 C 828.589844 370.441406 828.851562 370.464844 829.132812 370.332031 C 829.410156 370.199219 829.558594 369.976562 829.574219 369.667969 C 829.714844 366.378906 829.796875 363.011719 829.816406 359.5625 C 829.960938 334.734375 843.886719 311.050781 866.042969 298.285156 C 876.167969 292.449219 886.589844 286.109375 892.839844 276.316406 C 899.601562 265.722656 897.265625 254.929688 890.257812 245.351562 C 889.300781 244.050781 889.507812 243.835938 890.871094 244.703125 C 898.324219 249.460938 903.550781 259.242188 905.550781 267.296875 C 907.949219 276.964844 908.410156 286.980469 906.941406 297.339844 C 905.832031 305.179688 905.21875 313.035156 905.84375 320.621094 C 906.253906 325.542969 908.390625 330.402344 911.925781 333.976562 C 918.089844 340.191406 924.617188 345.117188 928.511719 353.304688 C 930.917969 358.359375 932.914062 364.261719 934.492188 371.003906 C 934.53125 371.167969 934.601562 371.316406 934.707031 371.445312 C 934.816406 371.578125 934.945312 371.675781 935.097656 371.746094 C 935.25 371.8125 935.410156 371.84375 935.578125 371.839844 C 935.746094 371.832031 935.902344 371.789062 936.050781 371.707031 C 936.238281 371.609375 936.382812 371.476562 936.484375 371.304688 C 940.875 364.339844 942.5 357.070312 941.355469 349.492188 C 941.121094 347.957031 941.300781 347.90625 941.902344 349.339844 C 947.085938 361.769531 949.339844 374.789062 948.664062 388.394531 C 948.546875 390.800781 948.117188 393.171875 947.375 395.511719 C 941.324219 414.605469 929.28125 428.5625 911.246094 437.386719 Z M 911.246094 437.386719 " fill-opacity="1" fill-rule="nonzero"/><path fill="#fa921f" d="M 911.246094 437.386719 C 907.503906 439.5 903.097656 440.972656 898.035156 441.796875 C 906.589844 436.257812 911.78125 429.019531 913.605469 420.085938 C 914.761719 414.433594 914.945312 408.875 914.152344 403.410156 C 913.707031 400.335938 913.171875 400.320312 912.546875 403.363281 C 911.800781 406.988281 910.050781 410.234375 907.300781 413.101562 C 906.3125 414.132812 905.867188 413.9375 905.964844 412.511719 C 906.660156 401.898438 903.164062 393.230469 895.476562 386.511719 C 888.980469 380.828125 878.757812 378.457031 877.390625 368.507812 C 877.066406 366.226562 877.980469 363.941406 879.246094 362.105469 C 880.597656 360.164062 880.324219 359.894531 878.425781 361.289062 C 873.574219 364.855469 871.761719 372.417969 872.039062 378.167969 C 872.246094 382.429688 872.3125 386.539062 872.230469 390.5 C 872.085938 397.460938 865.554688 399.277344 862.261719 404.402344 C 860.863281 406.585938 859.785156 408.863281 859.039062 411.242188 C 858.378906 413.363281 857.675781 413.378906 856.933594 411.285156 C 856.195312 409.21875 855.804688 407.113281 855.765625 404.96875 C 855.753906 404.085938 855.5625 404.046875 855.199219 404.859375 C 851.472656 413.132812 850.21875 422.179688 855.332031 430.300781 C 858.226562 434.890625 863.109375 439.253906 869.980469 443.390625 C 863.878906 442.574219 858.632812 441.074219 854.242188 438.890625 C 849.683594 434.984375 845.609375 430.804688 842.019531 426.355469 C 838.75 422.289062 836.378906 418.203125 834.914062 414.101562 C 830.953125 403.039062 829.59375 391.371094 830.839844 379.101562 C 830.996094 377.519531 831.3125 377.492188 831.785156 379.015625 C 834.234375 386.902344 836.902344 393.695312 844.144531 398.550781 C 844.277344 398.640625 844.410156 398.640625 844.542969 398.558594 C 844.675781 398.472656 844.734375 398.351562 844.710938 398.195312 C 841.902344 380.039062 846.460938 365.203125 858.390625 353.695312 C 866.632812 345.75 883.050781 338.5 883.863281 325.410156 C 884.210938 319.804688 882.210938 315.113281 877.855469 311.339844 C 877.523438 311.050781 877.566406 310.847656 877.992188 310.726562 C 878.152344 310.683594 878.308594 310.703125 878.457031 310.785156 C 892.960938 319.183594 894.785156 334.390625 894.386719 349.738281 C 894.28125 353.832031 894.710938 357.46875 895.675781 360.65625 C 897.734375 367.527344 903.273438 369.847656 908.445312 374.113281 C 912.929688 377.804688 916.457031 383.285156 919.023438 390.554688 C 919.125 390.847656 919.332031 391.007812 919.636719 391.035156 C 919.945312 391.058594 920.167969 390.9375 920.3125 390.664062 C 922.53125 386.597656 923.160156 382.457031 922.203125 378.246094 C 921.617188 375.644531 922.003906 375.492188 923.359375 377.789062 C 927.363281 384.582031 929.804688 392 930.679688 400.035156 C 931.414062 406.839844 928.644531 414.4375 925.316406 420.339844 C 923.953125 422.761719 921.679688 425.738281 918.5 429.265625 C 916.105469 431.90625 913.6875 434.613281 911.246094 437.386719 Z M 911.246094 437.386719 " fill-opacity="1" fill-rule="nonzero"/><g clip-path="url(#bd94bbcd3a)"><path fill="#fdee23" d="M 898.035156 441.796875 C 895.5625 442.976562 892.144531 443.730469 887.777344 444.058594 C 880.882812 444.570312 874.949219 444.347656 869.980469 443.390625 C 863.109375 439.253906 858.226562 434.890625 855.332031 430.300781 C 850.21875 422.179688 851.472656 413.132812 855.199219 404.859375 C 855.5625 404.046875 855.753906 404.085938 855.765625 404.96875 C 855.804688 407.113281 856.195312 409.21875 856.933594 411.285156 C 857.675781 413.378906 858.378906 413.363281 859.039062 411.242188 C 859.785156 408.863281 860.863281 406.585938 862.261719 404.402344 C 865.554688 399.277344 872.085938 397.460938 872.230469 390.5 C 872.3125 386.539062 872.246094 382.429688 872.039062 378.167969 C 871.761719 372.417969 873.574219 364.855469 878.425781 361.289062 C 880.324219 359.894531 880.597656 360.164062 879.246094 362.105469 C 877.980469 363.941406 877.066406 366.226562 877.390625 368.507812 C 878.757812 378.457031 888.980469 380.828125 895.476562 386.511719 C 903.164062 393.230469 906.660156 401.898438 905.964844 412.511719 C 905.867188 413.9375 906.3125 414.132812 907.300781 413.101562 C 910.050781 410.234375 911.800781 406.988281 912.546875 403.363281 C 913.171875 400.320312 913.707031 400.335938 914.152344 403.410156 C 914.945312 408.875 914.761719 414.433594 913.605469 420.085938 C 911.78125 429.019531 906.589844 436.257812 898.035156 441.796875 Z M 898.035156 441.796875 " fill-opacity="1" fill-rule="nonzero"/></g><g fill="#ffffff" fill-opacity="1"><g transform="translate(116.060156, 230.297771)"><g><path d="M 1.1875 0 L 7.78125 -68.203125 L 30.890625 -68.203125 L 37.390625 0 L 24.453125 0 L 23.5 -11.03125 L 15.25 -11.03125 L 14.453125 0 Z M 16.28125 -21.90625 L 22.46875 -21.90625 L 19.453125 -56.609375 L 18.8125 -56.609375 Z M 16.28125 -21.90625 "/></g></g></g><g fill="#ffffff" fill-opacity="1"><g transform="translate(154.559493, 230.297771)"><g><path d="M 3.015625 0 L 3.015625 -68.203125 L 30.328125 -68.203125 L 30.328125 -55.015625 L 16.90625 -55.015625 L 16.90625 -41.765625 L 29.765625 -41.765625 L 29.765625 -28.890625 L 16.90625 -28.890625 L 16.90625 -13.265625 L 31.203125 -13.265625 L 31.203125 0 Z M 3.015625 0 "/></g></g></g><g fill="#ffffff" fill-opacity="1"><g transform="translate(187.264075, 230.297771)"><g><path d="M 3.015625 -68.203125 L 23.96875 -68.203125 C 27.3125 -68.203125 29.894531 -67.445312 31.71875 -65.9375 C 33.539062 -64.425781 34.769531 -62.304688 35.40625 -59.578125 C 36.039062 -56.859375 36.359375 -53.378906 36.359375 -49.140625 C 36.359375 -45.273438 35.851562 -42.257812 34.84375 -40.09375 C 33.84375 -37.925781 32.097656 -36.414062 29.609375 -35.5625 C 31.671875 -35.144531 33.164062 -34.113281 34.09375 -32.46875 C 35.019531 -30.832031 35.484375 -28.609375 35.484375 -25.796875 L 35.328125 0 L 21.984375 0 L 21.984375 -26.671875 C 21.984375 -28.578125 21.613281 -29.796875 20.875 -30.328125 C 20.132812 -30.859375 18.785156 -31.125 16.828125 -31.125 L 16.828125 0 L 3.015625 0 Z M 20.171875 -42.953125 C 22.066406 -42.953125 23.015625 -45.015625 23.015625 -49.140625 C 23.015625 -50.941406 22.9375 -52.289062 22.78125 -53.1875 C 22.625 -54.09375 22.332031 -54.71875 21.90625 -55.0625 C 21.488281 -55.40625 20.878906 -55.578125 20.078125 -55.578125 L 16.90625 -55.578125 L 16.90625 -42.953125 Z M 20.171875 -42.953125 "/></g></g></g><g fill="#ffffff" fill-opacity="1"><g transform="translate(225.128371, 230.297771)"><g><path d="M 19.296875 0.640625 C 13.785156 0.640625 9.601562 -1.039062 6.75 -4.40625 C 3.894531 -7.769531 2.46875 -12.492188 2.46875 -18.578125 L 2.46875 -51.046875 C 2.46875 -56.921875 3.894531 -61.351562 6.75 -64.34375 C 9.601562 -67.332031 13.785156 -68.828125 19.296875 -68.828125 C 24.796875 -68.828125 28.972656 -67.332031 31.828125 -64.34375 C 34.691406 -61.351562 36.125 -56.921875 36.125 -51.046875 L 36.125 -18.578125 C 36.125 -12.441406 34.691406 -7.703125 31.828125 -4.359375 C 28.972656 -1.023438 24.796875 0.640625 19.296875 0.640625 Z M 19.296875 -11.90625 C 20.515625 -11.90625 21.332031 -12.429688 21.75 -13.484375 C 22.175781 -14.546875 22.390625 -16.03125 22.390625 -17.9375 L 22.390625 -51.28125 C 22.390625 -52.769531 22.191406 -53.972656 21.796875 -54.890625 C 21.398438 -55.816406 20.59375 -56.28125 19.375 -56.28125 C 17.09375 -56.28125 15.953125 -54.5625 15.953125 -51.125 L 15.953125 -17.859375 C 15.953125 -15.898438 16.191406 -14.414062 16.671875 -13.40625 C 17.148438 -12.40625 18.023438 -11.90625 19.296875 -11.90625 Z M 19.296875 -11.90625 "/></g></g></g><g fill="#ffffff" fill-opacity="1"><g transform="translate(263.707098, 230.297771)"><g><path d="M 3.015625 -68.203125 L 21.515625 -68.203125 C 26.492188 -68.203125 30.101562 -66.984375 32.34375 -64.546875 C 34.59375 -62.109375 35.71875 -58.140625 35.71875 -52.640625 L 35.71875 -49.625 C 35.71875 -43.113281 33.390625 -39.222656 28.734375 -37.953125 C 31.597656 -37.210938 33.609375 -35.488281 34.765625 -32.78125 C 35.929688 -30.082031 36.515625 -26.515625 36.515625 -22.078125 C 36.515625 -14.816406 35.429688 -9.320312 33.265625 -5.59375 C 31.097656 -1.863281 27.179688 0 21.515625 0 L 3.015625 0 Z M 19.140625 -42.546875 C 20.296875 -42.546875 21.085938 -42.984375 21.515625 -43.859375 C 21.941406 -44.734375 22.15625 -45.96875 22.15625 -47.5625 L 22.15625 -54.375 C 22.15625 -56.601562 21.175781 -57.71875 19.21875 -57.71875 L 16.359375 -57.71875 L 16.359375 -42.546875 Z M 17.703125 -11.984375 C 21.242188 -11.984375 23.015625 -13.675781 23.015625 -17.0625 L 23.015625 -25.5625 C 23.015625 -27.625 22.710938 -29.179688 22.109375 -30.234375 C 21.503906 -31.296875 20.429688 -31.828125 18.890625 -31.828125 L 16.359375 -31.828125 L 16.359375 -12.0625 Z M 17.703125 -11.984375 "/></g></g></g><g fill="#ffffff" fill-opacity="1"><g transform="translate(301.730135, 230.297771)"><g><path d="M 2.375 0 L 2.375 -68.203125 L 15.5625 -68.203125 L 15.5625 0 Z M 2.375 0 "/></g></g></g><g fill="#ffffff" fill-opacity="1"><g transform="translate(319.749397, 230.297771)"><g><path d="M 18.890625 0.640625 C 13.921875 0.640625 9.941406 -0.921875 6.953125 -4.046875 C 3.960938 -7.171875 2.46875 -11.457031 2.46875 -16.90625 L 2.46875 -48.34375 C 2.46875 -55.125 3.816406 -60.234375 6.515625 -63.671875 C 9.210938 -67.109375 13.445312 -68.828125 19.21875 -68.828125 C 24.238281 -68.828125 28.285156 -67.453125 31.359375 -64.703125 C 34.429688 -61.953125 35.96875 -57.984375 35.96875 -52.796875 L 35.96875 -41.046875 L 22.390625 -41.046875 L 22.390625 -51.125 C 22.390625 -53.082031 22.148438 -54.429688 21.671875 -55.171875 C 21.191406 -55.910156 20.375 -56.28125 19.21875 -56.28125 C 18 -56.28125 17.160156 -55.859375 16.703125 -55.015625 C 16.253906 -54.171875 16.03125 -52.925781 16.03125 -51.28125 L 16.03125 -17.0625 C 16.03125 -15.269531 16.296875 -13.960938 16.828125 -13.140625 C 17.359375 -12.316406 18.15625 -11.90625 19.21875 -11.90625 C 21.332031 -11.90625 22.390625 -13.625 22.390625 -17.0625 L 22.390625 -29.375 L 36.125 -29.375 L 36.125 -16.515625 C 36.125 -5.078125 30.378906 0.640625 18.890625 0.640625 Z M 18.890625 0.640625 "/></g></g></g><g fill="#ffffff" fill-opacity="1"><g transform="translate(357.375563, 230.297771)"><g/></g></g><g fill="#ffffff" fill-opacity="1"><g transform="translate(375.950516, 230.297771)"><g><path d="M 8.890625 0 L 8.890625 -55.09375 L 0.796875 -55.09375 L 0.796875 -68.203125 L 30.640625 -68.203125 L 30.640625 -55.09375 L 22.546875 -55.09375 L 22.546875 0 Z M 8.890625 0 "/></g></g></g><g fill="#ffffff" fill-opacity="1"><g transform="translate(407.385018, 230.297771)"><g><path d="M 3.015625 -68.203125 L 23.96875 -68.203125 C 27.3125 -68.203125 29.894531 -67.445312 31.71875 -65.9375 C 33.539062 -64.425781 34.769531 -62.304688 35.40625 -59.578125 C 36.039062 -56.859375 36.359375 -53.378906 36.359375 -49.140625 C 36.359375 -45.273438 35.851562 -42.257812 34.84375 -40.09375 C 33.84375 -37.925781 32.097656 -36.414062 29.609375 -35.5625 C 31.671875 -35.144531 33.164062 -34.113281 34.09375 -32.46875 C 35.019531 -30.832031 35.484375 -28.609375 35.484375 -25.796875 L 35.328125 0 L 21.984375 0 L 21.984375 -26.671875 C 21.984375 -28.578125 21.613281 -29.796875 20.875 -30.328125 C 20.132812 -30.859375 18.785156 -31.125 16.828125 -31.125 L 16.828125 0 L 3.015625 0 Z M 20.171875 -42.953125 C 22.066406 -42.953125 23.015625 -45.015625 23.015625 -49.140625 C 23.015625 -50.941406 22.9375 -52.289062 22.78125 -53.1875 C 22.625 -54.09375 22.332031 -54.71875 21.90625 -55.0625 C 21.488281 -55.40625 20.878906 -55.578125 20.078125 -55.578125 L 16.90625 -55.578125 L 16.90625 -42.953125 Z M 20.171875 -42.953125 "/></g></g></g><g fill="#ffffff" fill-opacity="1"><g transform="translate(445.249314, 230.297771)"><g><path d="M 1.1875 0 L 7.78125 -68.203125 L 30.890625 -68.203125 L 37.390625 0 L 24.453125 0 L 23.5 -11.03125 L 15.25 -11.03125 L 14.453125 0 Z M 16.28125 -21.90625 L 22.46875 -21.90625 L 19.453125 -56.609375 L 18.8125 -56.609375 Z M 16.28125 -21.90625 "/></g></g></g><g fill="#ffffff" fill-opacity="1"><g transform="translate(483.748651, 230.297771)"><g><path d="M 2.375 0 L 2.375 -68.203125 L 15.5625 -68.203125 L 15.5625 0 Z M 2.375 0 "/></g></g></g><g fill="#ffffff" fill-opacity="1"><g transform="translate(501.767914, 230.297771)"><g><path d="M 3.015625 0 L 3.015625 -68.203125 L 17.0625 -68.203125 L 23.34375 -35.5625 L 23.34375 -68.203125 L 36.515625 -68.203125 L 36.515625 0 L 23.1875 0 L 16.359375 -34.140625 L 16.359375 0 Z M 3.015625 0 "/></g></g></g><g fill="#ffffff" fill-opacity="1"><g transform="translate(541.299201, 230.297771)"><g><path d="M 2.375 0 L 2.375 -68.203125 L 15.5625 -68.203125 L 15.5625 0 Z M 2.375 0 "/></g></g></g><g fill="#ffffff" fill-opacity="1"><g transform="translate(559.318464, 230.297771)"><g><path d="M 3.015625 0 L 3.015625 -68.203125 L 17.0625 -68.203125 L 23.34375 -35.5625 L 23.34375 -68.203125 L 36.515625 -68.203125 L 36.515625 0 L 23.1875 0 L 16.359375 -34.140625 L 16.359375 0 Z M 3.015625 0 "/></g></g></g><g fill="#ffffff" fill-opacity="1"><g transform="translate(598.849751, 230.297771)"><g><path d="M 17.0625 0.640625 C 12.144531 0.640625 8.484375 -1.09375 6.078125 -4.5625 C 3.671875 -8.03125 2.46875 -13.285156 2.46875 -20.328125 L 2.46875 -49.703125 C 2.46875 -55.992188 3.867188 -60.753906 6.671875 -63.984375 C 9.472656 -67.210938 13.65625 -68.828125 19.21875 -68.828125 C 23.707031 -68.828125 27.195312 -67.925781 29.6875 -66.125 C 32.175781 -64.332031 33.894531 -61.710938 34.84375 -58.265625 C 35.800781 -54.828125 36.28125 -50.410156 36.28125 -45.015625 L 22.9375 -45.015625 L 22.9375 -51.125 C 22.9375 -52.769531 22.710938 -54.039062 22.265625 -54.9375 C 21.816406 -55.832031 21.007812 -56.28125 19.84375 -56.28125 C 17.25 -56.28125 15.953125 -54.585938 15.953125 -51.203125 L 15.953125 -18.1875 C 15.953125 -16.113281 16.21875 -14.546875 16.75 -13.484375 C 17.28125 -12.429688 18.207031 -11.90625 19.53125 -11.90625 C 20.851562 -11.90625 21.78125 -12.429688 22.3125 -13.484375 C 22.84375 -14.546875 23.109375 -16.113281 23.109375 -18.1875 L 23.109375 -27.953125 L 19.453125 -27.953125 L 19.453125 -39.6875 L 36.125 -39.6875 L 36.125 0 L 30.640625 0 L 28.34375 -5.71875 C 25.90625 -1.476562 22.144531 0.640625 17.0625 0.640625 Z M 17.0625 0.640625 "/></g></g></g><g fill="#050505" fill-opacity="1"><g transform="translate(251.067763, 424.958076)"><g><path d="M 3.15625 -4.328125 C 3.15625 -8.460938 3.804688 -12.285156 5.109375 -15.796875 C 6.410156 -19.316406 8.007812 -22.484375 9.90625 -25.296875 C 11.800781 -28.109375 14.296875 -31.410156 17.390625 -35.203125 C 20.546875 -39.140625 23.054688 -42.476562 24.921875 -45.21875 C 26.785156 -47.957031 28.363281 -51.097656 29.65625 -54.640625 C 30.957031 -58.191406 31.609375 -62.039062 31.609375 -66.1875 C 31.609375 -68.644531 31.257812 -70.554688 30.5625 -71.921875 C 29.863281 -73.296875 28.597656 -73.984375 26.765625 -73.984375 C 23.742188 -73.984375 22.234375 -71.28125 22.234375 -65.875 L 22.234375 -54.796875 L 3.15625 -54.796875 L 2.953125 -60.390625 C 2.953125 -67.273438 3.65625 -72.929688 5.0625 -77.359375 C 6.46875 -81.785156 8.925781 -85.15625 12.4375 -87.46875 C 15.945312 -89.789062 20.796875 -90.953125 26.984375 -90.953125 C 34.566406 -90.953125 40.429688 -88.828125 44.578125 -84.578125 C 48.722656 -80.328125 50.796875 -74.300781 50.796875 -66.5 C 50.796875 -61.507812 50.109375 -56.992188 48.734375 -52.953125 C 47.367188 -48.921875 45.6875 -45.390625 43.6875 -42.359375 C 41.6875 -39.335938 39.035156 -35.789062 35.734375 -31.71875 C 33.335938 -28.84375 31.347656 -26.28125 29.765625 -24.03125 C 28.191406 -21.78125 26.769531 -19.460938 25.5 -17.078125 L 50.171875 -17.078125 L 50.171875 0 L 3.15625 0 Z M 3.15625 -4.328125 "/></g></g></g><g fill="#050505" fill-opacity="1"><g transform="translate(303.12407, 424.958076)"><g><path d="M 26.03125 0.84375 C 18.375 0.84375 12.472656 -1.316406 8.328125 -5.640625 C 4.179688 -9.960938 2.109375 -16.128906 2.109375 -24.140625 L 2.109375 -65.03125 C 2.109375 -73.601562 4.109375 -80.132812 8.109375 -84.625 C 12.117188 -89.125 18.09375 -91.375 26.03125 -91.375 C 34.039062 -91.375 40.046875 -89.125 44.046875 -84.625 C 48.054688 -80.132812 50.0625 -73.601562 50.0625 -65.03125 L 50.0625 -24.140625 C 50.0625 -16.054688 47.988281 -9.867188 43.84375 -5.578125 C 39.695312 -1.296875 33.757812 0.84375 26.03125 0.84375 Z M 26.03125 -15.8125 C 27.363281 -15.8125 28.453125 -16.425781 29.296875 -17.65625 C 30.140625 -18.882812 30.5625 -20.34375 30.5625 -22.03125 L 30.5625 -66.71875 C 30.5625 -69.3125 30.257812 -71.289062 29.65625 -72.65625 C 29.0625 -74.03125 27.851562 -74.71875 26.03125 -74.71875 C 24.207031 -74.71875 23.015625 -74.03125 22.453125 -72.65625 C 21.890625 -71.289062 21.609375 -69.3125 21.609375 -66.71875 L 21.609375 -22.03125 C 21.609375 -20.34375 22.007812 -18.882812 22.8125 -17.65625 C 23.625 -16.425781 24.695312 -15.8125 26.03125 -15.8125 Z M 26.03125 -15.8125 "/></g></g></g><g fill="#050505" fill-opacity="1"><g transform="translate(355.180377, 424.958076)"><g><path d="M 26.03125 0.84375 C 18.375 0.84375 12.472656 -1.316406 8.328125 -5.640625 C 4.179688 -9.960938 2.109375 -16.128906 2.109375 -24.140625 L 2.109375 -65.03125 C 2.109375 -73.601562 4.109375 -80.132812 8.109375 -84.625 C 12.117188 -89.125 18.09375 -91.375 26.03125 -91.375 C 34.039062 -91.375 40.046875 -89.125 44.046875 -84.625 C 48.054688 -80.132812 50.0625 -73.601562 50.0625 -65.03125 L 50.0625 -24.140625 C 50.0625 -16.054688 47.988281 -9.867188 43.84375 -5.578125 C 39.695312 -1.296875 33.757812 0.84375 26.03125 0.84375 Z M 26.03125 -15.8125 C 27.363281 -15.8125 28.453125 -16.425781 29.296875 -17.65625 C 30.140625 -18.882812 30.5625 -20.34375 30.5625 -22.03125 L 30.5625 -66.71875 C 30.5625 -69.3125 30.257812 -71.289062 29.65625 -72.65625 C 29.0625 -74.03125 27.851562 -74.71875 26.03125 -74.71875 C 24.207031 -74.71875 23.015625 -74.03125 22.453125 -72.65625 C 21.890625 -71.289062 21.609375 -69.3125 21.609375 -66.71875 L 21.609375 -22.03125 C 21.609375 -20.34375 22.007812 -18.882812 22.8125 -17.65625 C 23.625 -16.425781 24.695312 -15.8125 26.03125 -15.8125 Z M 26.03125 -15.8125 "/></g></g></g><g fill="#050505" fill-opacity="1"><g transform="translate(407.236684, 424.958076)"><g/></g></g><g fill="#ffffff" fill-opacity="1"><g transform="translate(431.90326, 424.958076)"><g><path d="M 25.078125 0.84375 C 18.472656 0.84375 13.1875 -1.226562 9.21875 -5.375 C 5.25 -9.519531 3.265625 -15.210938 3.265625 -22.453125 L 3.265625 -64.1875 C 3.265625 -73.175781 5.054688 -79.953125 8.640625 -84.515625 C 12.222656 -89.085938 17.84375 -91.375 25.5 -91.375 C 32.175781 -91.375 37.550781 -89.546875 41.625 -85.890625 C 45.695312 -82.234375 47.734375 -76.960938 47.734375 -70.078125 L 47.734375 -54.484375 L 29.71875 -54.484375 L 29.71875 -67.875 C 29.71875 -70.46875 29.398438 -72.253906 28.765625 -73.234375 C 28.140625 -74.222656 27.050781 -74.71875 25.5 -74.71875 C 23.882812 -74.71875 22.773438 -74.15625 22.171875 -73.03125 C 21.578125 -71.90625 21.28125 -70.253906 21.28125 -68.078125 L 21.28125 -22.65625 C 21.28125 -20.269531 21.628906 -18.53125 22.328125 -17.4375 C 23.035156 -16.351562 24.09375 -15.8125 25.5 -15.8125 C 28.3125 -15.8125 29.71875 -18.09375 29.71875 -22.65625 L 29.71875 -39 L 47.953125 -39 L 47.953125 -21.921875 C 47.953125 -6.742188 40.328125 0.84375 25.078125 0.84375 Z M 25.078125 0.84375 "/></g></g></g><g fill="#ffffff" fill-opacity="1"><g transform="translate(481.852033, 424.958076)"><g><path d="M 1.578125 0 L 10.328125 -90.53125 L 41 -90.53125 L 49.640625 0 L 32.453125 0 L 31.203125 -14.65625 L 20.234375 -14.65625 L 19.1875 0 Z M 21.609375 -29.09375 L 29.828125 -29.09375 L 25.828125 -75.140625 L 24.984375 -75.140625 Z M 21.609375 -29.09375 "/></g></g></g><g fill="#ffffff" fill-opacity="1"><g transform="translate(532.959949, 424.958076)"><g><path d="M 4 0 L 4 -90.53125 L 22.125 -90.53125 L 22.125 -15.390625 L 40.78125 -15.390625 L 40.78125 0 Z M 4 0 "/></g></g></g><g fill="#ffffff" fill-opacity="1"><g transform="translate(574.794679, 424.958076)"><g><path d="M 25.609375 0.84375 C 18.304688 0.84375 12.753906 -1.382812 8.953125 -5.84375 C 5.160156 -10.3125 3.265625 -16.582031 3.265625 -24.65625 L 3.265625 -67.765625 C 3.265625 -75.566406 5.160156 -81.453125 8.953125 -85.421875 C 12.753906 -89.390625 18.304688 -91.375 25.609375 -91.375 C 32.921875 -91.375 38.472656 -89.390625 42.265625 -85.421875 C 46.054688 -81.453125 47.953125 -75.566406 47.953125 -67.765625 L 47.953125 -24.65625 C 47.953125 -16.507812 46.054688 -10.222656 42.265625 -5.796875 C 38.472656 -1.367188 32.921875 0.84375 25.609375 0.84375 Z M 25.609375 -15.8125 C 27.222656 -15.8125 28.3125 -16.515625 28.875 -17.921875 C 29.4375 -19.328125 29.71875 -21.289062 29.71875 -23.8125 L 29.71875 -68.078125 C 29.71875 -70.046875 29.453125 -71.644531 28.921875 -72.875 C 28.398438 -74.101562 27.332031 -74.71875 25.71875 -74.71875 C 22.695312 -74.71875 21.1875 -72.4375 21.1875 -67.875 L 21.1875 -23.71875 C 21.1875 -21.113281 21.5 -19.144531 22.125 -17.8125 C 22.757812 -16.476562 23.921875 -15.8125 25.609375 -15.8125 Z M 25.609375 -15.8125 "/></g></g></g><g fill="#ffffff" fill-opacity="1"><g transform="translate(626.007982, 424.958076)"><g><path d="M 4 -90.53125 L 31.828125 -90.53125 C 36.253906 -90.53125 39.675781 -89.523438 42.09375 -87.515625 C 44.519531 -85.515625 46.15625 -82.707031 47 -79.09375 C 47.84375 -75.476562 48.265625 -70.859375 48.265625 -65.234375 C 48.265625 -60.109375 47.597656 -56.101562 46.265625 -53.21875 C 44.929688 -50.34375 42.613281 -48.34375 39.3125 -47.21875 C 42.050781 -46.65625 44.035156 -45.285156 45.265625 -43.109375 C 46.492188 -40.929688 47.109375 -37.976562 47.109375 -34.25 L 46.90625 0 L 29.1875 0 L 29.1875 -35.40625 C 29.1875 -37.9375 28.695312 -39.550781 27.71875 -40.25 C 26.738281 -40.957031 24.945312 -41.3125 22.34375 -41.3125 L 22.34375 0 L 4 0 Z M 26.765625 -57.015625 C 29.296875 -57.015625 30.5625 -59.753906 30.5625 -65.234375 C 30.5625 -67.617188 30.457031 -69.410156 30.25 -70.609375 C 30.039062 -71.804688 29.65625 -72.628906 29.09375 -73.078125 C 28.53125 -73.535156 27.71875 -73.765625 26.65625 -73.765625 L 22.453125 -73.765625 L 22.453125 -57.015625 Z M 26.765625 -57.015625 "/></g></g></g><g fill="#ffffff" fill-opacity="1"><g transform="translate(676.27287, 424.958076)"><g><path d="M 3.15625 0 L 3.15625 -90.53125 L 20.65625 -90.53125 L 20.65625 0 Z M 3.15625 0 "/></g></g></g><g fill="#ffffff" fill-opacity="1"><g transform="translate(700.193484, 424.958076)"><g><path d="M 4 0 L 4 -90.53125 L 40.265625 -90.53125 L 40.265625 -73.03125 L 22.453125 -73.03125 L 22.453125 -55.4375 L 39.515625 -55.4375 L 39.515625 -38.359375 L 22.453125 -38.359375 L 22.453125 -17.59375 L 41.421875 -17.59375 L 41.421875 0 Z M 4 0 "/></g></g></g><g fill="#ffffff" fill-opacity="1"><g transform="translate(743.608871, 424.958076)"><g><path d="M 25.5 0.84375 C 17.28125 0.84375 11.34375 -1.191406 7.6875 -5.265625 C 4.039062 -9.335938 2.21875 -15.910156 2.21875 -24.984375 L 2.21875 -33.828125 L 20.03125 -33.828125 L 20.03125 -22.546875 C 20.03125 -18.054688 21.46875 -15.8125 24.34375 -15.8125 C 25.957031 -15.8125 27.082031 -16.285156 27.71875 -17.234375 C 28.351562 -18.179688 28.671875 -19.78125 28.671875 -22.03125 C 28.671875 -24.976562 28.316406 -27.414062 27.609375 -29.34375 C 26.910156 -31.28125 26.015625 -32.898438 24.921875 -34.203125 C 23.835938 -35.503906 21.890625 -37.523438 19.078125 -40.265625 L 11.28125 -48.0625 C 5.238281 -53.957031 2.21875 -60.488281 2.21875 -67.65625 C 2.21875 -75.382812 3.988281 -81.269531 7.53125 -85.3125 C 11.082031 -89.351562 16.265625 -91.375 23.078125 -91.375 C 31.234375 -91.375 37.101562 -89.210938 40.6875 -84.890625 C 44.269531 -80.566406 46.0625 -73.804688 46.0625 -64.609375 L 27.609375 -64.609375 L 27.5 -70.828125 C 27.5 -72.015625 27.164062 -72.957031 26.5 -73.65625 C 25.832031 -74.363281 24.90625 -74.71875 23.71875 -74.71875 C 22.3125 -74.71875 21.253906 -74.332031 20.546875 -73.5625 C 19.847656 -72.789062 19.5 -71.738281 19.5 -70.40625 C 19.5 -67.445312 21.1875 -64.390625 24.5625 -61.234375 L 35.09375 -51.109375 C 37.550781 -48.722656 39.585938 -46.457031 41.203125 -44.3125 C 42.816406 -42.175781 44.113281 -39.648438 45.09375 -36.734375 C 46.082031 -33.816406 46.578125 -30.351562 46.578125 -26.34375 C 46.578125 -17.425781 44.941406 -10.664062 41.671875 -6.0625 C 38.410156 -1.457031 33.019531 0.84375 25.5 0.84375 Z M 25.5 0.84375 "/></g></g></g></svg>